<svg width="2465" height="2039" viewBox="0 0 2465 2039" fill="none" xmlns="http://www.w3.org/2000/svg">
<rect width="2465" height="2039" fill="white"/>
<path d="M333.651 1868.24C291.419 1872.57 250.458 1881.02 211.807 1901.1C205.934 1904.15 199.36 1908.9 199.929 1915.49C200.391 1920.74 205.29 1924.35 209.901 1926.9C242.556 1944.94 280.738 1940.74 316.56 1944.62C398.285 1953.49 487.391 1958.65 576.894 1962.43C875.829 1975.18 1183.15 1973.81 1487.51 1971.35C1680.6 1969.79 1844.35 1989.34 2033.77 1980.98C2132.75 1976.62 2263.42 1948.64 2341.9 1934.71C2385.81 1926.91 2423.04 1916.08 2425.84 1903.71C2429.37 1888.04 2375.71 1874.02 2311.43 1867.14C2247.15 1860.26 2173.74 1859.19 2102.42 1858.2C2035.71 1857.27 1969 1856.31 1902.31 1855.3C1588.15 1850.88 1273.93 1860.85 960.003 1844.28C856.751 1838.84 753.375 1831.21 649.916 1834.48C548.866 1837.66 450.142 1858.72 349.562 1866.79C344.244 1867.22 338.941 1867.7 333.651 1868.24Z" fill="#FFEDCD"/>
<path d="M2332.71 566.312C2319.44 587.445 2306.03 608.494 2292.47 629.462C2283.3 643.566 2274.05 657.63 2264.73 671.652C2260.07 678.663 2255.37 685.649 2250.63 692.611L2243.47 703.028L2239.89 708.241L2236.26 713.421L2238.97 707.705L2241.74 702.022L2247.27 690.656C2251.01 683.106 2254.77 675.572 2258.55 668.055C2266.11 653.011 2273.82 638.048 2281.57 623.11C2294.09 599.058 2306.81 575.122 2319.72 551.301C2297.92 527.81 2272.4 508.069 2244.19 492.869C2240.39 500.804 2236.49 508.665 2232.55 516.509C2215.23 550.896 2196.77 584.607 2177.45 617.823C2158.13 651.039 2137.86 683.727 2116.53 715.747C2111.18 723.759 2105.76 731.719 2100.25 739.626C2097.48 743.569 2094.75 747.536 2091.94 751.462L2083.49 763.241C2077.78 771.036 2072.03 778.806 2066.09 786.46C2060.15 794.115 2054.14 801.744 2047.79 809.16C2051.09 799.971 2054.75 791.013 2058.52 782.047C2062.28 773.081 2066.17 764.272 2070.13 755.463L2076.18 742.315C2078.21 737.935 2080.31 733.605 2082.39 729.25C2086.51 720.54 2090.79 711.928 2095.12 703.317C2112.44 668.93 2130.92 635.219 2150.27 602.019C2169.62 568.82 2189.86 536.14 2211.23 504.12C2215.83 497.233 2220.46 490.37 2225.2 483.565C2208.59 476.121 2191.29 470.32 2173.56 466.244C2111.78 452.123 2047.28 458.928 1984.19 453.047C1892.63 444.493 1803.96 408.077 1732.3 350.512C1658.88 291.536 1601.33 215.116 1526.71 157.221C1501.98 138.096 1475.63 121.175 1447.94 106.65C1437.1 100.942 1426.08 95.5947 1414.88 90.6073C1386.61 78.0324 1357.51 67.4488 1327.77 58.9337C1316.08 79.1971 1304.35 99.4412 1292.58 119.666C1258.74 177.751 1224.5 235.61 1189.88 293.244C1155.23 350.875 1120.25 408.283 1084.17 465.064C1115.77 405.677 1148.45 346.907 1181.5 288.361C1214.54 229.814 1248.01 171.507 1281.85 113.414C1293.1 94.1128 1304.39 74.8337 1315.71 55.5766C1213.76 28.2252 1104.56 23.5072 999.341 38.0985C989.146 55.9313 978.883 73.7257 968.55 91.4816C934.732 149.583 900.089 207.211 864.621 264.366C846.855 292.916 828.846 321.324 810.595 349.588C801.415 363.693 792.209 377.781 782.856 391.778C778.187 398.789 773.486 405.775 768.751 412.737L761.592 423.163L758.012 428.368L754.383 433.548L757.096 427.831L759.86 422.148L765.394 410.782C769.122 403.232 772.881 395.699 776.67 388.182C784.233 373.137 791.946 358.174 799.691 343.237C815.225 313.389 831.056 283.711 847.185 254.204C879.402 195.168 912.454 136.622 946.338 78.5647C953.222 66.7531 960.143 54.9608 967.099 43.1877C930.48 49.6747 894.329 58.5692 858.881 69.8132C744.534 106.172 639.418 171.482 565.331 266.948C530.515 311.802 500.73 363.874 481.553 417.422C460.107 477.305 455.365 543.885 419.32 597.961C369.401 672.831 281.911 692.916 212.023 743.346C166.987 775.836 127.346 817.894 106.288 869.273C75.3729 944.721 84.2976 1031.77 108.828 1114.04L109.001 1113.74C128.352 1080.54 148.057 1047.55 168.117 1014.76C188.259 982.02 208.641 949.422 230.07 917.427C212.815 951.839 194.512 985.649 175.961 1019.32C157.411 1052.99 138.357 1086.35 119.048 1119.56C117.208 1122.71 115.352 1125.86 113.513 1129.01C129.68 1179.11 151.167 1227.04 172.39 1268.98C233.254 1389.29 319.589 1501.64 428.797 1581.85C561.595 1679.37 722.041 1724.9 884.104 1747.57C973.112 1760.03 1062.6 1765.59 1148.23 1769.1C1219.72 1772.11 1291.34 1770.08 1362.55 1763.02C1568.33 1742.48 1759.94 1679.88 1958.08 1584.18C1998.49 1564.64 2038.27 1541.35 2075.2 1514.29C2168.21 1446.19 2243.47 1354.27 2267.31 1238.67C2280.25 1175.86 2276.53 1110.31 2291.95 1048.07C2308.6 980.914 2346.56 921.271 2372.39 857.082C2405.98 773.593 2401.64 677.558 2355.62 599.438C2348.8 587.854 2341.14 576.783 2332.71 566.312Z" fill="#FCF5EA"/>
<path d="M1890.09 713.414L1362.54 1762.99C1291.33 1770.04 1219.72 1772.08 1148.22 1769.07C1062.59 1765.56 973.103 1759.99 884.095 1747.54C722.048 1724.87 561.586 1679.34 428.788 1581.82C330.105 1509.34 254.303 1417.25 190.832 1303.75C328.579 1042.87 558.707 599.002 558.707 599.002L1890.09 713.414Z" fill="#FFEDCD"/>
<g opacity="0.39">
<path d="M1873.41 623.13V1488.03C1873.41 1510.33 1864.55 1531.72 1848.78 1547.48C1833.01 1563.25 1811.63 1572.11 1789.33 1572.12H626.145C603.849 1572.11 582.468 1563.25 566.705 1547.48C550.941 1531.71 542.086 1510.33 542.086 1488.03V623.13C542.088 600.835 550.944 579.454 566.708 563.688C582.471 547.922 603.85 539.061 626.145 539.055H1789.33C1811.63 539.057 1833.01 547.915 1848.78 563.682C1864.54 579.449 1873.4 600.832 1873.41 623.13Z" fill="#F9A730"/>
</g>
<path d="M1890.08 605.429V1470.32C1890.08 1492.62 1881.22 1514.01 1865.45 1529.78C1849.69 1545.54 1828.3 1554.4 1806 1554.41H642.817C620.518 1554.4 599.134 1545.54 583.367 1529.78C567.6 1514.01 558.742 1492.62 558.742 1470.32V605.429C558.744 583.131 567.603 561.748 583.37 545.981C599.136 530.214 620.52 521.356 642.817 521.354H1806C1828.3 521.356 1849.68 530.214 1865.45 545.981C1881.22 561.748 1890.08 583.131 1890.08 605.429V605.429Z" fill="#A67A4A"/>
<path d="M1861.58 695.154L1861.81 1376.04C1861.81 1450.02 1813.48 1510.05 1753.76 1510.1L695.353 1510.84C635.643 1510.89 587.218 1450.94 587.176 1376.95L586.945 696.078C586.945 622.082 635.28 562.059 694.998 562.01L1753.4 561.268C1813.14 561.218 1861.55 621.167 1861.58 695.154Z" fill="#FFEDCD"/>
<path d="M1845.96 703.518L1846.18 1367.7C1846.22 1439.88 1799.03 1498.42 1740.79 1498.47L708.341 1499.2C650.1 1499.24 602.854 1440.77 602.821 1368.59L602.59 704.409C602.59 632.236 649.737 573.681 707.987 573.632L1740.44 572.914C1798.68 572.865 1845.92 631.337 1845.96 703.518Z" fill="white"/>
<path d="M1736.13 849.799L1645.08 708.753L1727.6 679.455L1812.24 811.082L1837.11 796.713L1693.44 573.184H1659.25L1711.61 654.603L1629.05 683.925L1557.61 573.25L1391.51 573.332L1367.71 587.354L1347.49 573.332H1296.88L1342.19 604.799L1280.81 725.225L1132.49 622.22L1160.33 573.39H1126.83L1108.48 605.558L1062.24 573.448H1001.53L970.915 627.144L965.142 573.53H935.786L945.997 670.86L829.877 874.338L692.601 605.773L752.747 573.604H748.813C698.498 573.604 654.568 599.793 630.961 638.667L640.859 633.388L694.688 738.703L612.625 819.214V860.044L708.809 766.351L788.438 922.178L653.66 1098.69L612.724 1076.12V1140L693.013 1194.24L656.11 1263.02L612.765 1234.67V1269.18L671.897 1307.87L612.806 1358.11V1368.6C612.806 1398.49 625.352 1423.33 625.352 1423.33L686.142 1371.88L734.915 1498.5C739.616 1498.97 766.456 1499.21 766.456 1499.21L709.798 1352.07L709.37 1352.23L721.288 1342.15L904.912 1443.82L775.587 1499.21L920.527 1499.12L967.971 1478.74L1004.68 1499.07L1102.18 1499.02L1225.77 1419.95L1244.36 1434.22L1267.45 1498.93H1298.71L1269.24 1416.99L1085.85 1276.11L1110.92 1220.21L1653.19 1459.14L1452.22 1498.84L1603.17 1498.76L1665.75 1486.52L1669.26 1498.72H1729.74L1713.64 1443.32L1856.11 1046.57L1778.81 921.131L1806.85 928.455V868.102L1736.13 849.799ZM1387.83 641.595L1492.95 580.178L1572.08 704.117L1438.03 751.735L1375.45 665.911L1387.83 641.595ZM1360.61 694.945L1415.74 770.558L1380.32 838.351L1325.95 762.961L1360.61 694.945ZM1473.39 1016.46L1392.21 1075.24L1271.69 1109.27L1384.16 893.985L1473.39 1016.46ZM1587.35 1005.87L1659.51 1104.85L1515.02 1058.48L1587.35 1005.87ZM1310.62 793.125L1365 867.747L1233.11 1120.15L1130.26 1147.03L1310.62 793.125ZM963.278 1146.38L967.798 1144.16L905.02 1021.34L977.531 894.109L1137.99 1005.52L1089.32 1101.08L963.278 1146.38ZM1316.91 1156.69L1418.55 1128.39L1422.93 1125.52L1468.58 1092.3L1425.79 1237.42L1316.91 1156.69ZM1399.39 864.819L1434.9 796.861L1552.97 958.809L1496.63 999.613L1399.39 864.819ZM1267.53 751.248L1151.17 979.57L991.858 868.919L1118.06 647.468L1267.53 751.248ZM980.294 669.474L1028.38 585.177L1094.07 630.79L1046.97 713.421L980.294 669.474ZM845.681 905.376L965.686 695.044L1032.91 737.993L889.034 990.186L845.681 905.376ZM677.787 1114.96L729.116 1047.75L773.112 1079.56L725.817 1147.27L677.787 1114.96ZM749.951 1163.5L812.638 1073.82L746.569 1024.89L803.07 950.899L912.336 1164.7L807.689 1202.28L749.951 1163.5ZM672.764 1273.94L717.065 1210.54L755.676 1236.62L694.82 1288.38L672.764 1273.94ZM744.829 1322.23L805.867 1270.55L974.058 1384.2L957.487 1421.32L938.458 1429.45L744.829 1322.23ZM1201.41 1401.27L1055.81 1494.42L1001.45 1464.33L1073.69 1303.26L1201.41 1401.27ZM998.119 1330.41L867.077 1242.21L1070.36 1168.7L998.119 1330.41ZM1188.65 1192.37L1281.56 1166.51L1501.98 1329.9L1188.65 1192.37ZM1666.16 1402.01L1620.97 1382.17L1450.67 1255.91L1501.64 1084.46L1751.7 1164.69L1666.16 1402.01ZM1791.71 1053.71L1761.47 1137.6L1706.44 1119.94L1610.76 988.792L1708.8 917.444L1791.71 1053.71ZM1677.24 868.82L1576.61 941.702L1455.76 775.977L1588.01 728.961L1677.24 868.82Z" fill="#FFAB3E"/>
<path d="M1726.18 849.799L1635.12 708.753L1717.65 679.455L1802.28 811.082L1827.16 796.713L1683.49 573.184H1649.3L1701.66 654.603L1619.1 683.925L1547.65 573.25L1381.56 573.332L1357.75 587.354L1337.54 573.332H1286.92L1332.23 604.799L1270.86 725.225L1122.53 622.22L1150.37 573.39H1116.88L1098.53 605.558L1052.28 573.448H991.576L960.958 627.144L955.184 573.53H925.853L936.065 670.86L819.936 874.371L682.66 605.806L742.815 573.637H738.872C688.557 573.637 644.627 599.826 621.028 638.7L630.926 633.421L684.738 738.711L602.676 819.223V860.052L698.859 766.359L778.489 922.186L643.703 1098.7L602.767 1076.12V1140.01L683.047 1194.25L646.144 1263.02L602.808 1234.67V1269.19L661.94 1307.88L602.857 1358.12V1368.61C602.857 1398.49 615.395 1423.34 615.395 1423.34L676.185 1371.89L724.957 1498.51C729.667 1498.98 756.507 1499.21 756.507 1499.21L699.849 1352.08L699.412 1352.24L711.331 1342.16L894.963 1443.83L765.63 1499.21L910.577 1499.13L958.022 1478.75L994.735 1499.08L1092.24 1498.99L1215.84 1419.92L1234.42 1434.19L1257.52 1498.9H1288.78L1259.31 1416.97L1075.91 1276.09L1101 1220.19L1643.26 1459.11L1442.3 1498.82L1593.24 1498.74L1655.81 1486.5L1659.33 1498.69H1719.82L1703.71 1443.29L1846.18 1046.55L1768.87 921.106L1796.92 928.43V868.077L1726.18 849.799ZM1377.88 641.595L1483 580.178L1562.12 704.117L1428.08 751.735L1365.5 665.911L1377.88 641.595ZM1350.66 694.945L1405.79 770.558L1370.36 838.351L1316 762.961L1350.66 694.945ZM1463.41 1016.46L1382.23 1075.24L1261.74 1109.26L1374.2 893.977L1463.41 1016.46ZM1577.36 1005.87L1649.53 1104.85L1505.04 1058.48L1577.36 1005.87ZM1300.64 793.125L1355.02 867.747L1223.14 1120.15L1120.28 1147.03L1300.64 793.125ZM953.304 1146.38L957.815 1144.16L895.029 1021.35L967.548 894.117L1127.99 1005.53L1079.29 1101.09L953.304 1146.38ZM1306.95 1156.69L1408.6 1128.39L1412.98 1125.52L1458.62 1092.3L1415.84 1237.42L1306.95 1156.69ZM1389.48 864.819L1424.95 796.861L1543.03 958.809L1486.68 999.613L1389.48 864.819ZM1257.63 751.248L1141.26 979.57L981.942 868.919L1108.14 647.468L1257.63 751.248ZM970.378 669.474L1018.47 585.177L1084.15 630.79L1037.02 713.446L970.378 669.474ZM835.765 905.376L955.778 695.044L1022.99 737.993L879.126 990.186L835.765 905.376ZM667.871 1114.96L719.2 1047.75L763.205 1079.56L715.909 1147.27L667.871 1114.96ZM740.035 1163.5L802.722 1073.82L736.653 1024.89L793.154 950.899L902.428 1164.7L797.773 1202.28L740.035 1163.5ZM662.847 1273.94L707.157 1210.54L745.768 1236.62L684.912 1288.38L662.847 1273.94ZM734.921 1322.23L795.959 1270.55L964.142 1384.2L947.571 1421.32L928.542 1429.45L734.921 1322.23ZM1191.49 1401.27L1045.9 1494.42L991.534 1464.33L1063.77 1303.26L1191.49 1401.27ZM988.21 1330.41L857.161 1242.21L1060.45 1168.7L988.21 1330.41ZM1178.75 1192.37L1271.64 1166.51L1492.03 1329.9L1178.75 1192.37ZM1656.24 1402.01L1611.06 1382.14L1440.75 1255.88L1491.73 1084.43L1741.79 1164.65L1656.24 1402.01ZM1781.8 1053.68L1751.56 1137.57L1696.53 1119.91L1600.85 988.759L1698.89 917.411L1781.8 1053.68ZM1667.29 868.82L1566.66 941.702L1445.8 775.977L1578.05 728.961L1667.29 868.82Z" fill="#FFEACB"/>
<path d="M964.163 1384.17L795.98 1270.52L734.918 1322.2L928.572 1429.43L947.593 1421.29L964.163 1384.17Z" fill="#89C4BE"/>
<path d="M742.799 573.634L682.645 605.778L819.921 874.343L936.049 670.832L925.838 573.535L742.799 573.634Z" fill="#89C4BE"/>
<path d="M1649.57 1104.85L1505.08 1058.48L1577.4 1005.86L1649.57 1104.85Z" fill="#89C4BE"/>
<path d="M1261.75 1109.26L1382.27 1075.23L1463.45 1016.45L1374.21 894.016L1261.75 1109.26Z" fill="#89C4BE"/>
<path d="M1450.59 1180.17L1386.17 1234.91H1400.94V1316.19H1496.94V1234.91H1515.02L1450.59 1180.17Z" fill="#FFAB3E"/>
<path d="M1487.85 1229.41H1392.84V1307.18H1487.85V1229.41Z" fill="#F83B51"/>
<path d="M1378.71 1229.41L1440.34 1177.04L1501.97 1229.41H1378.71Z" fill="#FFAB3E"/>
<path d="M1436.85 1245.1H1411.12V1273.83H1436.85V1245.1Z" stroke="white" stroke-width="3.68" stroke-linecap="round" stroke-linejoin="bevel"/>
<path d="M1423.99 1245.1V1273.82" stroke="white" stroke-width="3.68" stroke-linecap="round" stroke-linejoin="bevel"/>
<path d="M1409.62 1259.46H1438.35" stroke="white" stroke-width="3.68" stroke-linecap="round" stroke-linejoin="bevel"/>
<path d="M1487.85 1229.41H1392.84V1307.18H1487.85V1229.41Z" stroke="white" stroke-width="2.76" stroke-miterlimit="10"/>
<path d="M1378.71 1229.41L1440.34 1177.04L1501.97 1229.41H1378.71Z" stroke="white" stroke-width="2.76" stroke-miterlimit="10"/>
<path d="M1436.85 1245.1H1411.12V1273.83H1436.85V1245.1Z" stroke="white" stroke-width="2.76" stroke-miterlimit="10"/>
<path d="M1423.99 1245.1V1273.82" stroke="white" stroke-width="2.76" stroke-miterlimit="10"/>
<path d="M1409.62 1259.46H1438.35" stroke="white" stroke-width="2.76" stroke-miterlimit="10"/>
<path opacity="0.5" d="M1890.08 695.451V605.429C1890.08 583.131 1881.22 561.748 1865.45 545.981C1849.68 530.214 1828.3 521.356 1806 521.354H1738.41C1716.14 533.784 1692.33 547.163 1667.17 561.325C1354.16 737.501 835.003 1035.87 587.125 1178.65L558.742 1194.99V1434.19C811.132 1290 1601.11 854.553 1890.08 695.451Z" fill="white"/>
<path opacity="0.5" d="M823.73 1554.41H1806.02C1828.32 1554.4 1849.71 1545.54 1865.47 1529.78C1881.24 1514.01 1890.1 1492.62 1890.1 1470.32V1009.7L823.73 1554.41Z" fill="white"/>
<path d="M1737.14 1303.89C1730.82 1349.4 1690.39 1380.2 1675.72 1384.73C1675.72 1384.73 1628.03 1404.17 1609.49 1379.31C1590.95 1354.45 1603.18 1321.57 1614.55 1279.05C1625.91 1236.53 1691.26 1102.53 1689.11 1094.95C1686.97 1087.36 1676.89 1044.85 1673.94 1035.56C1670.98 1026.26 1673.11 1021.54 1677.71 1017.14C1677.71 1017.14 1662.5 1007.33 1681.01 993.847C1681.01 993.847 1672.61 982.86 1681.45 976.525C1690.03 970.405 1694.28 975.701 1694.53 976.072C1694.42 975.75 1692.06 968.648 1701.86 964.095C1711.93 959.46 1715.61 964.442 1715.61 964.442C1715.61 964.442 1717.35 968.689 1720.22 976.113C1723.56 984.65 1728.42 997.418 1733.95 1012.76C1737.47 1022.55 1745.65 1052.7 1746.78 1092.14C1749.03 1168.08 1741.3 1273.96 1737.14 1303.89Z" fill="#FFA188"/>
<path d="M1694.57 976.1C1697.11 977.074 1699.59 978.209 1701.99 979.498C1704.4 980.757 1706.74 982.115 1709.04 983.573C1711.33 985.03 1713.56 986.594 1715.71 988.266C1717.9 989.907 1719.91 991.782 1721.7 993.858L1714.7 989.734C1712.39 988.357 1710.09 986.954 1707.82 985.503C1705.55 984.051 1703.29 982.558 1701.07 981.016C1698.85 979.473 1696.67 977.865 1694.57 976.1Z" fill="#F4734B"/>
<path d="M1728.92 1076.63C1732.25 1077.98 1735.12 1080.27 1737.17 1083.23C1739.63 1087.14 1741.86 1091.19 1743.86 1095.36C1743.86 1095.36 1751.77 1095.72 1751.95 1090.26C1752.13 1084.81 1742.1 1070.91 1742.1 1070.91C1742.1 1070.91 1726.16 1072.35 1728.92 1076.63Z" fill="#F4734B"/>
<path d="M1757.74 1073.17C1752.33 1076.41 1746.14 1077.56 1740.42 1077.71C1719.31 1078.26 1700 1064.51 1690.6 1046.12C1689.28 1043.56 1688.16 1040.91 1687.25 1038.18C1687.07 1037.82 1686.97 1037.43 1686.96 1037.03C1686.94 1036.63 1687.01 1036.23 1687.16 1035.86C1687.89 1034.61 1693.97 1036.54 1695.26 1036.68C1698.75 1037.3 1702.32 1037.27 1705.8 1036.59C1712.76 1034.94 1714.93 1032.97 1716.43 1029.89C1717.25 1028.24 1707.36 1021.25 1711.22 1021.74C1715.09 1022.22 1723.39 1018.44 1723.71 1012.57C1724.03 1006.69 1715.46 984.909 1720.32 981.989C1722.05 980.958 1717.77 977.436 1720.25 976.1C1723.59 984.637 1728.45 997.405 1733.98 1012.75C1737.51 1022.58 1756.59 1033.73 1757.74 1073.17Z" fill="#F4734B"/>
<path d="M1794.3 1103.82C1794.3 1103.82 1777.02 1133.59 1781.35 1153.31C1785.67 1173.03 1851.46 1203.25 1872.57 1184.04C1893.69 1164.83 1966.21 1071.21 1959.96 1054.41C1953.72 1037.61 1893.22 1004.92 1886.5 1005.89C1879.77 1006.86 1794.3 1103.82 1794.3 1103.82Z" fill="#F78C77"/>
<path d="M1839.63 1136.61C1839.63 1136.61 1875.57 1102.15 1885.43 1078.23C1895.3 1054.31 1898.75 1014.12 1898.75 1014.12C1898.75 1014.12 1901.84 1017.11 1880.02 1035.35C1858.21 1053.58 1776.92 1119.26 1776.92 1119.26C1776.92 1119.26 1802.71 1152.26 1839.63 1136.61Z" fill="#DF431B"/>
<path d="M1578.81 1868.07C1578.81 1868.07 1559.17 1984.62 1607.98 2000.63C1656.79 2016.64 1693.11 1995.97 1704.49 2000.63C1715.86 2005.29 1792.53 2022.27 1844.96 1991.9C1897.4 1961.52 1920.67 1950.35 1951.33 1955.52C1981.98 1960.69 2009.84 1966.55 2038.21 1950.16C2066.59 1933.77 2271.89 1885.72 2269.72 1873.59C2267.55 1861.46 2244.66 1851.32 2119.87 1861.88C1995.08 1872.44 1721.59 1969.64 1684.66 1964.76C1647.72 1959.88 1586.68 1877.04 1586.68 1877.04L1578.81 1868.07Z" fill="#F2B597"/>
<path d="M2101.9 1687.46L2106.85 1866.81H2018.89C2018.89 1866.81 2036.61 1698.82 2048.99 1687.46C2061.37 1676.09 2101.9 1687.46 2101.9 1687.46Z" fill="#D03200"/>
<path d="M2227.04 1881.12L2269.69 1868.9C2269.69 1868.9 2205.14 1646.42 2195.87 1640.04C2186.59 1633.66 2152.83 1618.52 2152.83 1618.52L2016.88 1640.39C2016.88 1640.39 1999.3 1693.36 1995.88 1713.89C1992.45 1734.43 1978.94 1939.97 1986.15 1950.18L2042.5 1934.03C2043 1926.04 2043.74 1914.24 2044.67 1900.22C2044.82 1897.95 2045.71 1895.81 2047.22 1894.11C2048.73 1892.42 2050.75 1891.27 2052.98 1890.85C2092.28 1883.51 2171.31 1865.92 2209.29 1855.81C2211.86 1855.12 2214.61 1855.47 2216.93 1856.78C2219.25 1858.09 2220.97 1860.26 2221.71 1862.82C2223.66 1869.5 2225.46 1875.68 2227.04 1881.12ZM2056.65 1844.96C2055.67 1845.14 2054.67 1845.1 2053.71 1844.83C2052.76 1844.56 2051.88 1844.07 2051.14 1843.41C2050.4 1842.75 2049.82 1841.92 2049.45 1841C2049.08 1840.08 2048.93 1839.09 2049 1838.1C2053.28 1780.56 2058.59 1720.81 2062.36 1718.29C2069.69 1713.4 2168.47 1693.84 2172.38 1699.71C2174.41 1702.76 2190.43 1756.22 2205.62 1807.86C2205.87 1808.7 2205.95 1809.58 2205.85 1810.45C2205.74 1811.32 2205.47 1812.16 2205.03 1812.92C2204.59 1813.68 2204.01 1814.35 2203.31 1814.88C2202.61 1815.4 2201.81 1815.78 2200.96 1815.99C2167.44 1824.2 2093.21 1838.2 2056.65 1844.96Z" fill="#FF5823"/>
<path d="M2016.89 1640.39C2015.09 1630.16 1964.52 1598.85 1926.9 1593.43C1889.28 1588.02 1812.45 1648.22 1812.45 1648.22C1812.45 1648.22 1770.67 1887.22 1771.64 1891.96C1772.6 1896.7 1784.19 1900.13 1784.19 1900.13C1789.73 1902.1 1798.29 1904.63 1808.8 1907.51C1813.13 1884.86 1822.47 1861.88 1822.47 1861.88C1822.47 1861.88 1940.37 1894.43 1941.71 1896.52C1943.05 1898.61 1934.29 1935.67 1934.29 1935.67C1951.13 1941.98 1968.49 1946.82 1986.17 1950.14C1986.17 1950.14 2018.68 1650.63 2016.89 1640.39ZM1943.93 1842.48C1940.15 1848.74 1829.11 1835.88 1829.43 1810.48C1829.43 1810.48 1843.66 1691.59 1855.42 1693.78C1867.19 1695.98 1960.64 1699.69 1962.5 1716.4C1964.35 1733.11 1959.06 1817.38 1943.91 1842.48L1943.93 1842.48Z" fill="#F24C28"/>
<path d="M1725.66 1544.91C1725.66 1544.91 1749.53 1578.78 1814.21 1603.42C1878.89 1628.06 1976.7 1636.53 1976.7 1636.53C1976.7 1636.53 2013.66 1568.79 1976.7 1538.38C1939.74 1507.96 1798.27 1410.17 1758.52 1444.82C1718.77 1479.46 1725.66 1544.91 1725.66 1544.91Z" fill="#113855"/>
<path d="M2236.04 1480.25C2235.52 1485.09 2234.93 1489.13 2234.33 1492.49C2230.51 1513.84 2225.47 1508.07 2225.47 1508.07C2225.47 1508.07 2156.18 1500.27 2076.22 1489.72C1977.61 1476.71 1862.79 1459.5 1841.84 1447.57C1828.27 1439.84 1814.79 1425.3 1803.07 1409.85C1782.03 1382.08 1766.67 1351.28 1766.67 1351.28C1766.67 1351.28 1722.89 1381.56 1675.71 1384.69C1675.71 1384.69 1715.95 1358.93 1717.35 1317.88C1717.46 1314.7 1717.33 1311.52 1716.98 1308.36C1716.63 1305.25 1716.28 1301.62 1715.95 1297.56C1711.34 1240.94 1710.1 1100.01 1749.82 1087.01C1792.39 1073.09 1790.93 1119.26 1790.93 1119.26C1790.93 1119.26 1801.53 1136.71 1822.16 1138.63C1828.81 1139.25 1836.5 1138.26 1845.21 1134.55C1880.95 1119.33 1946.26 1042.27 1937.98 1021.91C1929.7 1001.55 2051.66 1066.37 2121.76 1167.67C2191.85 1268.98 2239.88 1444.73 2236.04 1480.25Z" fill="#FFAB3E"/>
<g opacity="0.45">
<path d="M1943.97 1281C1943.97 1281 1937.68 1282.07 1943.97 1270.97C1950.26 1259.88 1973.15 1242.5 1995.93 1258.34C2018.72 1274.17 2050.37 1330.97 2051.47 1350.28C2052.57 1369.59 2050.35 1369.64 2040.38 1369.38C2030.4 1369.13 1943.97 1281 1943.97 1281Z" fill="#F28D23"/>
</g>
<path d="M1935.68 1010.38C1935.68 1010.38 1947.47 1020.08 1985.4 1003.61C2023.34 987.148 2096.76 972.268 2108.3 1038.53C2119.85 1104.79 2086.46 1112.49 2062.66 1099.21C1959.31 1041.55 1940.58 1038.74 1940.58 1038.74L1935.68 1010.38Z" fill="#611112"/>
<path d="M1921.63 997.222C1930.54 999.993 1939.46 1003 1948.56 1003.87C1953.04 1004.37 1957.57 1004.22 1962.01 1003.42C1966.46 1002.56 1970.82 1001.3 1975.03 999.638C1992.18 992.949 2008.91 984.272 2027.19 978.877C2031.76 977.532 2036.41 976.43 2041.1 975.578C2045.83 974.74 2050.62 974.244 2055.42 974.093C2060.25 973.946 2065.09 974.242 2069.86 974.976C2071.06 975.174 2072.26 975.364 2073.43 975.628L2075.22 976.007L2076.97 976.477C2079.32 977.122 2081.62 977.902 2083.88 978.811C2092.93 982.381 2100.86 988.311 2106.84 995.984C2109.73 999.832 2111.97 1004.14 2113.44 1008.72C2114.14 1011.01 2114.52 1013.4 2114.54 1015.8C2114.55 1018.18 2114.01 1020.53 2112.96 1022.67C2113.68 1020.47 2113.91 1018.14 2113.62 1015.85C2113.35 1013.57 2112.75 1011.35 2111.86 1009.25C2110.04 1005.08 2107.58 1001.23 2104.56 997.832C2101.56 994.458 2098.1 991.523 2094.29 989.114C2090.51 986.673 2086.46 984.691 2082.22 983.208C2073.68 980.358 2064.66 979.201 2055.68 979.801C2046.6 980.37 2037.62 982.009 2028.93 984.684C2011.34 989.864 1994.54 998.03 1976.62 1004.08C1972.06 1005.63 1967.37 1006.72 1962.59 1007.33C1957.78 1007.86 1952.92 1007.67 1948.16 1006.79C1938.71 1005.04 1930.05 1001.23 1921.63 997.222Z" fill="#611112"/>
<path d="M1936.29 1270.38C1938.76 1262.55 1972.23 1119.93 1965.6 1128.91C1965.6 1128.91 1944.36 1196.15 1929.05 1238.54C1911.82 1286.26 1874.54 1293.53 1837.68 1270.97C1795.61 1245.21 1753.63 1185.07 1751.81 1139.05C1751.64 1137.27 1751.64 1135.48 1751.81 1133.69C1752.04 1131.77 1752.93 1129.98 1754.34 1128.65C1757.75 1125.72 1763.69 1126.52 1767.72 1127.31C1776.92 1129.08 1784.97 1133.55 1793.49 1137.21C1805.33 1142.25 1817.41 1142.2 1829.72 1138.66C1805.41 1136.86 1790.95 1119.29 1790.95 1119.29C1790.95 1119.29 1792.41 1073.1 1749.84 1087.05C1710.12 1100.04 1711.35 1240.97 1715.97 1297.59C1717.75 1298.42 1719.58 1299.24 1721.46 1300.22C1725.7 1302.38 1730.08 1304.24 1734.57 1305.79C1729.21 1309.51 1723.42 1313.59 1717.37 1317.91C1715.97 1358.98 1675.73 1384.72 1675.73 1384.72C1722.91 1381.6 1766.68 1351.32 1766.68 1351.32C1766.68 1351.32 1782.05 1382.12 1803.09 1409.88C1885.53 1408.23 1964.13 1403.35 1965.58 1391.95C1968.58 1368.76 1943.96 1281 1943.96 1281C1943.96 1281 1930.69 1288.15 1936.29 1270.38Z" fill="#F28D23"/>
<path d="M2234.33 1492.49C2230.51 1513.84 2225.47 1508.06 2225.47 1508.06C2225.47 1508.06 2156.19 1500.27 2076.23 1489.72C2075.57 1489.14 2074.95 1488.53 2074.37 1487.87C2071.29 1484.38 2068.64 1480.52 2066.5 1476.39C2034.11 1465.11 1952.74 1431.85 1959.76 1426.65C1968.43 1420.22 2040.34 1369.34 2040.34 1369.34C2040.34 1369.34 2049.8 1373.8 2059.03 1365.69C2068.26 1357.58 2086.69 1272.59 2086.99 1272.02C2087.09 1271.78 2087.23 1271.55 2087.41 1271.36C2087.59 1271.18 2087.81 1271.03 2088.06 1270.93C2089.62 1273.15 2089.1 1277.02 2089.09 1279.67C2088.96 1296.62 2086.61 1313.42 2083.55 1330.06C2080.76 1345.18 2074.01 1359.06 2065.65 1371.87C2061.47 1378.28 2056.92 1384.44 2052.35 1390.58C2047.88 1396.59 2043.21 1402.49 2043.06 1410.3C2042.92 1417.84 2046.36 1425.28 2051.31 1430.83C2067.99 1449.48 2096.92 1455.36 2120.52 1458.3C2142.59 1461.06 2164.62 1462.81 2186.51 1466.34C2205.08 1469.37 2222.46 1477.54 2234.33 1492.49Z" fill="#F28D23"/>
<path d="M1921.55 987.272C1918.98 1005.83 1898.31 1018.56 1898.31 1018.56C1896.55 1019.48 1894.15 1022.28 1894.01 1023.96C1893.85 1026.95 1893.48 1029.93 1892.92 1032.88C1891.6 1038.53 1889.71 1044.04 1887.27 1049.32C1882.16 1060.97 1875.39 1071.84 1867.19 1081.57C1851.02 1100.74 1828.73 1115.66 1803.46 1118.83C1769.13 1123.13 1743 1095.21 1729.49 1066.65C1726.15 1059.72 1723.69 1052.41 1722.17 1044.87C1720.73 1037.51 1720.32 1030.52 1719.99 1022.9C1719.72 1016.64 1719.5 1009.95 1718.8 1002.28C1718.34 997.335 1718.15 992.386 1718.08 987.437C1717.87 974.982 1718.4 962.461 1717.33 950.096C1712.21 890.56 1763.43 874.558 1819.52 889.282C1875.62 904.005 1872.25 950.096 1884.41 945.618C1890.19 943.498 1899.36 948.538 1907.18 956.406C1915.89 965.216 1922.9 977.489 1921.55 987.272Z" fill="#FFA188"/>
<path d="M1907.18 956.442C1906.73 957.688 1906.05 958.331 1905.1 958.191C1897.32 957.086 1884.48 967.8 1877.89 973.137C1871.29 978.474 1859.19 978.729 1849.02 976.098C1838.84 973.467 1822.07 973.871 1812.72 976.098C1803.38 978.325 1765.71 982.606 1754.54 979.695C1743.37 976.783 1730.02 937.933 1731.73 952.747C1733.43 967.561 1741.43 984.553 1737.6 984.982C1733.76 985.411 1718.49 987.456 1718.06 987.456C1717.85 975.001 1718.38 962.48 1717.32 950.116C1712.19 890.58 1763.41 874.578 1819.5 889.301C1875.6 904.024 1872.24 950.116 1884.39 945.637C1890.18 943.534 1899.36 948.574 1907.18 956.442Z" fill="#F4734B"/>
<path d="M1938.83 1026.32C1916.43 1030.79 1907.05 1012.82 1907.05 1012.82C1926.25 998.733 1919.63 974.83 1914.21 964.857C1908.79 954.885 1901.7 957.813 1886.34 962.292C1871.19 966.713 1854.82 930.28 1854.34 929.2C1860.2 955.825 1867.54 973.518 1867.54 973.518C1867.54 973.518 1847.44 973.881 1827.6 960.428C1804.63 944.872 1790.98 889.963 1790.98 889.963C1790.98 889.963 1783.3 914.287 1787.78 942.447C1792.25 970.607 1810.82 971.901 1810.82 971.901C1810.82 971.901 1806.98 973.823 1778.82 973.18C1750.66 972.537 1741.45 901.469 1734.01 917.487C1721.21 945.02 1734.01 981.494 1734.01 981.494C1734.01 981.494 1730.22 982.096 1725.76 983.02C1721.05 983.985 1715.55 985.305 1712.9 986.617C1707.72 989.174 1691.77 977.651 1697.54 932.178C1703.31 886.705 1728.26 871.363 1728.26 871.363C1742.53 854.676 1764.99 849.307 1785.43 844.729C1860.34 827.952 1938.67 877.78 1942.85 957.665C1943.03 960.964 1943.13 964.173 1943.17 967.447C1943.36 987.157 1941.91 1006.85 1938.83 1026.32V1026.32Z" fill="#611112"/>
<path d="M1733.95 981.509C1733.95 981.509 1730.17 982.111 1725.71 983.035C1703.61 935.195 1733.28 917.873 1733.95 917.502C1721.17 945.035 1733.95 981.509 1733.95 981.509Z" fill="#440003"/>
<path d="M1737.62 915.721C1737.62 915.721 1738.01 974.598 1762.03 978.235C1762.03 978.235 1745.25 962.423 1743.69 927.153C1742.13 891.883 1737.62 915.721 1737.62 915.721Z" fill="#611112"/>
<path d="M1790.95 889.965C1790.95 889.965 1788.95 964.901 1834.55 973.141C1834.55 973.141 1812.28 963.441 1804.72 940.643C1797.16 917.844 1796.23 889.965 1796.23 889.965C1796.23 889.965 1790.88 883.672 1790.95 889.965Z" fill="#611112"/>
<path d="M1940.61 1038.74C1918.21 1043.22 1902.79 1015.35 1902.79 1015.35C1915.16 999.286 1919.63 974.821 1914.21 964.849C1908.79 954.877 1901.71 957.805 1886.34 962.284C1871.2 966.705 1854.83 930.272 1854.35 929.191C1854.35 929.191 1880.65 954.217 1914.37 950.258C1924.82 949.029 1935.03 958.019 1943.13 967.472C1943.48 987.103 1943.55 1019.41 1940.61 1038.74Z" fill="#440003"/>
<path d="M2051.42 1532.09C2051.42 1545.28 2017.28 1629.81 1980.15 1636.64C1943.56 1643.37 1914.02 1597.05 1913.17 1595.71C1915.39 1603.27 1916.93 1632 1917.45 1664.82C1917.55 1670.24 1917.6 1675.78 1917.64 1681.32V1681.59C1917.69 1690.8 1917.64 1700.1 1917.55 1709.13C1917.36 1724.94 1916.9 1739.95 1916.16 1752.28C1913.17 1801.77 1910.61 1857.69 1910.61 1857.69C1910.61 1857.69 1863.24 1880.31 1860.68 1867.08C1858.49 1855.78 1838.87 1799.97 1821.76 1751.22C1818.84 1742.89 1815.98 1734.72 1813.3 1727.1C1812.26 1724.13 1811.13 1720.78 1809.94 1717.09C1790.05 1656.29 1749.55 1505.99 1748.9 1503.51C1748.9 1503.51 1696.58 1659.27 1680.66 1712.43C1680.18 1714.01 1679.75 1715.51 1679.34 1716.89C1665.26 1765.12 1650.75 1838.05 1650.75 1838.05L1586.74 1849.14C1586.74 1849.14 1592.72 1743.74 1594.85 1718.56C1595.26 1713.76 1595.68 1705.01 1596.01 1693.76C1597.52 1646.07 1598.37 1553.54 1596.99 1526.95C1595.28 1494.09 1606.89 1444.73 1626.92 1413.12C1646.94 1381.51 1675.77 1384.67 1675.77 1384.67C1682.96 1385.33 1690.05 1386.83 1696.89 1389.16H1697L1697.98 1389.49C1729.02 1400 1758.53 1423.31 1758.53 1423.31C1758.53 1423.31 1772.98 1402.14 1812.75 1390.45C1867.19 1374.46 2001.34 1426.87 2001.34 1426.87C2001.34 1426.87 2002.5 1428.99 2004.46 1432.65C2015.35 1453.07 2051.42 1520.87 2051.42 1532.09Z" fill="#FFA188"/>
<path d="M1748.85 1503.49C1748.85 1503.49 1693.37 1668.65 1679.29 1716.87C1661.51 1721.33 1628.35 1718.82 1620.26 1714.11C1611.26 1708.87 1596.43 1694.21 1595.96 1693.74C1596.6 1694.11 1628.13 1712.12 1657.51 1701.58C1670.19 1697.03 1676.68 1674.45 1680.82 1663.49C1689.97 1639.18 1696.71 1613.93 1702.92 1588.73C1710.01 1559.98 1716.42 1531 1721.29 1501.75C1724.95 1479.81 1727.25 1457.14 1724.13 1434.94C1721.82 1418.55 1715.32 1395.7 1697.93 1389.5C1728.97 1400.01 1758.48 1423.32 1758.48 1423.32C1758.48 1423.32 1737.99 1446.44 1748.85 1503.49Z" fill="#EC5A29"/>
<path d="M2051.45 1532.08C2051.45 1545.28 2017.31 1629.81 1980.17 1636.64C1943.58 1643.37 1914.05 1597.05 1913.19 1595.7C1913.19 1595.7 1896.47 1508.64 1859.42 1477.47C1860.15 1477.66 1883.88 1483.93 1903.44 1518.81C1923.3 1554.28 1953.37 1600.47 1974.32 1592.38C1995.27 1584.29 2015.12 1531.7 2007.61 1495.73C2000.09 1459.76 1959.36 1417.87 1959.36 1417.87C1959.36 1417.87 1985.15 1423.27 2004.43 1432.71C2015.38 1453.06 2051.45 1520.86 2051.45 1532.08Z" fill="#EC5A29"/>
<path d="M2227.95 1508.61C2226.02 1519.91 2223.44 1531.09 2220.21 1542.09C2212.68 1568.01 2192.66 1598.54 2170.32 1614.98C2131.67 1643.44 2051.43 1665.37 1985.56 1649.8C1939.32 1638.87 1916.47 1617.4 1931.41 1617.49C1937.9 1617.53 1944.61 1622.15 1952.03 1621.79C1966.82 1621.07 1978.05 1613.1 1988.12 1602.96C2030.39 1560.49 2031.61 1494.23 2001.71 1444.49C1994.03 1431.69 1987.33 1421.78 1987.33 1421.78C1990.24 1421.9 1993.13 1422.39 1995.92 1423.22C2003.56 1425.29 2015.72 1430.31 2030.15 1442.55C2054.82 1463.48 2139.11 1483.33 2139.11 1483.33C2154.51 1479.37 2171.08 1477.55 2185.72 1479.01C2206.82 1481.12 2223.96 1489.92 2227.95 1508.61Z" fill="#67A4C3"/>
<path d="M1680.62 1712.41C1680.14 1714 1679.7 1715.49 1679.3 1716.88C1665.22 1765.1 1650.71 1838.04 1650.71 1838.04L1586.69 1849.13C1586.69 1849.13 1592.67 1743.72 1594.81 1718.54C1595.21 1713.74 1595.63 1704.99 1595.96 1693.75C1595.96 1693.75 1619.92 1718.23 1680.62 1712.37V1712.41Z" fill="white"/>
<path d="M1680.68 1712.37L1679.43 1716.92V1716.96C1678.07 1721.96 1676.7 1726.97 1675.44 1732C1674.19 1737.03 1672.89 1742.06 1671.63 1747.09C1670.38 1752.12 1669.16 1757.17 1668.02 1762.22C1666.88 1767.26 1665.65 1772.32 1664.48 1777.37C1662.17 1787.48 1659.98 1797.62 1657.73 1807.75L1654.43 1822.96L1651.18 1838.17L1651.1 1838.5L1650.78 1838.55C1640.06 1840.33 1629.41 1842.05 1618.74 1843.89L1602.73 1846.63L1586.73 1849.44L1586.39 1849.5V1849.15L1588.42 1810.29C1589.12 1797.34 1589.77 1784.38 1590.54 1771.43C1591.3 1758.48 1592.06 1745.53 1592.94 1732.58L1593.64 1722.87C1593.9 1719.62 1594.19 1716.41 1594.36 1713.19C1594.73 1706.72 1594.96 1700.25 1595.19 1693.76L1595.24 1692.11L1596.49 1693.28C1599.19 1695.72 1602.16 1697.85 1605.33 1699.63C1608.52 1701.47 1611.82 1703.09 1615.23 1704.48C1622.08 1707.21 1629.18 1709.25 1636.43 1710.57L1641.88 1711.53L1647.38 1712.16L1650.13 1712.47C1651.05 1712.54 1651.98 1712.58 1652.9 1712.63L1658.44 1712.93C1659.36 1713.01 1660.28 1713 1661.21 1712.99H1669.53L1680.62 1712.36C1680.64 1712.36 1680.66 1712.36 1680.68 1712.37V1712.37ZM1680.56 1712.46C1680.57 1712.47 1680.59 1712.47 1680.61 1712.46V1712.46L1669.53 1713.34L1663.96 1713.48L1661.18 1713.55C1660.26 1713.55 1659.33 1713.6 1658.4 1713.55L1652.83 1713.34C1651.91 1713.34 1650.98 1713.29 1650.05 1713.23L1647.28 1712.96L1641.73 1712.42L1636.22 1711.55C1628.87 1710.32 1621.66 1708.34 1614.72 1705.63C1611.25 1704.25 1607.88 1702.63 1604.62 1700.8C1601.31 1698.99 1598.21 1696.81 1595.4 1694.28L1596.7 1693.78C1596.51 1700.26 1596.28 1706.75 1595.93 1713.24C1595.76 1716.49 1595.48 1719.74 1595.24 1722.96L1594.54 1732.66L1591.96 1771.48L1589.42 1810.31L1586.95 1849.15L1586.63 1848.87L1602.64 1846.13L1618.64 1843.32C1629.3 1841.47 1639.95 1839.49 1650.61 1837.55L1650.21 1837.94C1652.17 1827.73 1654.25 1817.56 1656.43 1807.42C1658.58 1797.26 1660.89 1787.15 1663.26 1777.04C1665.63 1766.93 1668.09 1756.85 1670.73 1746.81C1673.36 1736.76 1676.13 1726.76 1679.15 1716.83L1680.56 1712.46Z" fill="#EC5A29"/>
<path d="M1670.99 1998.22C1641.3 1999.75 1606.48 2003.73 1589.28 1971.88C1583.33 1960.86 1580.28 1947.96 1578.8 1935.29C1578.23 1930.5 1577.9 1925.72 1577.72 1921.09C1576.99 1902.56 1578.69 1886.29 1578.2 1879.39C1577.28 1866.19 1582.9 1797.05 1589.28 1804.37C1589.28 1804.37 1597.53 1815.09 1622.61 1816.29C1647.69 1817.49 1656.49 1810.34 1656.49 1810.34C1656.49 1810.34 1660.9 1807.11 1658.44 1822.11C1655.98 1837.12 1662.73 1864.68 1672.22 1882.45C1677.03 1891.45 1685.3 1903.83 1693.04 1916.63L1693.09 1916.71C1700.61 1929.17 1707.64 1942.03 1710.5 1952.59C1711.1 1954.79 1711.48 1957.04 1711.63 1959.32C1712.9 1978.53 1697.6 1996.85 1670.99 1998.22Z" fill="#67A4C3"/>
<path d="M1602.91 1837.27C1602.6 1832.02 1602.41 1826.77 1602.43 1821.53C1602.43 1817.69 1601.46 1805.86 1606.03 1803.87H1606.21C1611.98 1802.82 1641.68 1798.84 1645.25 1803.87C1646.9 1806.16 1646.52 1810.24 1646.57 1812.86C1646.67 1818.09 1646.41 1823.32 1646.2 1828.53C1645.68 1842.15 1646.29 1854.46 1650.58 1867.48C1653.08 1875.11 1656.34 1882.47 1660.31 1889.46C1661.96 1892.33 1672.57 1904.97 1670.29 1908.27C1670.29 1908.27 1649.38 1938.99 1630.83 1934.35C1612.28 1929.72 1610.65 1915.38 1610.65 1915.38C1608.62 1894.03 1605.56 1872.75 1603.91 1851.37C1603.54 1846.68 1603.18 1841.98 1602.91 1837.27Z" fill="#2E6D8E"/>
<path d="M1598.53 1908.29C1598.53 1908.29 1629.5 1883.41 1672.93 1895.1" stroke="white" stroke-width="5.52" stroke-miterlimit="10" stroke-linecap="round"/>
<path d="M1595.33 1890.79C1595.33 1890.79 1621.28 1869.61 1661.52 1876.49" stroke="white" stroke-width="5.52" stroke-miterlimit="10" stroke-linecap="round"/>
<path d="M1597.19 1870.16C1597.19 1870.16 1619.16 1849.77 1654.38 1859.31" stroke="white" stroke-width="5.52" stroke-miterlimit="10" stroke-linecap="round"/>
<path d="M1598.53 1852.43C1598.53 1852.43 1622.62 1832.41 1653.07 1849.17" stroke="white" stroke-width="5.52" stroke-miterlimit="10" stroke-linecap="round"/>
<path d="M1917.55 1709.14C1901.74 1728.94 1871.67 1750.33 1871.67 1750.33C1871.67 1750.33 1844.38 1752.84 1821.76 1751.24C1818.84 1742.9 1815.99 1734.74 1813.31 1727.12C1812.27 1724.15 1811.14 1720.79 1809.94 1717.1C1809.94 1717.1 1849.73 1718.75 1877 1703.35C1904.05 1688.04 1917.25 1665.15 1917.42 1664.79C1917.51 1670.21 1917.57 1675.75 1917.6 1681.29V1681.56C1917.69 1690.82 1917.66 1700.11 1917.55 1709.14Z" fill="#EC5A29"/>
<path d="M2227.95 1508.61C2226.02 1519.91 2223.44 1531.09 2220.21 1542.09C2212.68 1568.01 2191.63 1603.19 2169.29 1619.62C2130.63 1648.08 2051.43 1665.37 1985.56 1649.79C1939.32 1638.86 1916.47 1617.39 1931.41 1617.48C1937.9 1617.52 1944.61 1622.14 1952.03 1621.78C1966.82 1621.06 1978.05 1613.09 1988.12 1602.95C2030.39 1560.48 2031.61 1494.22 2001.71 1444.48C1994.03 1431.68 1987.33 1421.77 1987.33 1421.77C1990.24 1421.89 1993.13 1422.38 1995.92 1423.21C1995.92 1423.21 2012.8 1452.83 2024.24 1493.63C2029.71 1513.11 2027.09 1533.46 2028.93 1553.36C2030.38 1568.94 2037.18 1582.35 2050.03 1591.66C2068.27 1604.91 2095.7 1609.09 2117.67 1606.07C2144.65 1602.36 2168.57 1581.78 2180.14 1557.64C2186.89 1543.58 2190.45 1526.69 2188.51 1511.09C2188.19 1508.57 2185.45 1479 2185.73 1479.03C2206.82 1481.11 2223.96 1489.92 2227.95 1508.61Z" fill="#376F92"/>
<path d="M2227.59 1508.62C2227.75 1512.1 2226.92 1515.55 2226.08 1518.93C2224.22 1526.52 2222.36 1534.11 2220.5 1541.68C2226.27 1518.08 2197.74 1498.26 2179.67 1489.88C2170.99 1485.86 2161.11 1484.7 2151.68 1484.11C2138.92 1483.29 2126.27 1482.63 2113.79 1479.86C2103.89 1477.67 2094.34 1474.09 2084.68 1471.14C2075.03 1468.2 2065.33 1465.2 2055.67 1462.14C2050.85 1460.6 2046.02 1459.07 2041.22 1457.49C2037.39 1456.24 2032.14 1453.18 2028.15 1453.18C2023.36 1451.64 2018.56 1450.12 2013.75 1448.62C2011.27 1447.85 2003.08 1446.83 2001.7 1444.49C1994.02 1431.71 1987.33 1421.81 1987.31 1421.78C1987.83 1422.55 1996.08 1423.26 1997.21 1423.6C2004.63 1425.79 2011.23 1430.2 2018.04 1433.65C2040.55 1445.1 2063.82 1458.39 2087.85 1466.5C2111.77 1474.58 2139.87 1478.2 2165.18 1478.11C2186.54 1478.05 2204.01 1476.78 2220.32 1493.79C2224.08 1497.71 2227.09 1502.65 2227.53 1508.08C2227.56 1508.25 2227.57 1508.43 2227.59 1508.62Z" fill="#113855"/>
<path d="M2120.54 1481.13C2120.54 1481.13 2113.22 1524.57 2145.89 1529.12" stroke="#113855" stroke-width="2.76" stroke-miterlimit="10"/>
<path d="M1632.81 1183.46L1682.12 1290.85L1762.59 1287.23L1705.28 1176.22L1653.06 1168.95L1632.81 1183.46Z" fill="#682121"/>
<path d="M1632.81 1183.46L1686.18 1191.7L1736.54 1288.39L1682.12 1290.84L1632.81 1183.46Z" fill="#350000"/>
<path d="M1686.18 1191.7L1705.29 1176.22L1762.6 1287.23L1736.54 1288.4L1686.18 1191.7Z" fill="#4C0000"/>
<path d="M2022.22 1516.7C2022.22 1516.7 2163.85 1583.94 2163.85 1485.36" stroke="#113855" stroke-width="2.76" stroke-miterlimit="10"/>
<path d="M2035.03 1314.62C2039.83 1322.95 2042.77 1332.23 2043.65 1341.8C2044.53 1351.38 2043.32 1361.04 2040.12 1370.1C2038.1 1375.8 2035.7 1381.97 2032.91 1388.09C2024.16 1407.34 2011.73 1426.13 1995.93 1428.39C1962.39 1433.2 1895.65 1402.46 1849.11 1378.46C1802.57 1354.46 1785.9 1339.98 1777.09 1342.43C1763.77 1346.13 1697.53 1331.71 1686.36 1323.72C1685.85 1323.34 1685.31 1322.89 1684.71 1322.45C1672.79 1312.56 1651.56 1281.86 1646.97 1269.94C1645.69 1266.65 1643.59 1262.17 1641.34 1257.37L1641.26 1257.23C1635.1 1244.1 1627.92 1228.32 1633.52 1224.82C1635.43 1223.62 1638.17 1224.12 1641.34 1225.64C1650.93 1230.33 1664.43 1244.7 1670.97 1251.21C1679.62 1259.85 1728.59 1255.05 1735.8 1253.13C1736.27 1252.97 1736.7 1252.69 1737.04 1252.32C1737.37 1251.95 1737.61 1251.5 1737.73 1251.01C1740.55 1243.33 1734.31 1217.57 1756.92 1207.52C1756.92 1207.52 1766.52 1205.6 1764.6 1217.6C1762.68 1229.6 1757.88 1249.29 1764.6 1259.37C1771.32 1269.45 1786.69 1287.22 1787.17 1299.23C1787.17 1299.23 1869.88 1325.69 1900.99 1322.27C1920.96 1320.06 1929.47 1325.9 1929.47 1325.9C1929.47 1325.9 1937.19 1301.55 1944.06 1280.98C1944.06 1280.98 1947.09 1254.59 1975.89 1256.01C1995.14 1256.99 2020.09 1288.66 2035.03 1314.62Z" fill="#FFA188"/>
<path d="M2042.46 1363.26C2039.73 1371.71 2036.54 1380 2032.91 1388.1C2051.74 1337.65 1996.49 1269.81 1976.32 1265.49C1956.15 1261.17 1944 1281.01 1944 1281.01C1944 1281.01 1947.04 1254.61 1975.83 1256.04C1997.05 1257.09 2025.01 1295.09 2039.07 1321.98C2042.35 1328.28 2044.34 1335.19 2044.93 1342.27C2045.51 1349.36 2044.67 1356.5 2042.46 1363.26V1363.26Z" fill="#EC5A29"/>
<path d="M1684.66 1322.47C1672.73 1312.58 1651.5 1281.88 1646.91 1269.96C1645.64 1266.67 1643.53 1262.2 1641.28 1257.39C1642.44 1259.46 1654.07 1277.54 1664.11 1283.15C1674.49 1288.92 1675.07 1289.55 1677.22 1297.17C1679.37 1304.78 1679.31 1316.02 1684.66 1322.47Z" fill="#F4734B"/>
<path d="M1737.68 1251.03C1736.85 1255.87 1732.15 1261.47 1722.4 1260.86C1712.65 1260.25 1679.37 1264.52 1666.12 1255.97C1652.86 1247.43 1641.28 1225.68 1641.28 1225.68C1650.87 1230.36 1664.38 1244.73 1670.92 1251.25C1679.56 1259.88 1728.54 1255.08 1735.74 1253.16C1736.22 1253 1736.65 1252.72 1736.98 1252.35C1737.32 1251.97 1737.56 1251.52 1737.68 1251.03V1251.03Z" fill="#F4734B"/>
<path d="M1916.16 1752.29C1913.17 1801.78 1910.61 1857.71 1910.61 1857.71C1910.61 1857.71 1862.44 1886.81 1859.88 1873.58C1857.33 1860.35 1831.67 1779.61 1813.31 1727.12C1812.27 1724.15 1811.14 1720.79 1809.94 1717.1C1810.58 1717.35 1846.81 1730.39 1882.93 1709.47C1915.16 1690.79 1917.52 1683.12 1917.64 1681.6C1917.78 1706.93 1917.33 1732.92 1916.16 1752.29Z" fill="white"/>
<path d="M1916.25 1752.3L1914.94 1778.7L1913.76 1805.09L1912.59 1831.49L1911.3 1857.88V1858.24L1910.99 1858.43C1903.06 1863.15 1894.88 1867.44 1886.49 1871.3C1882.28 1873.24 1877.95 1874.89 1873.52 1876.25C1871.28 1876.94 1868.98 1877.39 1866.65 1877.6C1865.46 1877.71 1864.25 1877.64 1863.08 1877.38C1862.45 1877.26 1861.86 1877.01 1861.34 1876.65C1860.81 1876.28 1860.37 1875.82 1860.04 1875.28C1859.88 1875 1859.75 1874.71 1859.65 1874.4C1859.57 1874.11 1859.49 1873.79 1859.43 1873.52L1859.06 1871.87C1858.83 1870.76 1858.53 1869.64 1858.24 1868.57C1857.68 1866.34 1857.07 1864.13 1856.46 1861.91C1855.23 1857.48 1853.93 1853.06 1852.61 1848.65C1849.97 1839.83 1847.29 1831.02 1844.48 1822.26C1838.93 1804.7 1833.12 1787.23 1827.24 1769.79C1824.29 1761.07 1821.31 1752.36 1818.3 1743.66L1813.75 1730.63C1812.21 1726.3 1810.77 1721.91 1809.27 1717.55L1808.8 1716.18L1810.21 1716.65C1814.94 1718.18 1819.81 1719.26 1824.75 1719.9C1829.7 1720.56 1834.69 1720.83 1839.68 1720.72C1849.66 1720.56 1859.56 1718.75 1868.95 1715.36C1873.64 1713.65 1878.16 1711.54 1882.48 1709.04C1884.64 1707.76 1886.81 1706.5 1888.95 1705.2C1891.1 1703.89 1893.23 1702.58 1895.32 1701.21C1899.56 1698.54 1903.65 1695.66 1907.59 1692.57C1909.54 1691.03 1911.4 1689.38 1913.15 1687.62C1914.01 1686.74 1914.82 1685.81 1915.57 1684.84C1915.92 1684.35 1916.25 1683.85 1916.54 1683.32C1916.82 1682.84 1917.01 1682.32 1917.11 1681.77H1918.22C1918.17 1693.57 1917.99 1705.35 1917.68 1717.13C1917.31 1728.75 1916.97 1740.54 1916.25 1752.3ZM1916.09 1752.3C1916.42 1746.42 1916.66 1740.53 1916.85 1734.64C1917.04 1728.75 1917.16 1722.86 1917.2 1716.97C1917.32 1705.19 1917.28 1693.41 1917.1 1681.62H1918.2C1918.11 1682.32 1917.89 1682.99 1917.55 1683.61C1917.24 1684.18 1916.9 1684.73 1916.52 1685.26C1915.76 1686.29 1914.93 1687.28 1914.05 1688.21C1912.27 1690.02 1910.39 1691.74 1908.42 1693.34C1904.48 1696.5 1900.38 1699.46 1896.14 1702.2C1891.93 1704.99 1887.59 1707.56 1883.25 1710.11C1878.86 1712.67 1874.26 1714.83 1869.49 1716.57C1859.94 1720.05 1849.87 1721.91 1839.7 1722.05C1834.63 1722.13 1829.56 1721.82 1824.54 1721.12C1819.5 1720.45 1814.53 1719.31 1809.7 1717.72L1810.64 1716.82C1813.51 1725.55 1816.56 1734.24 1819.47 1742.98C1822.38 1751.73 1825.28 1760.45 1828.15 1769.2C1833.86 1786.71 1839.41 1804.27 1844.94 1821.83C1847.68 1830.62 1850.47 1839.4 1853.13 1848.22C1854.48 1852.62 1855.79 1857.03 1857.09 1861.42C1857.73 1863.63 1858.39 1865.84 1858.97 1868.08C1859.28 1869.18 1859.59 1870.3 1859.8 1871.43L1860.2 1873.07C1860.27 1873.37 1860.33 1873.61 1860.4 1873.9C1860.48 1874.14 1860.59 1874.37 1860.72 1874.59C1861 1875.03 1861.37 1875.4 1861.8 1875.68C1862.24 1875.97 1862.72 1876.16 1863.24 1876.24C1864.32 1876.46 1865.43 1876.51 1866.53 1876.4C1868.79 1876.16 1871.02 1875.68 1873.17 1874.99C1877.53 1873.59 1881.79 1871.9 1885.93 1869.94C1894.25 1866.05 1902.37 1861.74 1910.24 1857.02L1909.91 1857.57L1911.39 1831.21L1912.99 1804.88L1914.64 1778.53L1916.09 1752.3Z" fill="#EC5A29"/>
<path d="M1758.48 1913.24C1769.64 1909.1 1780.16 1903.38 1789.7 1896.24C1812.06 1879.65 1831.68 1854 1831.45 1837.58C1831.05 1809.29 1842.17 1826.35 1861.54 1824.74C1880.91 1823.12 1878.51 1828.78 1873.26 1845.36C1868.01 1861.94 1858.31 1885.18 1841.74 1900.13C1825.16 1915.09 1781.52 1932.65 1781.52 1932.65C1781.52 1932.65 1759.27 1917.28 1758.48 1913.24Z" fill="#2E6D8E"/>
<path d="M1832.48 1899.47C1834.36 1898.17 1836.21 1896.82 1838.04 1895.44C1852.83 1884.23 1866.62 1871.26 1873.97 1853.86C1874.19 1853.16 1874.61 1852.54 1875.19 1852.09C1875.67 1851.83 1876.21 1851.71 1876.75 1851.72C1881.2 1851.46 1885.68 1852.97 1890.02 1851.44C1894.2 1849.96 1898.08 1847.51 1901.93 1845.38C1904.24 1844.1 1917.61 1835.31 1917.66 1842.48C1917.72 1853.03 1922.61 1880.92 1928.23 1897.89C1933.85 1914.85 1927.02 1928.2 1923.38 1932.24C1919.74 1936.28 1818.72 1984.77 1804.98 1985.58C1794.03 1986.22 1782.32 1969.69 1776.61 1962.29C1770.67 1954.58 1753.51 1934.52 1770.54 1929.72C1773.99 1928.75 1777.63 1928.6 1781.06 1927.55C1783.28 1926.81 1785.44 1925.86 1787.51 1924.74C1802.64 1917.1 1818.31 1909.3 1832.48 1899.47Z" fill="#67A4C3"/>
<path d="M1771.62 1907.47C1771.62 1907.47 1798.54 1899.73 1819.07 1934.79" stroke="white" stroke-width="5.52" stroke-miterlimit="10" stroke-linecap="round"/>
<path d="M1789.69 1896.24C1789.69 1896.24 1810.2 1884.69 1840.75 1916.04" stroke="white" stroke-width="5.52" stroke-miterlimit="10" stroke-linecap="round"/>
<path d="M1812.42 1875.12C1812.42 1875.12 1833.04 1864.94 1861.82 1896.5" stroke="white" stroke-width="5.52" stroke-miterlimit="10" stroke-linecap="round"/>
<path d="M1878.84 1861.88C1878.84 1861.88 1940.06 1965.86 1917.61 1980.71C1895.16 1995.57 1844.14 1984.12 1826.81 2009.49" stroke="white" stroke-width="5.52" stroke-miterlimit="10" stroke-linecap="round"/>
<path d="M1701.14 1986.08C1699.34 1987.82 1697.39 1989.39 1695.29 1990.76C1693.93 1991.67 1692.51 1992.49 1691.05 1993.23L1690.15 1993.67C1689.28 1994.08 1688.38 1994.49 1687.46 1994.83L1687.2 1994.93C1686.6 1995.16 1685.99 1995.38 1685.38 1995.59H1685.26C1684.62 1995.8 1683.99 1995.99 1683.35 1996.18C1682.7 1996.37 1681.95 1996.57 1681.24 1996.74C1680.53 1996.92 1679.82 1997.07 1679.08 1997.22L1677.98 1997.43C1677.23 1997.56 1676.48 1997.68 1675.72 1997.78C1675.18 1997.85 1674.64 1997.92 1674.07 1997.96C1673.49 1998.01 1672.87 1998.09 1672.27 1998.13L1670.96 1998.21C1641.26 1999.75 1606.45 2003.73 1589.24 1971.88C1583.29 1960.86 1580.24 1947.96 1578.77 1935.29C1580.3 1934.46 1586.64 1945.42 1586.64 1945.42C1586.64 1945.42 1587.68 1938.35 1593.4 1930.27C1599.44 1921.74 1610.72 1912.12 1631.45 1908.48C1671.86 1901.43 1693 1916.63 1693 1916.63L1693.05 1916.7C1695.78 1921.21 1698.45 1925.78 1700.86 1930.27C1705.12 1938.17 1708.64 1945.85 1710.47 1952.58C1710.62 1953.16 1710.76 1953.74 1710.9 1954.31C1711.25 1955.96 1711.48 1957.63 1711.59 1959.31C1711.9 1964.27 1711.13 1969.23 1709.33 1973.85C1707.52 1978.48 1704.73 1982.65 1701.14 1986.08Z" fill="white"/>
<g opacity="0.23">
<path d="M1701.13 1986.09C1699.34 1987.83 1697.38 1989.39 1695.29 1990.77C1693.93 1991.68 1692.51 1992.5 1691.05 1993.24L1690.15 1993.68C1689.27 1994.08 1688.38 1994.5 1687.47 1994.84L1687.2 1994.94C1686.6 1995.17 1686 1995.39 1685.38 1995.6H1685.26C1684.63 1995.81 1683.99 1996.01 1683.35 1996.2C1682.71 1996.39 1681.96 1996.58 1681.25 1996.76C1680.54 1996.93 1679.82 1997.09 1679.09 1997.23L1677.98 1997.44C1677.24 1997.57 1676.49 1997.69 1675.72 1997.79C1675.18 1997.86 1674.65 1997.93 1674.07 1997.98C1673.49 1998.03 1672.87 1998.1 1672.27 1998.14L1670.96 1998.22C1641.27 1999.76 1606.45 2003.74 1589.24 1971.89C1583.3 1960.87 1580.25 1947.97 1578.77 1935.3C1580.3 1934.47 1586.65 1945.44 1586.65 1945.44C1586.65 1945.44 1587.69 1938.36 1593.4 1930.28C1593.4 1930.28 1596.7 1973.01 1639.16 1979C1654.62 1981.18 1668.86 1980.78 1680.58 1977.87C1680.67 1977.87 1690.39 1976.46 1692.95 1967.05C1694.2 1962.48 1690.16 1940.31 1700.86 1930.28C1705.13 1938.19 1708.64 1945.86 1710.47 1952.59C1710.63 1953.17 1710.77 1953.75 1710.9 1954.33C1711.25 1955.97 1711.48 1957.64 1711.59 1959.33C1711.91 1964.28 1711.13 1969.24 1709.33 1973.87C1707.52 1978.49 1704.72 1982.66 1701.13 1986.09Z" fill="#67A4C3"/>
</g>
<path d="M1671 1998.22C1641.3 1999.75 1606.49 2003.73 1589.28 1971.88C1581.08 1956.69 1578.39 1937.96 1577.73 1921.09C1578.01 1922.67 1587.15 1973.56 1629.35 1983.2C1672.24 1993.01 1709.36 1976.51 1711.64 1959.28C1712.91 1978.53 1697.61 1996.85 1671 1998.22Z" fill="white"/>
<path d="M1804.95 1985.59C1804.95 1985.59 1752.02 1990.02 1732.21 1983.56C1712.41 1977.11 1696.65 1959.73 1698.67 1947.19C1699.19 1943.31 1700.33 1939.55 1702.05 1936.04C1705.06 1930.26 1710.06 1926.53 1718.48 1924.16C1731.4 1920.52 1753.63 1916.3 1758.47 1913.25C1758.47 1913.25 1792.43 1913.92 1798.49 1934.81C1800.9 1943.13 1802.41 1952.89 1803.36 1961.62C1804.8 1974.78 1804.95 1985.59 1804.95 1985.59Z" fill="white"/>
<g opacity="0.23">
<path d="M1804.95 1985.58C1804.95 1985.58 1752.02 1990.02 1732.21 1983.56C1712.41 1977.1 1696.65 1959.72 1698.67 1947.19C1699.19 1943.31 1700.33 1939.55 1702.05 1936.04C1699.75 1947.36 1712.85 1958.31 1728.34 1964.76C1752.92 1974.98 1787.95 1965.81 1803.4 1961.61C1804.8 1974.78 1804.95 1985.58 1804.95 1985.58Z" fill="#67A4C3"/>
</g>
<path d="M1699.92 1941.52C1699.92 1941.52 1709.7 1983.96 1763.2 1979.52C1816.69 1975.07 1882.02 1948.81 1930.38 1910.41C1930.38 1910.41 1930.51 1936.28 1930.38 1938.3C1930.25 1940.32 1855.49 1985.99 1800.93 1996.49C1746.38 2007 1714.79 1995.75 1704.82 1981.9C1688.99 1959.91 1699.92 1941.52 1699.92 1941.52Z" fill="white"/>
<path d="M1684.65 1322.48C1691.62 1325.84 1698.83 1328.7 1706.21 1331.03C1713.56 1333.41 1721.04 1335.4 1728.6 1337C1730.48 1337.43 1732.4 1337.73 1734.29 1338.1C1736.18 1338.47 1738.08 1338.83 1739.99 1339.09L1745.72 1339.96C1747.63 1340.23 1749.55 1340.42 1751.49 1340.65C1755.32 1341.15 1759.18 1341.35 1763.04 1341.66C1764.96 1341.84 1766.89 1341.83 1768.81 1341.91L1774.59 1342.1L1774.3 1342.15C1774.79 1342 1775.29 1341.89 1775.8 1341.84C1776.27 1341.78 1776.75 1341.75 1777.22 1341.74C1778.15 1341.73 1779.08 1341.79 1780.01 1341.91C1781.83 1342.15 1783.63 1342.56 1785.38 1343.13C1788.84 1344.27 1792.17 1345.74 1795.34 1347.53C1801.61 1351.07 1807.71 1354.72 1813.92 1358.25C1826.32 1365.4 1838.84 1372.31 1851.47 1378.98C1864.12 1385.64 1876.9 1392.04 1889.85 1398.08C1902.8 1404.12 1915.89 1409.84 1929.27 1414.83C1935.95 1417.3 1942.71 1419.62 1949.54 1421.64C1952.96 1422.65 1956.39 1423.59 1959.85 1424.41C1963.32 1425.24 1966.79 1425.99 1970.3 1426.59C1977.26 1427.91 1984.35 1428.39 1991.43 1428.02C1992.31 1427.95 1993.19 1427.91 1994.06 1427.77C1994.93 1427.63 1995.8 1427.55 1996.66 1427.37L1997.95 1427.12C1998.15 1427.09 1998.35 1427.04 1998.55 1426.98L1999.15 1426.78C1999.54 1426.66 1999.97 1426.46 2000.34 1426.31C2000.72 1426.15 2001.17 1425.98 2001.52 1425.76C2003.09 1424.98 2004.59 1424.09 2006.04 1423.1C2007.47 1422.07 2008.85 1420.97 2010.16 1419.8C2015.43 1415.05 2020.06 1409.63 2023.92 1403.67L2026.71 1399.12C2027.17 1398.35 2027.68 1397.63 2028.08 1396.83L2029.33 1394.47L2031.8 1389.74C2032.58 1388.14 2033.29 1386.5 2034.04 1384.89C2039.93 1371.88 2044.16 1358.16 2047.77 1344.33C2044.55 1358.26 2040.51 1372.06 2034.86 1385.25C2034.14 1386.9 2033.45 1388.55 2032.7 1390.2L2030.27 1395L2029.05 1397.41C2028.65 1398.23 2028.14 1398.96 2027.7 1399.73L2024.92 1404.36C2021.06 1410.47 2016.41 1416.04 2011.1 1420.94C2009.75 1422.15 2008.34 1423.29 2006.86 1424.35C2005.36 1425.4 2003.8 1426.35 2002.18 1427.19C2001.77 1427.41 2001.35 1427.61 2000.92 1427.78C2000.49 1427.96 2000.1 1428.16 1999.63 1428.31L1998.96 1428.54C1998.73 1428.62 1998.49 1428.67 1998.25 1428.72L1996.91 1428.99C1996.02 1429.2 1995.12 1429.3 1994.22 1429.44C1993.31 1429.58 1992.42 1429.65 1991.51 1429.73C1987.9 1430 1984.27 1430 1980.66 1429.73C1977.06 1429.49 1973.48 1429.06 1969.93 1428.44C1966.38 1427.85 1962.85 1427.13 1959.35 1426.28C1955.85 1425.46 1952.38 1424.52 1948.93 1423.52C1942.03 1421.52 1935.22 1419.22 1928.49 1416.74C1915.03 1411.79 1901.85 1406.12 1888.85 1400.08C1875.85 1394.04 1863.08 1387.52 1850.44 1380.79C1837.79 1374.07 1825.29 1367.08 1812.9 1359.89L1803.64 1354.47C1800.55 1352.65 1797.49 1350.76 1794.42 1349.01C1791.37 1347.24 1788.16 1345.78 1784.82 1344.64C1783.18 1344.08 1781.48 1343.67 1779.76 1343.42C1778.91 1343.3 1778.06 1343.24 1777.2 1343.24C1776.77 1343.24 1776.38 1343.24 1775.94 1343.31C1775.56 1343.35 1775.19 1343.42 1774.82 1343.52L1774.65 1343.58H1774.52L1768.71 1343.32C1766.77 1343.21 1764.82 1343.2 1762.93 1343C1759.06 1342.65 1755.19 1342.41 1751.34 1341.85C1735.92 1339.99 1720.74 1336.5 1706.05 1331.44C1698.7 1329 1691.55 1326 1684.65 1322.48V1322.48Z" fill="#EC5A29"/>
<path d="M1929.39 1325.92C1933.88 1326.85 1938.16 1328.6 1942.02 1331.08C1945.95 1333.5 1949.5 1336.49 1952.56 1339.94L1953.15 1340.58L1953.68 1341.25L1954.74 1342.61C1955.47 1343.5 1956.15 1344.44 1956.77 1345.41L1958.61 1348.33C1959.16 1349.33 1959.65 1350.37 1960.17 1351.4C1961.17 1353.45 1962.04 1355.58 1962.76 1357.75L1963.04 1358.57L1963.24 1359.4L1963.66 1361.05C1963.93 1362.15 1964.19 1363.26 1964.42 1364.35C1963.95 1363.31 1963.5 1362.27 1963.06 1361.23L1962.42 1359.67L1962.1 1358.89L1961.72 1358.14L1960.21 1355.14C1959.94 1354.65 1959.74 1354.13 1959.46 1353.65L1958.63 1352.21L1956.93 1349.35L1955.03 1346.62C1954.7 1346.18 1954.43 1345.69 1954.07 1345.27L1953.02 1343.97L1951.98 1342.69L1951.46 1342.04L1950.89 1341.44L1948.65 1338.97C1947.83 1338.21 1947 1337.47 1946.23 1336.69C1944.58 1335.21 1942.86 1333.81 1941.07 1332.51C1937.45 1329.87 1933.53 1327.65 1929.39 1325.92Z" fill="#EC5A29"/>
<path d="M1715.04 1334.9C1712.48 1344.43 1708.34 1353.46 1702.8 1361.62C1697.33 1369.94 1690.27 1377.08 1682.01 1382.64C1673.67 1388.15 1664.13 1391.57 1654.19 1392.62C1644.36 1393.56 1634.43 1392.63 1624.94 1389.89C1634.51 1391.72 1644.3 1392.05 1653.97 1390.87C1658.74 1390.14 1663.42 1388.94 1667.94 1387.28C1672.44 1385.56 1676.74 1383.36 1680.76 1380.73C1684.8 1378.1 1688.55 1375.06 1691.95 1371.66C1695.38 1368.25 1698.52 1364.57 1701.35 1360.65C1707.06 1352.72 1711.67 1344.06 1715.04 1334.9V1334.9Z" fill="#EC5A29"/>
<path d="M1677.72 1017.15C1680.5 1016.84 1683.3 1016.73 1686.09 1016.83C1688.88 1016.9 1691.66 1017.11 1694.43 1017.48C1697.22 1017.83 1699.97 1018.38 1702.68 1019.13C1705.43 1019.78 1708.05 1020.9 1710.42 1022.42C1707.75 1021.75 1705.04 1021.22 1702.31 1020.86C1699.59 1020.46 1696.87 1020.11 1694.14 1019.75C1691.41 1019.4 1688.69 1019.01 1685.95 1018.61C1683.21 1018.22 1680.47 1017.75 1677.72 1017.15Z" fill="#F4734B"/>
<path d="M1681.05 993.854C1684.52 993.627 1688 993.752 1691.45 994.225C1694.9 994.668 1698.32 995.368 1701.67 996.32C1705.02 997.285 1708.29 998.549 1711.42 1000.1C1714.55 1001.64 1717.47 1003.58 1720.1 1005.87C1716.96 1004.39 1713.89 1002.94 1710.7 1001.75C1710.31 1001.58 1709.87 1001.43 1709.5 1001.3L1708.31 1000.87C1707.48 1000.58 1706.72 1000.28 1705.9 1000.05L1703.48 999.224L1701.01 998.515C1697.75 997.566 1694.41 996.749 1691.11 995.974C1687.81 995.199 1684.49 994.522 1681.05 993.854Z" fill="#F4734B"/>
<path d="M1898.94 972.417C1896.22 973.242 1894.11 975.411 1892.53 977.77C1890.75 980.288 1889.68 983.246 1889.46 986.324C1889.36 987.864 1889.62 989.406 1890.2 990.835C1890.79 992.264 1891.69 993.541 1892.84 994.572C1895.19 996.527 1898.84 996.981 1901.39 995.265C1902.47 994.477 1903.37 993.471 1904.04 992.312C1905.09 990.544 1905.97 988.683 1906.67 986.753C1907.52 984.831 1908.03 982.778 1908.19 980.682C1908.33 975.741 1904.07 970.883 1898.94 972.417Z" fill="#F4734B"/>
<path d="M1733.09 1018.4C1735.3 1017.57 1736.67 1014.57 1737.25 1011.59C1738.76 1003.89 1732.03 993 1727.05 1001.18C1723.82 1006.51 1726.99 1020.65 1733.09 1018.4Z" fill="#440003"/>
<path d="M1800.6 1013.17C1802.81 1012.34 1804.19 1009.34 1804.77 1006.36C1806.28 998.657 1799.55 987.77 1794.57 995.952C1791.34 1001.31 1794.51 1015.44 1800.6 1013.17Z" fill="#440003"/>
<path d="M1718.08 987.477C1719.28 996.344 1720.03 1005.27 1720.59 1014.2C1720.84 1018.67 1720.99 1023.15 1721.05 1027.64C1721.04 1032.07 1721.45 1036.48 1722.27 1040.83C1723.86 1049.57 1726.38 1058.11 1729.77 1066.31C1733.1 1074.52 1737.45 1082.28 1742.71 1089.41C1747.91 1096.54 1754.34 1102.7 1761.68 1107.61C1765.36 1110.03 1769.27 1112.07 1773.37 1113.7C1777.47 1115.31 1781.72 1116.52 1786.06 1117.31C1790.41 1118.12 1794.83 1118.5 1799.26 1118.44C1803.69 1118.13 1808.1 1117.52 1812.46 1116.62C1821.16 1114.87 1829.78 1112.02 1837.25 1107.09C1833.63 1109.74 1829.69 1111.93 1825.53 1113.6C1821.37 1115.31 1817.07 1116.69 1812.69 1117.73C1808.31 1118.75 1803.86 1119.48 1799.37 1119.9C1794.84 1120.07 1790.3 1119.8 1785.82 1119.07C1776.82 1117.68 1768.21 1114.4 1760.56 1109.45C1752.96 1104.45 1746.31 1098.14 1740.92 1090.81C1735.57 1083.52 1731.16 1075.57 1727.82 1067.16C1724.44 1058.79 1722.01 1050.07 1720.58 1041.16C1720.23 1038.93 1719.97 1036.69 1719.79 1034.43C1719.63 1032.18 1719.58 1029.92 1719.65 1027.66C1719.69 1023.2 1719.65 1018.74 1719.52 1014.28C1719.3 1005.32 1718.77 996.393 1718.08 987.477Z" fill="#DF431B"/>
<path d="M1817.11 1051.79C1817.11 1051.79 1817.02 1052.2 1816.82 1052.95C1816.5 1054.16 1815.88 1056.25 1814.94 1058.72C1811.64 1067.53 1799.07 1083.46 1785.19 1083.7C1773.53 1083.89 1767.19 1078.33 1758.25 1067.41C1756.71 1065.52 1755.07 1063.49 1753.3 1061.32L1817.11 1051.79Z" fill="#F73943"/>
<path d="M1762.01 1003.26C1760.55 1008.05 1759.06 1012.8 1757.7 1017.57C1757.04 1019.95 1756.37 1022.33 1755.86 1024.73C1755.28 1027.08 1754.93 1029.47 1754.81 1031.88C1754.72 1032.92 1754.88 1033.97 1755.28 1034.95C1755.36 1035.09 1755.47 1035.22 1755.6 1035.33C1755.66 1035.38 1755.72 1035.42 1755.78 1035.46H1755.89L1756.08 1035.51C1756.62 1035.68 1757.17 1035.81 1757.73 1035.9C1760.13 1036.22 1762.56 1036.33 1764.98 1036.22C1769.93 1036.04 1774.88 1035.54 1779.83 1035.04C1775.01 1036.46 1770.08 1037.44 1765.09 1037.96C1762.54 1038.26 1759.96 1038.27 1757.41 1038.01C1756.73 1037.94 1756.07 1037.8 1755.42 1037.61L1755.16 1037.54L1754.83 1037.4C1754.62 1037.3 1754.41 1037.17 1754.22 1037.02C1753.87 1036.75 1753.57 1036.4 1753.35 1036.01C1752.72 1034.7 1752.43 1033.25 1752.52 1031.79C1752.78 1026.52 1754.34 1021.72 1755.98 1016.95C1757.66 1012.25 1759.68 1007.68 1762.01 1003.26Z" fill="#DF431B"/>
<path d="M1817.1 1051.79C1817.1 1051.79 1817.01 1052.2 1816.81 1052.95C1815.92 1055.72 1815.16 1058.19 1814.93 1058.72V1058.78C1814.54 1059.82 1758.27 1067.41 1758.27 1067.41C1756.73 1065.52 1755.09 1063.49 1753.32 1061.32L1817.1 1051.79Z" fill="white"/>
<path d="M1817.18 1051.72C1817.11 1052.11 1817.04 1052.55 1816.95 1052.97C1816.55 1054.75 1816.03 1056.5 1815.47 1058.24C1814.9 1059.99 1814.13 1061.68 1813.2 1063.26C1812.28 1064.86 1811.27 1066.4 1810.16 1067.87C1809.04 1069.32 1807.84 1070.72 1806.58 1072.06C1804.07 1074.75 1801.25 1077.15 1798.18 1079.19C1795.11 1081.27 1791.67 1082.77 1788.06 1083.61C1784.43 1084.44 1780.65 1084.31 1777.08 1083.24C1773.6 1082.07 1770.38 1080.21 1767.62 1077.78C1762.04 1073.02 1757.48 1067.27 1752.77 1061.75L1752.04 1060.93L1753.17 1060.74C1758.53 1059.86 1763.9 1059.04 1769.29 1058.2C1774.68 1057.36 1780.07 1056.6 1785.44 1055.87L1801.44 1053.75L1817.18 1051.72ZM1817.06 1051.83L1800.86 1054.62L1784.95 1057.29C1779.67 1058.12 1774.43 1058.94 1769.18 1059.77C1763.94 1060.59 1758.67 1061.29 1753.38 1062.01L1753.78 1060.96C1758.38 1066.59 1762.51 1072.63 1767.96 1077.41C1769.32 1078.6 1770.77 1079.67 1772.31 1080.62C1773.86 1081.55 1775.52 1082.27 1777.26 1082.76C1780.73 1083.67 1784.38 1083.64 1787.83 1082.67C1791.27 1081.67 1794.52 1080.13 1797.46 1078.09C1801.93 1075.09 1805.92 1071.42 1809.28 1067.2C1810.42 1065.81 1811.48 1064.35 1812.44 1062.84C1813.41 1061.32 1814.24 1059.72 1814.91 1058.05C1815.59 1056.4 1816.2 1054.7 1816.74 1052.94C1816.8 1052.56 1816.94 1052.22 1817.06 1051.83Z" fill="#DF431B"/>
<g opacity="0.35">
<path d="M1811.16 1016.47C1808.81 1018.5 1807.13 1021.31 1807.92 1024.51C1808.6 1026.91 1810.14 1028.96 1812.25 1030.29C1815.75 1032.64 1820.21 1033.27 1824.41 1032.76C1831.53 1031.88 1842.06 1028.1 1844.75 1020.67C1845.32 1019.15 1845.5 1017.51 1845.28 1015.91C1845.06 1014.3 1844.44 1012.77 1843.48 1011.47C1839.74 1006.73 1833.58 1008.66 1828.56 1009.68C1824.01 1010.57 1815.83 1012.47 1811.16 1016.47Z" fill="#F73943"/>
</g>
<g opacity="0.35">
<path d="M1732.07 1039.97C1730.74 1041.95 1728.8 1043.45 1726.55 1044.24C1725.89 1044.47 1721.79 1046.21 1721.6 1044.87C1720.65 1037.58 1720.12 1030.25 1720 1022.9C1720 1022.9 1729.07 1025.31 1729.84 1025.73C1731.29 1026.54 1732.44 1027.78 1733.14 1029.29C1733.84 1031.03 1734.11 1032.92 1733.92 1034.78C1733.73 1036.65 1733.09 1038.45 1732.06 1040.01L1732.07 1039.97Z" fill="#F73943"/>
</g>
<path d="M1785.18 1133.47C1785.18 1133.47 1796.82 1153.36 1817.1 1159.34C1837.38 1165.31 1862.27 1160 1897.39 1118.3" stroke="white" stroke-width="1.84" stroke-miterlimit="10" stroke-linecap="round"/>
<path d="M1903.53 1110.97C1903.53 1110.97 1925.65 1083.75 1930.14 1072.41" stroke="white" stroke-width="1.84" stroke-miterlimit="10" stroke-linecap="round"/>
<path d="M1946.89 1259.79C1946.89 1259.79 1969.65 1231.83 2000.69 1251.94C2031.73 1272.05 2047.81 1313.29 2047.81 1313.29" stroke="white" stroke-width="1.84" stroke-miterlimit="10" stroke-linecap="round"/>
<path d="M2051.44 1322.48C2051.44 1322.48 2058.28 1337.43 2056.24 1351.35Z" fill="#FFAB3E"/>
<path d="M991.887 650.312C972.984 650.312 954.854 657.821 941.486 671.188C928.119 684.554 920.608 702.683 920.605 721.586C920.605 760.955 991.887 882.981 991.887 882.981C991.887 882.981 1063.16 760.955 1063.16 721.586C1063.16 712.226 1061.32 702.958 1057.74 694.311C1054.15 685.664 1048.9 677.807 1042.29 671.188C1035.67 664.57 1027.81 659.32 1019.16 655.738C1010.52 652.156 1001.25 650.312 991.887 650.312ZM991.887 758.069C985.081 758.069 978.428 756.05 972.769 752.269C967.11 748.488 962.699 743.113 960.095 736.825C957.49 730.538 956.809 723.618 958.137 716.943C959.464 710.268 962.742 704.136 967.554 699.324C972.367 694.511 978.499 691.234 985.174 689.906C991.849 688.578 998.768 689.259 1005.06 691.864C1011.34 694.469 1016.72 698.879 1020.5 704.538C1024.28 710.197 1026.3 716.851 1026.3 723.657C1026.3 728.176 1025.41 732.65 1023.68 736.825C1021.95 741.001 1019.42 744.794 1016.22 747.99C1013.02 751.185 1009.23 753.72 1005.06 755.449C1000.88 757.178 996.407 758.069 991.887 758.069Z" fill="#FF5823"/>
<path d="M411.765 796.846C394.328 831.159 375.943 864.919 357.326 898.548C338.71 932.176 319.632 965.532 300.289 998.74C280.947 1031.95 261.291 1064.97 241.281 1097.78C221.27 1130.59 200.864 1163.2 179.633 1195.28C197.062 1160.96 215.439 1127.2 234.072 1093.57C252.705 1059.94 271.775 1026.59 291.125 993.395C310.476 960.195 330.132 927.169 350.15 894.357C370.169 861.545 390.501 828.932 411.765 796.846Z" fill="#FED085"/>
<path d="M1001.52 894.109C1001.52 894.109 1005.69 897.054 1012.66 902.011" stroke="#C91800" stroke-width="6.44" stroke-linecap="round" stroke-linejoin="round"/>
<path d="M1034.98 917.996C1071.64 944.316 1127.92 985.286 1148.4 1003.26C1165.49 1018.25 1078.87 1139.16 1093.82 1162.67C1105.89 1181.64 1275.09 1258.64 1339.95 1287.64" stroke="#DC3A06" stroke-width="6.44" stroke-linecap="round" stroke-linejoin="round" stroke-dasharray="33.33 33.33"/>
<path d="M1352.5 1293.24C1360.43 1296.77 1364.99 1298.77 1364.99 1298.77" stroke="#C91800" stroke-width="6.44" stroke-linecap="round" stroke-linejoin="round"/>
<path d="M282.619 624.168C193.637 677.592 104.283 740.667 58.2157 833.675C45.8432 858.725 36.7701 885.747 34.5678 913.609C31.4417 952.838 41.7768 991.754 52.0212 1029.75C30.5344 950.067 45.6865 857.809 96.9911 791.641C156.379 715.048 258.658 693.486 332.819 635.064C341.673 628.144 350.053 620.637 357.902 612.595C380.263 589.5 399.68 554.395 393.922 521.154C370.604 569.778 327.573 597.179 282.619 624.168Z" fill="#FFEACB"/>
<path d="M1639.58 169.203L1639.67 169.277C1671.89 192.216 1702.42 217.39 1733.05 242.374C1837.49 327.554 1949.53 395.966 2080.26 432.382C2051.92 435.318 2023.28 432.168 1995.25 427.021C1897.99 409.18 1807 372.813 1736.98 301.448C1707.21 271.103 1680.8 237.664 1651.35 207.013C1620.44 174.845 1587.01 153.721 1550.17 130.098C1563.18 132.135 1578.5 132.234 1590.9 137.34C1608.11 144.425 1624.49 158.464 1639.58 169.203Z" fill="#FFEACB"/>
<path d="M434.249 1406.13C431.656 1409.63 428.406 1412.6 424.681 1414.86C410.56 1423.56 380.965 1427.86 337.018 1365.05C273.25 1274 205.185 1068.23 288.724 1034.3C372.263 1000.36 451.216 1152.72 460.372 1231.12C469.527 1309.51 451.406 1393.95 434.249 1406.13Z" fill="#F49EB5"/>
<path d="M434.248 1406.13C431.655 1409.63 428.405 1412.59 424.68 1414.85L288.723 1034.29C372.253 1000.35 451.215 1152.72 460.37 1231.11C469.526 1309.51 451.404 1393.94 434.248 1406.13Z" fill="#FFB8CB"/>
<path d="M460.368 1231.11C451.179 1152.75 372.251 1000.35 288.72 1034.29C205.19 1068.23 273.247 1274 337.014 1365.05C380.986 1427.85 410.556 1423.56 424.677 1414.85C428.403 1412.59 431.652 1409.63 434.245 1406.13C451.402 1393.94 469.573 1309.51 460.368 1231.11Z" stroke="#FCF5EA" stroke-width="5.52" stroke-miterlimit="10"/>
<path d="M288.723 1034.3L424.68 1414.86" stroke="#FCF5EA" stroke-width="2.86" stroke-miterlimit="10"/>
<path d="M319.086 1336.66C319.086 1336.66 380.041 1338 410.799 1376.06" stroke="#FCF5EA" stroke-width="2.86" stroke-miterlimit="10"/>
<path d="M402.375 1352.42C402.375 1352.42 419.226 1290.91 464.295 1268.24" stroke="#FCF5EA" stroke-width="2.86" stroke-miterlimit="10"/>
<path d="M285.379 1266.71C285.379 1266.71 332.724 1253.97 383.534 1299.7" stroke="#FCF5EA" stroke-width="2.86" stroke-miterlimit="10"/>
<path d="M369.83 1261.3C369.244 1259.65 383.209 1181.03 438.398 1155.24" stroke="#FCF5EA" stroke-width="2.86" stroke-miterlimit="10"/>
<path d="M258.133 1180.55C258.133 1180.55 285.913 1160.21 347.215 1198.02" stroke="#FCF5EA" stroke-width="2.86" stroke-miterlimit="10"/>
<path d="M331.016 1152.69C331.016 1152.69 341.136 1087.13 385.455 1069.49" stroke="#FCF5EA" stroke-width="2.86" stroke-miterlimit="10"/>
<path d="M252.723 1083.96C252.723 1083.96 287.275 1084.51 314.849 1107.45" stroke="#FCF5EA" stroke-width="2.86" stroke-miterlimit="10"/>
<path d="M302.059 1071.73C302.059 1071.73 315.091 1037.58 334.755 1033.13" stroke="#FCF5EA" stroke-width="2.86" stroke-miterlimit="10"/>
<path d="M352.404 1532.25C351.912 1535.05 350.896 1537.74 349.41 1540.17C343.768 1549.66 327.807 1562.27 283.588 1544.81C219.457 1519.5 118.836 1435.66 157.463 1388.64C196.09 1341.63 287.193 1393.71 315.773 1431.54C344.354 1469.36 358.788 1519.86 352.404 1532.25Z" fill="#F49EB5"/>
<path d="M352.417 1532.25C351.926 1535.05 350.91 1537.74 349.423 1540.17L157.477 1388.64C196.087 1341.63 287.206 1393.71 315.787 1431.54C344.367 1469.36 358.802 1519.86 352.417 1532.25Z" fill="#FFB8CB"/>
<path d="M315.787 1431.52C287.207 1393.72 196.088 1341.61 157.477 1388.63C118.867 1435.64 219.472 1519.48 283.602 1544.79C327.821 1562.25 343.815 1549.64 349.424 1540.15C350.91 1537.72 351.926 1535.03 352.418 1532.23C358.802 1519.87 344.376 1469.3 315.787 1431.52Z" stroke="#FCF5EA" stroke-width="1.83" stroke-miterlimit="10"/>
<path d="M157.477 1388.65L349.423 1540.17" stroke="#FCF5EA" stroke-width="1.83" stroke-miterlimit="10"/>
<path d="M264.738 1536.23C264.738 1536.23 300.651 1515.61 329.85 1524.72" stroke="#FCF5EA" stroke-width="1.83" stroke-miterlimit="10"/>
<path d="M317.946 1515.3C317.946 1515.3 309.541 1477.21 329.081 1449.56" stroke="#FCF5EA" stroke-width="1.83" stroke-miterlimit="10"/>
<path d="M224.379 1511.43C224.379 1511.43 248.184 1488.18 291.355 1494.34" stroke="#FCF5EA" stroke-width="1.83" stroke-miterlimit="10"/>
<path d="M271.969 1479.03C271.144 1478.38 255.976 1432.34 280.498 1399.52" stroke="#FCF5EA" stroke-width="1.83" stroke-miterlimit="10"/>
<path d="M182.969 1475.91C182.969 1475.91 193.131 1455.52 240.047 1453.85" stroke="#FCF5EA" stroke-width="1.83" stroke-miterlimit="10"/>
<path d="M217.186 1435.78C217.186 1435.78 203.659 1397.93 224.271 1373.17" stroke="#FCF5EA" stroke-width="1.83" stroke-miterlimit="10"/>
<path d="M151.215 1427.23C151.215 1427.23 171.514 1415.41 194.378 1417.76" stroke="#FCF5EA" stroke-width="1.83" stroke-miterlimit="10"/>
<path d="M176.357 1403.55C176.357 1403.55 173.833 1381.12 183.97 1371.9" stroke="#FCF5EA" stroke-width="1.83" stroke-miterlimit="10"/>
<path d="M527.281 1460.04C528.958 1463.02 531.2 1465.64 533.879 1467.76C543.975 1475.93 566.518 1482.19 606.893 1437.79C665.456 1373.46 738.734 1220.38 677.235 1185.74C615.736 1151.1 539.323 1261.58 524.402 1321.54C509.481 1381.51 515.172 1448.88 527.281 1460.04Z" fill="#F49EB5"/>
<path d="M527.281 1460.04C528.958 1463.02 531.2 1465.64 533.879 1467.76L677.235 1185.74C615.736 1151.1 539.323 1261.58 524.402 1321.54C509.481 1381.51 515.172 1448.88 527.281 1460.04Z" fill="#FFB8CB"/>
<path d="M524.376 1321.54C539.297 1261.58 615.709 1151.09 677.209 1185.74C738.708 1220.4 665.43 1373.42 606.867 1437.8C566.45 1482.2 543.949 1475.93 533.853 1467.76C531.173 1465.64 528.932 1463.02 527.254 1460.04C515.179 1448.88 509.446 1381.5 524.376 1321.54Z" stroke="#FCF5EA" stroke-width="4.6" stroke-miterlimit="10"/>
<path d="M677.196 1185.74L533.84 1467.76" stroke="#FCF5EA" stroke-width="2.24" stroke-miterlimit="10"/>
<path d="M623.595 1417.52C623.595 1417.52 576.126 1412.52 548.461 1439.01" stroke="#FCF5EA" stroke-width="2.24" stroke-miterlimit="10"/>
<path d="M557.368 1421.49C557.368 1421.49 550.39 1372.05 517.645 1349.98" stroke="#FCF5EA" stroke-width="2.24" stroke-miterlimit="10"/>
<path d="M656.728 1366.55C656.728 1366.55 621.26 1351.96 577.223 1382.46" stroke="#FCF5EA" stroke-width="2.24" stroke-miterlimit="10"/>
<path d="M591.702 1353.98C592.313 1352.77 589.277 1290.32 548.984 1264.81" stroke="#FCF5EA" stroke-width="2.24" stroke-miterlimit="10"/>
<path d="M686.424 1302.35C686.424 1302.35 666.867 1283.8 615.488 1307.08" stroke="#FCF5EA" stroke-width="2.24" stroke-miterlimit="10"/>
<path d="M632.603 1273.49C632.603 1273.49 631.251 1221.58 598.562 1203.48" stroke="#FCF5EA" stroke-width="2.24" stroke-miterlimit="10"/>
<path d="M700.227 1227.88C700.227 1227.88 673.338 1224.88 649.648 1239.95" stroke="#FCF5EA" stroke-width="2.24" stroke-miterlimit="10"/>
<path d="M663.108 1213.49C663.108 1213.49 656.377 1185.68 641.547 1180.28" stroke="white" stroke-width="2.24" stroke-miterlimit="10"/>
<path d="M349.422 1540.17C349.422 1540.17 423.483 1625.24 418.963 1902.13" stroke="#515151" stroke-width="3.68" stroke-miterlimit="10"/>
<path d="M533.834 1467.77C533.834 1467.77 510.244 1559.83 517.626 1693.67C525.008 1827.52 527.235 1900.62 527.235 1900.62" stroke="#515151" stroke-width="3.68" stroke-miterlimit="10"/>
<path d="M421.574 1410.8C421.574 1410.8 469.348 1521.26 473.151 1689.84C476.953 1858.42 473.151 1910.39 473.151 1910.39" stroke="#515151" stroke-width="3.68" stroke-miterlimit="10"/>
<path d="M430.832 1875.83C446.444 1881.24 460.85 1889.65 473.245 1900.58C476.858 1885.73 492.529 1874.77 507.756 1876.54C496.489 1879.16 489.791 1890.44 484.397 1900.67C482.399 1904.23 481.137 1908.15 480.685 1912.21C476.346 1911.54 472.156 1912.21 467.801 1912.21C466.704 1912.21 465.269 1912.37 464.32 1911.84C463.372 1911.31 462.951 1910.09 462.291 1909.19C457.458 1902.65 452.872 1896.96 446.809 1891.53C444.021 1889.05 441.167 1886.58 438.462 1884.02C436.622 1882.28 433.034 1876.59 430.832 1875.83Z" fill="#F49EB5"/>
<path d="M349.665 1833.04L291.102 1762.59C329.761 1805.25 378.921 1839.5 407.221 1889.61C404.524 1872.96 399.435 1847.28 394.701 1827.82C411.007 1847.81 416.971 1864.81 418.365 1882.53C420.707 1868.27 433.154 1855.03 440.569 1848.28C464.572 1826.4 493.02 1819.63 522.822 1806.72C501.054 1819.09 479.65 1832.73 462.403 1850.88C445.155 1869.02 432.379 1890.47 430.506 1915.48C430.597 1914.31 401.101 1916.04 398.486 1913.91C398.486 1913.91 391.228 1894.49 388.094 1887.95C378.402 1867.69 363.926 1850.2 349.665 1833.04Z" fill="#F49EB5"/>
<path d="M484.836 1875.83C500.448 1881.24 514.855 1889.65 527.249 1900.58C530.87 1885.73 546.542 1874.77 561.76 1876.54C550.493 1879.16 543.795 1890.44 538.401 1900.67C536.403 1904.23 535.141 1908.15 534.689 1912.21C530.358 1911.54 526.16 1912.21 521.805 1912.21C520.708 1912.21 519.281 1912.37 518.324 1911.84C517.367 1911.31 516.963 1910.09 516.295 1909.19C511.462 1902.65 506.875 1896.96 500.813 1891.53C498.025 1889.05 495.171 1886.58 492.474 1884.02C490.626 1882.28 487.038 1876.59 484.836 1875.83Z" fill="#F49EB5"/>
</svg>
