<svg width="1927" height="1693" viewBox="0 0 1927 1693" fill="none" xmlns="http://www.w3.org/2000/svg">
<rect width="1925" height="1692" fill="white"/>
<path d="M473.021 1533.68C451.59 1533.61 430.465 1536.11 412.071 1545.11C393.555 1554.16 379.041 1573.59 383.043 1592.97C388.099 1617.49 417.541 1629.07 443.205 1634.71C469.236 1640.44 495.682 1644.31 522.128 1647.93C839.013 1691.26 1162.49 1700.23 1482.11 1685.9C1563.48 1682.25 1645.04 1676.86 1724.89 1661.63C1758.15 1655.29 1841.09 1644.09 1847.92 1604.74C1852.5 1578.47 1820.34 1560.55 1792.88 1554.96C1663.86 1528.49 1514.97 1547.57 1384.6 1557.21C1240.01 1567.9 1095.14 1581.89 949.906 1576.11C857.883 1572.44 766.532 1560.83 675.121 1550.74C628.413 1545.58 581.644 1540.74 534.732 1537.59C515.414 1536.29 494.072 1533.75 473.021 1533.68Z" fill="#FFEDCD"/>
<path d="M1552.18 714.791H1427.16V656.838H1575.45L1552.18 714.791Z" fill="white"/>
<path d="M1575.45 656.838L1599.54 714.791H1552.18L1575.45 656.838Z" fill="#FED085"/>
<path d="M649.632 382.67H1V400.658H649.632V382.67Z" fill="#BCBEC0"/>
<path d="M667.483 711.67H18.8516V729.658H667.483V711.67Z" fill="#BCBEC0"/>
<path d="M931.864 0H615.066V1553.08H931.864V0Z" fill="#B4D2D0"/>
<path d="M661.828 0H649.645V1553.08H661.828V0Z" fill="#4B9CA0"/>
<path opacity="0.5" d="M897.284 0H661.828V1553.08H897.284V0Z" fill="white"/>
<path opacity="0.5" d="M897.284 0H661.828V1553.08H897.284V0Z" fill="white"/>
<path opacity="0.32" d="M615.066 133.596V212.365L931.864 457.252V378.49L615.066 133.596Z" fill="white"/>
<path opacity="0.76" d="M615.066 354.166V390.277L931.864 635.165V599.06L615.066 354.166Z" fill="white"/>
<path opacity="0.32" d="M615.066 496.715V532.833L814.7 687.149L832.169 664.546L615.066 496.715Z" fill="white"/>
<path opacity="0.56" d="M615.066 19.3809V55.4854L931.864 300.379V264.275L615.066 19.3809Z" fill="white"/>
<path opacity="0.42" d="M615.066 624.525V694.614L931.864 939.501V869.419L615.066 624.525Z" fill="white"/>
<path d="M1915.48 978.836C1886.27 1151.86 1766.68 1265.14 1609.36 1326.9C1446.73 1390.8 1273.96 1422.1 1101.44 1443.74C932.666 1464.9 762.196 1483.95 592.698 1458.78C506.981 1446.05 425.334 1422.36 352.207 1382.97C283.531 1345.99 222.371 1295.17 172.395 1226.61C384.571 1300.88 922.854 1445.51 1388.68 1061.55C1639.94 854.424 1794.24 696.498 1888.58 583.371C1927.42 713.588 1936.45 854.424 1915.48 978.836Z" fill="#FFEDCD"/>
<path d="M1915.48 978.835C1886.26 1151.86 1766.67 1265.14 1609.36 1326.9C1517.54 1362.96 1422.5 1388.65 1326.07 1408.08C1318.02 1409.7 1309.95 1411.29 1301.88 1412.84C1269.82 1418.95 1237.66 1424.45 1205.39 1429.36V714.791H1917.28C1921.71 745.828 1924.55 777.072 1925.79 808.401C1926.2 818.561 1926.42 828.697 1926.47 838.808C1926.73 886.776 1923.06 933.879 1915.48 978.835Z" fill="#F24C28"/>
<path d="M1926.47 838.808H1326.07V1408.1C1318.02 1409.72 1309.96 1411.31 1301.88 1412.86V808.4H1925.79C1926.2 818.561 1926.42 828.697 1926.47 838.808Z" fill="#DC3A06"/>
<g opacity="0.56">
<path d="M1163.24 225.52H927.129V359.55H1163.24V225.52Z" fill="#FFAB3E"/>
</g>
<path d="M1151.82 215.07H915.711V349.101H1151.82V215.07Z" fill="white"/>
<path d="M970.051 268.864C971.475 267.929 973.152 267.455 974.855 267.505C976.672 267.488 978.479 267.773 980.203 268.348C982.145 268.967 984.032 269.749 985.842 270.686L989.24 263.344C987.164 262.075 984.956 261.035 982.656 260.244C980.214 259.397 977.059 259.021 973.19 259.116C970.464 259.257 967.804 260.005 965.403 261.305C963.267 262.47 961.492 264.201 960.273 266.308C959.049 268.54 958.468 271.067 958.595 273.609C958.562 275.5 958.987 277.37 959.833 279.06C960.679 280.75 961.921 282.211 963.453 283.317C964.847 284.346 966.348 285.219 967.931 285.921C969.512 286.619 971.052 287.233 972.552 287.763C973.776 288.189 974.958 288.726 976.085 289.367C977.065 289.912 977.945 290.62 978.687 291.461C979.316 292.177 979.674 293.091 979.7 294.044C979.75 294.637 979.682 295.233 979.5 295.799C979.318 296.365 979.026 296.889 978.64 297.342C977.868 298.165 976.89 298.766 975.806 299.082C974.706 299.43 973.563 299.625 972.409 299.66C971.15 299.676 969.894 299.532 968.672 299.231C967.272 298.912 965.906 298.457 964.595 297.872C963.284 297.293 962.031 296.592 960.851 295.778L956.855 303.256C960.181 305.445 963.925 306.92 967.85 307.586C969.698 307.904 971.573 308.043 973.448 308.001C976.565 308.021 979.64 307.279 982.404 305.839C984.662 304.642 986.544 302.842 987.84 300.639C989.037 298.561 989.632 296.19 989.559 293.793C989.561 291.799 989.178 289.823 988.431 287.974C987.801 286.497 986.876 285.165 985.713 284.058C984.598 283.016 983.334 282.145 981.962 281.475C980.6 280.802 979.198 280.214 977.763 279.714C976.25 279.2 974.764 278.608 973.313 277.94C972.021 277.373 970.831 276.597 969.793 275.642C969.363 275.265 969.016 274.804 968.772 274.287C968.527 273.77 968.392 273.209 968.373 272.637C968.311 271.918 968.432 271.194 968.726 270.534C969.019 269.874 969.475 269.3 970.051 268.864Z" fill="#F47867"/>
<path d="M1014.16 256.424L993.777 306.947L1003.11 306.709L1006.78 297.192L1022.74 296.784L1026.68 306.097L1037.65 305.812L1014.7 256.396L1014.16 256.424ZM1009.89 289.15L1014.46 277.307L1019.38 288.912L1009.89 289.15Z" fill="#F47867"/>
<path d="M1052.86 257.334L1043.39 257.572L1044.62 305.648L1076.68 304.825L1076.44 295.682L1053.85 296.26L1052.86 257.334Z" fill="#F47867"/>
<path d="M1095.7 295.192L1095.44 284.805L1116.07 284.281L1115.84 275.131L1095.21 275.661L1094.94 265.41L1118.25 264.811L1118.02 255.668L1085.25 256.504L1086.48 304.58L1120.16 303.717L1119.93 294.573L1095.7 295.192Z" fill="#F47867"/>
<path d="M966.572 266.831C967.994 265.892 969.672 265.417 971.376 265.472C973.19 265.455 974.995 265.74 976.716 266.315C978.661 266.934 980.55 267.716 982.363 268.653L985.76 261.311C983.689 260.038 981.483 258.998 979.183 258.211C976.746 257.364 973.589 256.988 969.711 257.083C966.987 257.222 964.328 257.97 961.931 259.272C959.793 260.435 958.018 262.167 956.801 264.275C955.578 266.504 954.997 269.03 955.122 271.569C955.088 273.461 955.513 275.332 956.359 277.024C957.205 278.716 958.447 280.177 959.981 281.284C961.37 282.313 962.87 283.184 964.452 283.881C966.042 284.561 967.577 285.2 969.072 285.723C970.299 286.15 971.484 286.689 972.612 287.334C973.592 287.877 974.47 288.585 975.208 289.428C975.839 290.143 976.2 291.057 976.227 292.011C976.277 292.604 976.209 293.2 976.028 293.766C975.846 294.332 975.553 294.856 975.167 295.308C974.396 296.132 973.417 296.733 972.334 297.049C971.233 297.397 970.09 297.591 968.936 297.627C967.678 297.64 966.422 297.496 965.199 297.198C963.799 296.879 962.434 296.424 961.122 295.839C959.81 295.258 958.555 294.557 957.371 293.745L953.383 301.223C955.067 302.335 956.864 303.264 958.744 303.996C960.562 304.703 962.447 305.225 964.37 305.553C966.219 305.867 968.094 306.006 969.969 305.968C973.087 305.985 976.163 305.243 978.932 303.806C981.19 302.61 983.072 300.809 984.367 298.605C985.567 296.528 986.165 294.158 986.093 291.76C986.098 289.765 985.712 287.788 984.959 285.941C984.327 284.463 983.403 283.128 982.241 282.018C981.122 280.979 979.856 280.111 978.483 279.442C977.123 278.769 975.723 278.181 974.291 277.681C972.774 277.168 971.286 276.573 969.833 275.9C968.542 275.334 967.353 274.56 966.313 273.609C965.84 273.17 965.467 272.634 965.219 272.037C964.972 271.441 964.856 270.798 964.88 270.152C964.904 269.507 965.067 268.874 965.358 268.297C965.649 267.721 966.06 267.214 966.565 266.811L966.572 266.831Z" fill="#F9D8AD"/>
<path d="M1010.68 254.425L990.293 304.949L999.629 304.711L1003.31 295.193L1019.25 294.786L1023.22 304.051L1034.19 303.773L1011.23 254.357L1010.68 254.425ZM1006.4 287.151L1010.98 275.309L1015.9 286.907L1006.4 287.151Z" fill="#F9D8AD"/>
<path d="M1049.38 255.295L1039.91 255.54L1041.14 303.616L1073.2 302.793L1072.96 293.65L1050.37 294.227L1049.38 255.295Z" fill="#F9D8AD"/>
<path d="M1092.22 293.16L1091.96 282.772L1112.59 282.242L1112.36 273.099L1091.72 273.629L1091.46 263.371L1114.77 262.779L1114.54 253.629L1081.76 254.472L1082.99 302.541L1116.68 301.685L1116.45 292.534L1092.22 293.16Z" fill="#F9D8AD"/>
<path d="M1154.51 601.127C1154.05 602.963 1139.64 708.693 1157.22 719.455C1174.81 730.216 1200.3 730.277 1200.3 730.277C1200.3 730.277 1289.91 700.23 1293.79 697.483C1297.68 694.737 1308.66 689.931 1314.18 681.229C1319.7 672.528 1326.08 641.868 1318.07 624.241C1310.07 606.614 1279.64 513.242 1266.14 507.749C1252.64 502.256 1185.62 526.974 1176.7 543.915C1167.78 560.856 1154.51 601.127 1154.51 601.127Z" fill="#3F0808"/>
<path d="M1273.46 676.972C1273.46 676.972 1266.6 682.411 1261.11 686.041C1255.62 689.671 1211.7 714.654 1207.09 710.99C1202.48 707.326 1207.96 711.214 1210.24 695.422C1210.62 692.631 1210.85 689.822 1210.92 687.006C1211.26 676.809 1210.54 663.614 1209.86 654.267C1209.36 647.367 1208.88 642.56 1208.88 642.56C1208.88 642.56 1273.71 598.373 1270.72 627.91C1270.14 633.63 1269.85 639.375 1269.86 645.123C1269.86 651.258 1270.23 657.387 1270.97 663.478C1271.47 668.031 1272.3 672.541 1273.46 676.972V676.972Z" fill="#FFA188"/>
<path d="M1270.72 627.912C1270.14 633.631 1269.85 639.376 1269.86 645.124C1260.64 650.376 1250.49 653.781 1239.96 655.152C1226.08 656.912 1215.77 655.566 1209.88 654.268C1209.37 647.368 1208.9 642.562 1208.9 642.562C1208.9 642.562 1273.69 598.408 1270.72 627.912Z" fill="#EC5A29"/>
<path d="M1273.46 635.757C1266.43 645.675 1259.26 648.857 1241.77 649.958C1232.16 650.577 1213.46 652.093 1205.3 645.879C1186.28 631.331 1179.13 617.157 1179.13 617.157C1179.13 617.157 1139.25 620.74 1137.33 591.596C1135.42 562.453 1172.87 567.572 1175.75 564.404C1178.63 561.236 1174.79 527.246 1195.28 508.021C1215.77 488.796 1246.83 487.844 1251 492.331C1255.17 496.818 1259.64 504.499 1259.64 504.499C1259.64 504.499 1269.03 503.67 1274.23 522.032C1275.76 527.716 1276.72 533.535 1277.12 539.408C1278.24 553.548 1280.16 568.197 1281.19 582.032C1281.47 585.669 1281.69 589.251 1281.81 592.752C1282.44 609.965 1280.87 625.308 1273.46 635.757Z" fill="#FFA188"/>
<path d="M1274.22 521.971C1273.17 522.929 1272.04 523.928 1270.82 524.982C1270.82 524.982 1256.73 511.134 1239.39 512.541C1222.04 513.949 1199.73 538.041 1199.23 562.97C1198.51 598.496 1199.38 611.542 1206.58 625.696C1213.38 638.999 1222.62 648.931 1241.78 649.958C1232.16 650.576 1213.24 652.262 1204.19 645.199C1189.07 633.391 1178.32 617.205 1178.32 617.205C1178.32 617.205 1139.26 620.726 1137.34 591.583C1135.42 562.439 1172.88 567.558 1175.76 564.39C1178.64 561.223 1174.8 527.232 1195.29 508.007C1215.77 488.782 1246.83 487.831 1251.01 492.317C1255.18 496.804 1259.65 504.486 1259.65 504.486C1259.65 504.486 1269.02 503.609 1274.22 521.971Z" fill="#F4734B"/>
<path d="M1338.63 676.115C1338.28 678.507 1337.75 680.87 1337.05 683.185C1336.37 685.529 1335.37 687.769 1334.09 689.848C1332.81 691.954 1331.01 693.692 1328.86 694.892C1326.7 696.025 1324.2 696.311 1321.84 695.694C1324.16 696.092 1326.55 695.607 1328.53 694.334C1330.45 693.059 1332.01 691.304 1333.05 689.243C1335.2 685.164 1336.06 680.493 1336.5 675.871C1336.9 671.208 1336.95 666.523 1336.65 661.853C1336.39 657.171 1335.94 652.494 1335.29 647.822C1334.64 643.149 1333.91 638.499 1333.08 633.872C1332.25 629.236 1331.3 624.613 1330.29 620.004C1328.33 610.772 1326.03 601.609 1323.58 592.492C1321.12 583.376 1318.4 574.341 1315.42 565.402C1312.45 556.462 1309.08 547.639 1305.45 538.937C1301.78 530.245 1297.67 521.75 1293.12 513.485C1290.85 509.345 1288.37 505.327 1285.8 501.371C1284.51 499.393 1283.14 497.469 1281.72 495.565L1281.13 494.784C1305.18 528.094 1334.33 641.894 1330.38 665.578C1326.22 690.561 1302.53 696.652 1302.53 696.652L1293.24 688.637C1293.24 688.637 1304.08 675.762 1307.92 649.494C1311.77 623.226 1279.78 544.498 1270.81 525.001C1267.41 517.605 1262.18 513.24 1256.98 509.467C1251.18 505.266 1246.24 504.029 1239.37 504.253C1233.76 504.45 1225.51 506.497 1220.57 509.692C1190.78 528.815 1193.04 559.42 1192.96 566.884C1192.64 596.592 1191.74 594.301 1179.52 580.888C1172.34 573.016 1162.76 582.39 1162.76 595.205C1162.76 608.019 1178.31 617.237 1178.31 617.237C1178.31 617.237 1174.37 655.898 1176.95 695.619C1178.61 721.452 1191.35 728.712 1200.05 730.609C1202.72 731.225 1205.48 731.395 1208.21 731.112C1204.19 733.61 1199.73 735.313 1195.07 736.129C1184.83 738.1 1173.05 736.938 1162.18 734.647C1149.92 731.95 1137.96 728.028 1126.48 722.941C1126.48 722.941 1081.01 704.688 1083.57 636.455C1085.37 588.719 1118.82 542.241 1150.27 512.261C1141.83 519.438 1133.88 527.159 1126.45 535.375C1117.75 545.035 1109.92 555.455 1103.08 566.51C1096.26 577.548 1090.61 589.265 1086.21 601.473C1085.14 604.525 1084.14 607.591 1083.24 610.704C1082.33 613.818 1081.52 616.938 1080.82 620.086C1079.4 626.383 1078.45 632.777 1077.99 639.216C1077.5 645.648 1077.54 652.11 1078.11 658.536C1078.71 664.955 1079.87 671.309 1081.59 677.523C1083.31 683.745 1085.64 689.782 1088.55 695.544C1091.43 701.338 1094.93 706.807 1098.97 711.86C1103 716.944 1107.65 721.511 1112.8 725.456C1115.37 727.446 1118.1 729.23 1120.95 730.792C1122.39 731.561 1123.84 732.288 1125.34 732.947C1126.85 733.593 1128.38 734.162 1129.94 734.654C1128.34 734.264 1126.76 733.797 1125.19 733.253C1123.64 732.703 1122.12 732.07 1120.62 731.391C1117.64 729.967 1114.77 728.317 1112.04 726.455C1109.31 724.597 1106.7 722.552 1104.25 720.337C1101.79 718.118 1099.46 715.752 1097.27 713.253C1092.93 708.218 1089.13 702.735 1085.95 696.897C1082.78 691.032 1080.21 684.865 1078.27 678.488C1074.44 665.681 1072.95 652.287 1073.86 638.95C1074.81 625.658 1077.61 612.565 1082.19 600.052C1084.45 593.814 1087.04 587.705 1089.97 581.751C1091.42 578.767 1092.98 575.844 1094.58 572.914C1096.17 569.984 1097.91 567.19 1099.68 564.389C1106.77 553.22 1114.93 542.761 1124.03 533.159C1133.09 523.571 1142.95 514.772 1153.5 506.857C1158.16 503.376 1162.93 500.059 1167.82 496.911C1173.85 492.091 1180.25 487.75 1186.95 483.927C1220.57 465.348 1234.98 478.162 1234.98 478.162C1234.98 478.162 1239.64 474.593 1247.54 474.593C1254.98 474.593 1265.28 477.754 1277.24 490.039C1280.71 493.297 1283.89 496.852 1286.75 500.664C1289.66 504.437 1292.34 508.387 1294.9 512.411C1299.96 520.501 1304.5 528.902 1308.49 537.564C1312.52 546.204 1316.03 555.082 1319.25 564.076C1322.46 573.07 1325.21 582.18 1327.74 591.357L1328.69 594.804C1328.99 595.952 1329.26 597.115 1329.56 598.264C1330.12 600.582 1330.74 602.88 1331.25 605.205L1332.86 612.159C1333.37 614.484 1333.88 616.809 1334.35 619.141C1335.28 623.818 1336.12 628.511 1336.87 633.22C1337.63 637.931 1338.28 642.655 1338.72 647.421C1339.59 656.918 1340 666.557 1338.63 676.115Z" fill="#5D1310"/>
<path opacity="0.36" d="M1246.55 504.696C1240.94 504.893 1226.47 509.379 1221.53 512.547C1191.75 531.677 1194.7 559.373 1194.62 566.837C1194.31 596.544 1190.93 594.954 1179.52 580.841C1173.16 572.969 1162.76 582.343 1162.76 595.158C1162.76 607.972 1178.31 617.19 1178.31 617.19C1178.31 617.19 1174.38 655.851 1176.95 695.572C1178.62 721.405 1191.35 728.665 1200.06 730.562C1198.57 732.553 1196.9 734.401 1195.06 736.082C1184.82 738.053 1173.04 736.891 1162.18 734.6C1127.03 700.942 1143.87 565.572 1182.81 528.836C1226.56 487.51 1248.13 504.696 1246.55 504.696Z" fill="#3F0808"/>
<path d="M1238.88 1286.2C1238.88 1286.2 1246.43 1293.07 1268.28 1289.03C1290.12 1284.99 1393.64 1277.94 1425.92 1277.6C1458.2 1277.27 1510.7 1273.1 1535.87 1252.48C1535.87 1252.48 1554.64 1220.44 1528.09 1212.04C1501.53 1203.63 1249.14 1242.97 1244.43 1259.78C1239.73 1276.59 1229.72 1282.7 1238.88 1286.2Z" fill="#602005"/>
<path d="M1273.46 676.974C1273.46 676.974 1266.6 682.412 1261.11 686.042C1255.62 689.673 1211.7 714.656 1207.09 710.991C1202.48 707.327 1207.96 711.216 1210.24 695.424C1210.62 692.632 1210.85 689.823 1210.92 687.008C1210.92 687.008 1212.05 695.417 1221 693.412C1228.66 691.692 1261.63 669.768 1270.98 663.5C1271.48 668.046 1272.31 672.549 1273.46 676.974V676.974Z" fill="#EC5A29"/>
<path d="M634.233 1599.63C638.439 1581.8 627.402 1563.94 609.582 1559.73C591.763 1555.52 573.907 1566.56 569.701 1584.39C565.495 1602.22 576.532 1620.08 594.352 1624.29C612.171 1628.5 630.027 1617.46 634.233 1599.63Z" stroke="#1E1E1E" stroke-width="16.26" stroke-miterlimit="10" stroke-linecap="round"/>
<path d="M629.168 1596.3C631.577 1581.45 621.498 1567.46 606.655 1565.05C591.812 1562.64 577.826 1572.73 575.417 1587.57C573.008 1602.42 583.087 1616.42 597.93 1618.83C612.773 1621.24 626.758 1611.15 629.168 1596.3Z" fill="#7B90AD"/>
<path d="M602.251 1567.35C607.089 1567.35 611.818 1568.79 615.841 1571.47C619.863 1574.16 622.999 1577.99 624.85 1582.46C626.701 1586.93 627.186 1591.85 626.242 1596.6C625.298 1601.35 622.969 1605.71 619.547 1609.13C616.126 1612.55 611.768 1614.88 607.023 1615.83C602.278 1616.77 597.359 1616.29 592.889 1614.43C588.42 1612.58 584.599 1609.44 581.912 1605.42C579.224 1601.4 577.789 1596.66 577.789 1591.82C577.789 1585.33 580.366 1579.11 584.954 1574.52C589.541 1569.93 595.763 1567.35 602.251 1567.35ZM602.251 1561.87C596.324 1561.87 590.53 1563.63 585.603 1566.92C580.675 1570.22 576.834 1574.9 574.566 1580.38C572.298 1585.86 571.705 1591.88 572.861 1597.7C574.017 1603.51 576.871 1608.86 581.062 1613.05C585.253 1617.24 590.592 1620.1 596.405 1621.25C602.217 1622.41 608.242 1621.82 613.718 1619.55C619.193 1617.28 623.873 1613.44 627.166 1608.51C630.458 1603.58 632.216 1597.78 632.216 1591.85C632.207 1583.9 629.047 1576.28 623.429 1570.66C617.812 1565.04 610.195 1561.88 602.251 1561.87V1561.87Z" fill="#1E1E1E"/>
<path d="M602.068 1605.52C599.477 1605.52 596.943 1604.76 594.788 1603.32C592.633 1601.88 590.953 1599.83 589.96 1597.44C588.968 1595.04 588.707 1592.41 589.212 1589.86C589.717 1587.32 590.964 1584.98 592.796 1583.15C594.627 1581.32 596.962 1580.07 599.503 1579.56C602.045 1579.05 604.679 1579.31 607.073 1580.31C609.467 1581.3 611.514 1582.98 612.954 1585.13C614.393 1587.29 615.162 1589.82 615.162 1592.42C615.158 1595.89 613.778 1599.22 611.323 1601.68C608.869 1604.13 605.54 1605.52 602.068 1605.52V1605.52Z" fill="#BCD6EB"/>
<path d="M603.004 1515.79H601.495C596.939 1515.79 593.246 1519.49 593.246 1524.05V1587.81C593.246 1592.37 596.939 1596.07 601.495 1596.07H603.004C607.559 1596.07 611.253 1592.37 611.253 1587.81V1524.05C611.253 1519.49 607.559 1515.79 603.004 1515.79Z" fill="#FFBA55"/>
<path d="M1116.56 1599.63C1120.77 1581.8 1109.73 1563.93 1091.91 1559.73C1074.09 1555.52 1056.24 1566.56 1052.03 1584.39C1047.82 1602.22 1058.86 1620.08 1076.68 1624.29C1094.5 1628.5 1112.35 1617.46 1116.56 1599.63Z" stroke="#1E1E1E" stroke-width="16.26" stroke-miterlimit="10" stroke-linecap="round"/>
<path d="M1111.53 1596.3C1113.94 1581.45 1103.86 1567.46 1089.02 1565.05C1074.18 1562.64 1060.19 1572.73 1057.78 1587.57C1055.38 1602.42 1065.45 1616.42 1080.3 1618.83C1095.14 1621.24 1109.13 1611.15 1111.53 1596.3Z" fill="#7B90AD"/>
<path d="M1084.6 1567.35C1089.44 1567.35 1094.17 1568.79 1098.19 1571.47C1102.21 1574.16 1105.35 1577.99 1107.2 1582.46C1109.05 1586.93 1109.53 1591.85 1108.59 1596.6C1107.65 1601.35 1105.32 1605.71 1101.9 1609.13C1098.47 1612.55 1094.12 1614.88 1089.37 1615.83C1084.63 1616.77 1079.71 1616.29 1075.24 1614.43C1070.77 1612.58 1066.95 1609.44 1064.26 1605.42C1061.57 1601.4 1060.14 1596.66 1060.14 1591.82C1060.14 1585.33 1062.71 1579.11 1067.3 1574.52C1071.89 1569.93 1078.11 1567.35 1084.6 1567.35ZM1084.6 1561.87C1078.67 1561.87 1072.88 1563.63 1067.95 1566.92C1063.02 1570.22 1059.18 1574.9 1056.91 1580.38C1054.65 1585.86 1054.05 1591.88 1055.21 1597.7C1056.36 1603.51 1059.22 1608.86 1063.41 1613.05C1067.6 1617.24 1072.94 1620.1 1078.75 1621.25C1084.56 1622.41 1090.59 1621.82 1096.07 1619.55C1101.54 1617.28 1106.22 1613.44 1109.51 1608.51C1112.81 1603.58 1114.56 1597.78 1114.56 1591.85C1114.55 1583.9 1111.39 1576.28 1105.78 1570.66C1100.16 1565.04 1092.54 1561.88 1084.6 1561.87V1561.87Z" fill="#1E1E1E"/>
<path d="M1084.42 1605.52C1081.82 1605.52 1079.29 1604.76 1077.14 1603.32C1074.98 1601.88 1073.3 1599.83 1072.31 1597.44C1071.32 1595.04 1071.05 1592.41 1071.56 1589.86C1072.06 1587.32 1073.31 1584.98 1075.14 1583.15C1076.98 1581.32 1079.31 1580.07 1081.85 1579.56C1084.39 1579.05 1087.03 1579.31 1089.42 1580.31C1091.82 1581.3 1093.86 1582.98 1095.3 1585.13C1096.74 1587.29 1097.51 1589.82 1097.51 1592.42C1097.51 1595.89 1096.13 1599.22 1093.67 1601.68C1091.22 1604.13 1087.89 1605.52 1084.42 1605.52V1605.52Z" fill="#BCD6EB"/>
<path d="M1085.35 1515.79H1083.84C1079.29 1515.79 1075.59 1519.49 1075.59 1524.05V1587.81C1075.59 1592.37 1079.29 1596.07 1083.84 1596.07H1085.35C1089.91 1596.07 1093.6 1592.37 1093.6 1587.81V1524.05C1093.6 1519.49 1089.91 1515.79 1085.35 1515.79Z" fill="#FFBA55"/>
<path d="M1118.16 1457.13L1123.94 1497.32C1124.37 1499.57 1124.3 1501.89 1123.73 1504.1C1123.17 1506.32 1122.12 1508.39 1120.66 1510.15C1119.2 1511.92 1117.37 1513.34 1115.3 1514.31C1113.23 1515.29 1110.97 1515.79 1108.68 1515.79H561.348" stroke="#0F3B54" stroke-width="11.52" stroke-miterlimit="10" stroke-linecap="round"/>
<path d="M1362.33 1526.59C1360.74 1547.53 1363.66 1596.12 1363.66 1596.12C1363.66 1596.12 1273.46 1614.37 1270.57 1606.52C1269.01 1602.29 1255.16 1577.77 1270.62 1572.27C1286.42 1566.64 1322.77 1561.53 1323.62 1548.41C1324.46 1535.29 1322.15 1509.21 1318.63 1479.83C1314.47 1445.34 1308.62 1406.41 1304.2 1378.92C1298.87 1345.84 1289.06 1315.13 1282.86 1295.65C1279.53 1285.2 1277.24 1277.98 1277.24 1275.37C1277.24 1267.89 1275.92 1223.4 1275.92 1223.4L1347.54 1203.21C1347.54 1203.21 1351.24 1272 1351.58 1287.33C1351.68 1291.4 1352.64 1297.01 1354.08 1303.74C1358.07 1322.38 1365.7 1349.56 1368.42 1375.93C1370.86 1399.62 1368.12 1448.56 1365.52 1485.11C1364.17 1503.91 1362.87 1519.47 1362.33 1526.59Z" fill="#FFA188"/>
<path d="M1604.96 1474.16L1565.49 1549.89C1565.49 1549.89 1526.81 1545.81 1534.8 1532.15C1542.78 1518.49 1554.4 1475.3 1551.22 1467.13C1549.48 1462.65 1542.31 1450.97 1532.44 1435.85C1505.13 1394.16 1457.13 1326.44 1445.92 1312.95C1435.73 1300.67 1427.37 1291.47 1420.75 1283.63C1417.45 1279.73 1414.58 1276.15 1412.14 1272.76C1404.79 1262.42 1405.6 1214.18 1405.6 1214.18C1409.17 1200.04 1479.16 1188.54 1479.16 1188.54C1479.16 1188.54 1478.61 1215.73 1478.07 1225.3C1477.61 1233.3 1481.73 1244.78 1496.96 1265.35C1499.94 1269.37 1503.35 1273.75 1507.23 1278.51C1530.93 1307.62 1550.37 1368.1 1559.25 1395.07C1559.86 1396.94 1560.65 1400.13 1561.54 1404.03C1564.49 1416.94 1568.6 1437.56 1571.6 1443.38L1604.96 1474.16Z" fill="#FFA188"/>
<path d="M1051.39 1023.67C1049.35 1022.02 1047.76 1019.88 1046.77 1017.45C1045.78 1015.02 1045.42 1012.38 1045.73 1009.77C1046.58 1000.47 1057.03 995.035 1066.82 998.094C1076.62 1001.15 1064.98 1024.61 1062.54 1025.16C1060.09 1025.72 1051.39 1023.67 1051.39 1023.67Z" fill="#B82D40"/>
<path d="M554.617 1454.58L636.495 1398.32L1052.31 1387.29L1118.16 1454.58H554.617Z" fill="#123A53"/>
<path d="M1026.98 1059.85C1026.98 1059.85 1119.39 1090.69 1120.03 1091.73L531.129 1130.32L672.605 1082.23L1026.98 1059.85Z" stroke="#2A878E" stroke-width="10.7" stroke-linecap="round" stroke-linejoin="round"/>
<path d="M1351.58 1287.33C1351.67 1291.4 1352.63 1297.01 1354.07 1303.74C1334.91 1289.91 1315.11 1296.65 1301.95 1298.2C1288.94 1299.74 1283.01 1295.76 1282.85 1295.65C1279.52 1285.2 1277.23 1277.98 1277.23 1275.37C1277.23 1267.89 1275.91 1223.4 1275.91 1223.4L1347.53 1203.21C1347.53 1203.21 1351.24 1272 1351.58 1287.33Z" fill="#EC5A29"/>
<path d="M1496.97 1265.35C1496.97 1265.35 1481.73 1260.99 1460.42 1273.78C1439.35 1286.42 1421.17 1283.73 1420.75 1283.66C1417.45 1279.76 1414.58 1276.18 1412.14 1272.78C1404.79 1262.45 1405.6 1214.2 1405.6 1214.2C1409.17 1200.04 1479.16 1188.54 1479.16 1188.54C1479.16 1188.54 1478.61 1215.73 1478.07 1225.3C1477.63 1233.3 1481.74 1244.78 1496.97 1265.35Z" fill="#EC5A29"/>
<path d="M708.236 1420.64H595.312L602.474 1113.31H708.236V1420.64Z" fill="#DD7B10"/>
<path d="M806.526 1420.64H632.299L622.086 1113.31H791.747L806.526 1420.64Z" fill="#FFBA55"/>
<path d="M712.595 1182.12C688.738 1182.12 676.12 1167.88 669.692 1155.7C665.247 1147.09 662.425 1137.73 661.368 1128.09C661.341 1127.88 661.358 1127.65 661.419 1127.44C661.479 1127.23 661.583 1127.03 661.722 1126.86C661.861 1126.69 662.033 1126.55 662.228 1126.45C662.423 1126.34 662.637 1126.28 662.857 1126.26C663.077 1126.25 663.298 1126.27 663.507 1126.35C663.715 1126.42 663.908 1126.53 664.072 1126.67C664.237 1126.82 664.37 1127 664.463 1127.2C664.557 1127.4 664.609 1127.62 664.616 1127.84C665.665 1137.06 668.375 1146.01 672.614 1154.27C681.658 1171.34 695.927 1179.6 715.014 1178.81C727.971 1178.28 737.681 1174 743.858 1166.11C755.409 1151.34 750.965 1128.52 750.925 1128.29C750.88 1128.08 750.877 1127.87 750.916 1127.66C750.955 1127.44 751.035 1127.24 751.151 1127.06C751.267 1126.88 751.418 1126.73 751.594 1126.61C751.771 1126.49 751.969 1126.4 752.178 1126.36C752.387 1126.31 752.603 1126.31 752.814 1126.35C753.024 1126.39 753.225 1126.47 753.404 1126.58C753.584 1126.7 753.739 1126.85 753.86 1127.03C753.981 1127.2 754.067 1127.4 754.111 1127.61C754.315 1128.6 758.929 1152.08 746.433 1168.08C739.638 1176.77 729.113 1181.47 715.177 1182.04C714.28 1182.1 713.43 1182.12 712.595 1182.12Z" fill="white"/>
<path d="M614.164 1113.6V1420.64H632.3L622.087 1113.31L614.164 1113.6Z" fill="#E78F21"/>
<path d="M968.379 1421.3H1068.81L1062.44 1147.96H968.379V1421.3Z" fill="#930019"/>
<path d="M880.965 1421.3H1035.92L1045.01 1147.96H894.106L880.965 1421.3Z" fill="#FF3753"/>
<path d="M964.504 1209.17C985.718 1209.17 996.943 1196.51 1002.66 1185.67C1006.61 1178.01 1009.12 1169.69 1010.06 1161.12C1010.08 1160.93 1010.06 1160.74 1010 1160.56C1009.94 1160.37 1009.85 1160.21 1009.72 1160.06C1009.47 1159.77 1009.12 1159.59 1008.74 1159.56C1008.35 1159.53 1007.97 1159.65 1007.68 1159.9C1007.39 1160.15 1007.21 1160.5 1007.18 1160.89C1006.24 1169.09 1003.83 1177.05 1000.06 1184.39C992.017 1199.58 979.324 1206.92 962.35 1206.22C950.799 1205.75 942.197 1201.95 936.693 1194.92C926.405 1181.78 930.374 1161.49 930.414 1161.29C930.472 1160.92 930.386 1160.54 930.174 1160.24C929.961 1159.93 929.639 1159.72 929.274 1159.64C928.909 1159.57 928.529 1159.64 928.214 1159.84C927.898 1160.04 927.672 1160.35 927.581 1160.71C927.398 1161.59 923.293 1182.46 934.41 1196.7C940.451 1204.43 949.814 1208.6 962.235 1209.12C963.003 1209.15 963.757 1209.17 964.504 1209.17Z" fill="white"/>
<path d="M1052.05 1148.22V1421.3H1035.91L1045.01 1147.96L1052.05 1148.22Z" fill="#B82D40"/>
<path d="M534.242 1168.75L1119.56 1135.16" stroke="#B1D6CF" stroke-width="9.88" stroke-miterlimit="10"/>
<path d="M534.242 1173.31L1119.56 1139.72" stroke="#2A878E" stroke-width="10.7" stroke-miterlimit="10"/>
<path d="M535.832 1228.98L1121.73 1207.61" stroke="#B1D6CF" stroke-width="9.88" stroke-miterlimit="10"/>
<path d="M535.734 1233.54L1121.63 1212.16" stroke="#2A878E" stroke-width="10.7" stroke-miterlimit="10"/>
<path d="M887.378 1432.98H744.617L753.675 1244.04H887.378V1432.98Z" fill="#002642"/>
<path d="M1011.65 1433.2H791.378L778.461 1244.04H992.961L1011.65 1433.2Z" fill="#67A4C3"/>
<path d="M892.826 1301.85C871.864 1301.85 860.781 1289.34 855.128 1278.64C851.224 1271.07 848.745 1262.84 847.817 1254.37C847.809 1254.01 847.942 1253.65 848.187 1253.38C848.433 1253.11 848.773 1252.94 849.138 1252.91C849.502 1252.89 849.865 1253 850.149 1253.23C850.434 1253.46 850.621 1253.79 850.671 1254.15C851.595 1262.25 853.975 1270.12 857.696 1277.37C865.646 1292.38 878.183 1299.63 894.946 1298.94C906.334 1298.47 914.862 1294.71 920.291 1287.78C930.483 1274.8 926.535 1254.75 926.494 1254.55C926.44 1254.19 926.526 1253.82 926.737 1253.51C926.948 1253.21 927.266 1253 927.626 1252.93C927.987 1252.86 928.361 1252.93 928.673 1253.12C928.984 1253.32 929.209 1253.62 929.301 1253.98C929.477 1254.85 933.527 1275.5 922.553 1289.53C916.581 1297.16 907.333 1301.29 895.068 1301.8C894.307 1301.82 893.56 1301.85 892.826 1301.85Z" fill="white"/>
<path d="M768.445 1244.21V1432.98H791.378L778.461 1244.04L768.445 1244.21Z" fill="#193C5C"/>
<path d="M540.895 1293.86L1119.96 1275.41" stroke="#B1D6CF" stroke-width="9.82" stroke-miterlimit="10"/>
<path d="M540.77 1298.41L1119.84 1279.97" stroke="#2A878E" stroke-width="10.63" stroke-miterlimit="10"/>
<path d="M546.785 1351.93L1120.06 1339.15" stroke="#B1D6CF" stroke-width="9.77" stroke-miterlimit="10"/>
<path d="M546.621 1356.49L1119.9 1343.7" stroke="#2A878E" stroke-width="10.58" stroke-miterlimit="10"/>
<path d="M551.895 1409.44L1120.09 1398.32" stroke="#B1D6CF" stroke-width="9.72" stroke-miterlimit="10"/>
<path d="M551.719 1413.99L1119.91 1402.88" stroke="#2A878E" stroke-width="10.53" stroke-miterlimit="10"/>
<path d="M1125.33 1049.64L1094.53 1086.75L1105.07 1090.61L1130.67 1052.85L1125.33 1049.64Z" fill="#376F92"/>
<path d="M1130.67 1052.85L1134.03 1055.18L1109.86 1089.94L1103.07 1089.87L1130.67 1052.85Z" fill="#123A53"/>
<path d="M1056.7 1026.49L1026.48 1063.8L1037.01 1067.45L1062.03 1029.7L1056.7 1026.49Z" fill="#376F92"/>
<path d="M1062.03 1029.7L1065.39 1032.04L1039.77 1068.36L1034.44 1066.56L1062.03 1029.7Z" fill="#123A53"/>
<path d="M531.129 1130.32L554.619 1454.58H1118.16L1120.03 1091.73L531.129 1130.32Z" stroke="#2A878E" stroke-width="10.7" stroke-linejoin="round"/>
<path d="M615.801 1124.77L625.613 1454.58" stroke="#2A878E" stroke-width="10.7" stroke-linecap="round" stroke-linejoin="round"/>
<path d="M700.918 1124.77L710.73 1454.58" stroke="#2A878E" stroke-width="10.7" stroke-linecap="round" stroke-linejoin="round"/>
<path d="M790.754 1113.31L793.207 1454.58" stroke="#2A878E" stroke-width="10.7" stroke-linecap="round" stroke-linejoin="round"/>
<path d="M880.965 1107.39V1454.58" stroke="#2A878E" stroke-width="10.7" stroke-linecap="round" stroke-linejoin="round"/>
<path d="M966.082 1101.82V1454.58" stroke="#2A878E" stroke-width="10.7" stroke-linecap="round" stroke-linejoin="round"/>
<path d="M1054.15 1096.05L1051.2 1454.58" stroke="#2A878E" stroke-width="10.7" stroke-linecap="round" stroke-linejoin="round"/>
<path d="M1232.3 886.747C1228.67 905.85 1120.69 1032.87 1113.88 1034.69C1107.08 1036.5 1087.57 1035.14 1087.57 1035.14C1086.18 1036.88 1083.5 1037.64 1080.25 1037.75C1070.74 1038.1 1056.25 1032.99 1053.55 1030.6C1049.92 1027.42 1051.28 1012.93 1053.55 1004.73C1055.81 996.529 1084.39 984.755 1101.79 972.049C1119.18 959.344 1159.25 889.895 1163.34 870.826C1165.23 861.988 1167.66 831.601 1169.71 801.588C1172.08 766.917 1173.96 732.791 1173.96 732.791L1203.72 740.561C1203.72 740.561 1235.9 867.651 1232.3 886.747Z" fill="#FFA188"/>
<path d="M1232.3 886.747C1228.67 905.85 1120.69 1032.87 1113.88 1034.69C1107.07 1036.5 1087.57 1035.14 1087.57 1035.14C1086.18 1036.88 1083.5 1037.64 1080.25 1037.75C1070.74 1014.07 1095.84 1007.01 1106.45 1003.15C1142.06 990.193 1195.36 908.351 1195.36 893.47C1195.36 878.589 1181.69 866.326 1176.42 855.653C1173.62 849.963 1174.27 826.373 1173.91 801.676C1176.28 767.006 1173.96 732.791 1173.96 732.791L1203.71 740.561C1203.71 740.561 1235.9 867.651 1232.3 886.747Z" fill="#EC5A29"/>
<path d="M1087.57 1035.14C1083.12 1033.78 1082.3 1026.72 1083.53 1023.09C1084.42 1020.69 1085.79 1018.5 1087.56 1016.65C1089.18 1014.7 1091.29 1013.23 1093.67 1012.36C1096.53 1011.47 1099.11 1012.41 1101.83 1013.21C1104.42 1013.97 1107 1014.79 1109.57 1015.62C1115.83 1017.66 1122.05 1019.81 1128.24 1022C1134.8 1024.31 1141.34 1026.66 1147.87 1029.06C1155.56 1031.88 1157.89 1042.29 1154.66 1049.2C1153.42 1051.88 1151.42 1054.15 1148.91 1055.72C1146.4 1057.28 1143.49 1058.09 1140.54 1058.03C1136.08 1057.87 1131.7 1056.09 1127.99 1053.7C1127.83 1053.59 1126.79 1052.87 1126.99 1053.02C1126.99 1053.02 1116.73 1048.2 1115.55 1045.83C1114.37 1043.46 1087.62 1035.16 1087.57 1035.14Z" fill="#B82D40"/>
<path d="M1362.33 1526.59C1360.74 1547.53 1363.66 1596.12 1363.66 1596.12C1363.66 1596.12 1273.46 1614.37 1270.57 1606.51C1269.01 1602.29 1255.16 1577.77 1270.62 1572.27C1286.42 1566.64 1322.77 1561.53 1323.62 1548.41C1324.46 1535.29 1322.15 1509.21 1318.63 1479.83C1329.84 1485.64 1346.88 1486.49 1365.51 1485.11C1364.17 1503.91 1362.87 1519.47 1362.33 1526.59Z" fill="white"/>
<path d="M1362.41 1526.59C1362.01 1532.37 1361.96 1538.15 1362 1543.97C1362.05 1549.8 1362.24 1555.56 1362.47 1561.35C1362.7 1567.15 1362.97 1572.91 1363.3 1578.72L1364.33 1596.08V1596.67L1363.75 1596.79C1358.39 1597.88 1353.04 1598.95 1347.65 1599.95C1342.27 1600.95 1336.89 1601.88 1331.5 1602.79C1326.11 1603.7 1320.7 1604.52 1315.29 1605.3C1309.88 1606.08 1304.45 1606.79 1298.98 1607.39C1293.51 1608 1288.11 1608.49 1282.62 1608.75C1279.87 1608.9 1277.12 1608.83 1274.38 1608.54C1273.69 1608.45 1273.01 1608.31 1272.35 1608.11C1271.62 1607.96 1270.96 1607.57 1270.46 1607.01C1270.28 1606.7 1270.13 1606.37 1270.01 1606.03L1269.59 1605.09L1268.75 1603.23C1266.48 1598.26 1264.36 1593.14 1263.4 1587.7C1262.86 1584.96 1262.88 1582.15 1263.46 1579.42C1263.8 1578.05 1264.41 1576.76 1265.25 1575.62C1265.46 1575.33 1265.68 1575.06 1265.92 1574.8L1266.69 1574.05C1267.23 1573.6 1267.82 1573.2 1268.43 1572.86C1269.05 1572.51 1269.68 1572.21 1270.34 1571.96C1271.02 1571.72 1271.64 1571.49 1272.29 1571.28C1273.6 1570.83 1274.91 1570.42 1276.22 1570.06C1278.85 1569.28 1281.49 1568.56 1284.12 1567.85C1289.4 1566.42 1294.67 1565 1299.87 1563.38C1305.07 1561.76 1310.23 1559.98 1314.94 1557.36C1317.28 1556.15 1319.37 1554.5 1321.1 1552.51C1321.87 1551.53 1322.4 1550.39 1322.66 1549.17C1322.7 1548.86 1322.76 1548.58 1322.78 1548.25L1322.83 1547.23C1322.83 1546.56 1322.9 1545.88 1322.9 1545.2C1323 1539.76 1322.77 1534.32 1322.44 1528.88C1322.12 1523.44 1321.64 1518 1321.17 1512.56C1320.22 1501.69 1319.02 1490.81 1317.74 1479.97L1317.55 1478.4L1318.97 1479.12C1322.47 1480.86 1326.17 1482.15 1329.99 1482.99C1333.84 1483.84 1337.75 1484.42 1341.68 1484.71C1349.6 1485.26 1357.55 1485.26 1365.46 1484.71H1365.95L1365.9 1485.18L1364.08 1505.9L1362.41 1526.59ZM1362.24 1526.59L1363.74 1505.84L1365.1 1485.09L1365.54 1485.53C1361.57 1485.87 1357.59 1486.12 1353.6 1486.21C1349.61 1486.3 1345.61 1486.31 1341.62 1486.05C1337.61 1485.81 1333.63 1485.28 1329.69 1484.47C1325.72 1483.68 1321.86 1482.36 1318.22 1480.57L1319.45 1479.72C1320.77 1490.59 1321.99 1501.47 1322.98 1512.35C1323.49 1517.79 1323.88 1523.22 1324.18 1528.73C1324.49 1534.24 1324.67 1539.69 1324.54 1545.2C1324.54 1545.88 1324.48 1546.56 1324.45 1547.23L1324.4 1548.27C1324.4 1548.61 1324.3 1549.01 1324.25 1549.38C1323.93 1550.84 1323.29 1552.21 1322.36 1553.38C1320.49 1555.53 1318.23 1557.29 1315.69 1558.57C1310.78 1561.2 1305.53 1562.95 1300.29 1564.54C1295.05 1566.13 1289.72 1567.42 1284.43 1568.76C1281.78 1569.44 1279.13 1570.12 1276.5 1570.83C1275.19 1571.2 1273.89 1571.58 1272.59 1571.99C1271.95 1572.19 1271.29 1572.41 1270.66 1572.63C1270.04 1572.85 1269.43 1573.13 1268.85 1573.45C1267.69 1574.07 1266.66 1574.93 1265.85 1575.97C1265.04 1577.02 1264.45 1578.22 1264.14 1579.51C1263.55 1582.14 1263.51 1584.87 1264.04 1587.52C1264.95 1592.87 1267.01 1597.98 1269.26 1602.94L1270.95 1606.62C1271.38 1607.07 1271.94 1607.38 1272.56 1607.51C1273.2 1607.68 1273.86 1607.81 1274.52 1607.89C1277.23 1608.16 1279.96 1608.21 1282.67 1608.04C1288.11 1607.81 1293.55 1607.17 1298.98 1606.48C1309.81 1605.07 1320.58 1603.23 1331.34 1601.35C1336.71 1600.42 1342.08 1599.44 1347.46 1598.43C1352.82 1597.44 1358.21 1596.46 1363.56 1595.41L1363.02 1596.09C1362.7 1590.3 1362.47 1584.54 1362.3 1578.7C1362.12 1572.87 1361.97 1567.11 1361.88 1561.31C1361.78 1555.51 1361.75 1549.7 1361.77 1543.9C1361.79 1538.11 1361.81 1532.37 1362.24 1526.58V1526.59Z" fill="#E95500"/>
<path d="M1604.96 1474.16L1565.49 1549.89C1565.49 1549.89 1526.81 1545.81 1534.8 1532.15C1542.78 1518.49 1554.39 1475.31 1551.21 1467.13C1549.48 1462.65 1536.05 1441.49 1526.18 1426.41C1539.59 1423.69 1553.84 1416.89 1561.55 1404.03C1564.5 1416.94 1568.61 1437.56 1571.61 1443.38L1604.96 1474.16Z" fill="white"/>
<path d="M1605.05 1474.15L1595.53 1493.09L1585.87 1512.12L1576.06 1531.16L1571.14 1540.67L1566.15 1550.19L1565.92 1550.63L1565.44 1550.57C1558.92 1549.84 1552.5 1548.46 1546.26 1546.44C1543.1 1545.45 1540.1 1544.01 1537.35 1542.16C1535.93 1541.21 1534.76 1539.93 1533.95 1538.42C1533.57 1537.64 1533.35 1536.78 1533.33 1535.9C1533.32 1535.04 1533.47 1534.18 1533.8 1533.37C1534.12 1532.61 1534.51 1531.87 1534.94 1531.16C1535.35 1530.48 1535.7 1529.74 1536.07 1529.02C1536.75 1527.56 1537.43 1526.09 1538.08 1524.59C1539.33 1521.6 1540.47 1518.55 1541.54 1515.49C1543.69 1509.37 1545.47 1503.09 1547.08 1496.79C1547.88 1493.65 1548.61 1490.48 1549.24 1487.28C1549.87 1484.07 1550.43 1480.89 1550.82 1477.68C1551.03 1476.07 1551.16 1474.46 1551.23 1472.85C1551.34 1471.26 1551.25 1469.66 1550.97 1468.09C1550.93 1467.91 1550.86 1467.74 1550.82 1467.56C1550.77 1467.38 1550.7 1467.2 1550.62 1467.03C1550.45 1466.67 1550.31 1466.32 1550.11 1465.96C1549.75 1465.25 1549.36 1464.54 1548.96 1463.84C1548.17 1462.44 1547.33 1461.04 1546.5 1459.65C1543.14 1454.09 1539.65 1448.61 1536.13 1443.14C1532.61 1437.66 1529.07 1432.21 1525.49 1426.78L1524.81 1425.77L1526.01 1425.52C1532.96 1424.12 1539.64 1421.6 1545.78 1418.04C1548.82 1416.26 1551.65 1414.13 1554.21 1411.71C1556.77 1409.3 1558.99 1406.55 1560.81 1403.55L1561.92 1401.71L1562.38 1403.8L1566.74 1423.67C1567.48 1426.96 1568.25 1430.26 1569.09 1433.53C1569.85 1436.78 1570.89 1439.97 1572.19 1443.05L1572.05 1442.86L1588.65 1458.53L1605.05 1474.15ZM1604.88 1474.15L1587.92 1458.94L1571.18 1443.83L1571.09 1443.75L1571.04 1443.65C1569.65 1440.51 1568.54 1437.24 1567.72 1433.9C1566.82 1430.62 1566 1427.32 1565.22 1424.02C1563.64 1417.43 1562.23 1410.79 1560.72 1404.19L1562.29 1404.44C1560.39 1407.59 1558.08 1410.47 1555.42 1413C1552.77 1415.52 1549.84 1417.73 1546.69 1419.59C1543.56 1421.45 1540.25 1423.01 1536.83 1424.24C1533.41 1425.49 1529.91 1426.47 1526.34 1427.19L1526.87 1425.92C1533.94 1436.85 1540.95 1447.82 1547.56 1459.06C1548.38 1460.47 1549.19 1461.88 1549.97 1463.33C1550.36 1464.05 1550.73 1464.77 1551.1 1465.51C1551.5 1466.28 1551.81 1467.08 1552.01 1467.92C1552.27 1469.57 1552.33 1471.25 1552.2 1472.92C1552.09 1474.56 1551.92 1476.19 1551.69 1477.81C1550.69 1484.25 1549.35 1490.64 1547.66 1496.94C1546.03 1503.25 1544.12 1509.48 1542.04 1515.66C1541 1518.74 1539.88 1521.78 1538.65 1524.83C1538.04 1526.34 1537.36 1527.83 1536.67 1529.31C1536.3 1530.04 1535.96 1530.78 1535.56 1531.5C1535.15 1532.18 1534.8 1532.89 1534.5 1533.63C1534.22 1534.34 1534.1 1535.1 1534.14 1535.86C1534.17 1536.62 1534.37 1537.37 1534.72 1538.04C1535.49 1539.4 1536.58 1540.54 1537.89 1541.39C1540.59 1543.12 1543.53 1544.45 1546.61 1545.34C1549.69 1546.29 1552.83 1547.06 1556 1547.66C1559.17 1548.27 1562.38 1548.79 1565.57 1549.14L1564.86 1549.53L1569.74 1540.1L1574.69 1530.7L1584.61 1511.9L1594.67 1493.1L1604.88 1474.15Z" fill="#E95500"/>
<path d="M1545 1230.51C1545.21 1246.97 1536.13 1252.32 1535.85 1252.48C1536.06 1252 1544.8 1231.18 1528.3 1229.83C1511.6 1228.47 1389.21 1278.77 1325.61 1274.01C1262.01 1269.26 1239.83 1274.47 1240.06 1282.48C1240.29 1290.49 1229.54 1290.26 1227.25 1253.87C1224.96 1217.48 1229.54 1056.82 1229.08 1040.11C1228.83 1030.79 1228.85 1010.58 1228.93 994.518C1228.97 983.975 1229.04 975.225 1229.07 972.533C1229.07 971.983 1229.07 971.684 1229.07 971.684C1229.07 971.684 1218.04 900.304 1207.08 886.313C1198.87 875.844 1187.29 868.591 1181.63 856.538C1179.59 852.165 1178.45 847.425 1178.29 842.602C1177.37 821.086 1181.95 778.061 1180.81 762.955C1179.66 747.85 1170.42 746.307 1173.95 732.806C1180.68 707.041 1207.31 687.476 1208.72 691.943C1208.72 691.943 1209.86 703.907 1228.61 694.295C1247.37 684.682 1272.41 667.667 1272.41 667.667C1272.41 667.667 1276.31 663.629 1280.49 669.122C1284.67 674.614 1313.23 682.398 1330.77 712.629C1348.31 742.86 1357.66 798.91 1357.2 823.166C1356.75 847.422 1361.44 862.146 1366.03 873.132C1370.63 884.118 1415.1 922.948 1456.73 1008.32C1498.36 1093.69 1544.77 1213.8 1545 1230.51Z" fill="#FFAB3E"/>
<path d="M1302.78 869.215C1299.87 940.208 1255.35 981.629 1228.93 994.504C1228.98 983.96 1229.04 975.211 1229.07 972.519C1229.07 971.968 1229.07 971.669 1229.07 971.669C1229.07 971.669 1218.04 900.289 1207.08 886.299C1198.87 875.83 1187.29 868.576 1181.63 856.523C1182.14 856.476 1212.82 853.39 1216.96 832.581C1221.16 811.588 1217.47 725.722 1257.73 723.2C1297.99 720.677 1306.98 766.782 1302.78 869.215Z" fill="#F28D23"/>
<path d="M1249.59 732.793C1249.59 732.793 1269.92 723.561 1283.94 741.059C1289.78 748.354 1294.81 760.502 1293.73 777.98C1291.01 821.27 1282.18 831.725 1282.18 831.725L1249.59 732.793Z" fill="#EC5A29"/>
<path d="M1290.82 767.801C1290.36 790.038 1273.78 884.626 1267.43 900.513C1261.09 916.401 1184.2 986.577 1170.34 998.372C1167.89 1000.48 1165.78 1002.95 1164.06 1005.69C1156.73 1017.19 1156.45 1030.84 1148.78 1029.38C1139.36 1027.57 1127.24 1034.25 1126.36 1043.78C1125.48 1053.31 1127.54 1053.38 1127.54 1053.38C1126.23 1054.18 1123.27 1056.24 1121.22 1056.16C1112.08 1055.78 1096.92 1050.56 1092.73 1045.74C1087.6 1039.84 1095.08 1021.27 1098.71 1017.19C1102.35 1013.11 1133.87 998.365 1138.41 994.286C1142.94 990.207 1218.23 891.255 1220.95 882.179C1223.67 873.104 1227.3 805.47 1229.95 771.432C1230.8 760.405 1233.11 752.213 1235.84 746.17C1241.87 732.832 1257.72 726.925 1270.81 733.451C1283.21 739.637 1291.12 753.016 1290.82 767.801Z" fill="#FFA188"/>
<path d="M1362.2 1554.22C1367.5 1558.16 1370.58 1564.41 1372.98 1570.53C1375.02 1575.79 1376.75 1581.32 1376.45 1586.95C1375.95 1596.23 1369.23 1605.02 1360.24 1607.38C1357.19 1608.12 1354 1608.15 1350.93 1607.48C1347.86 1606.81 1344.99 1605.45 1342.52 1603.5C1336.87 1599.05 1335.94 1595.06 1338.19 1588.47C1342.81 1575.02 1351.13 1563.14 1362.2 1554.22Z" fill="#376F92"/>
<path d="M1362.2 1554.22C1351.12 1563.15 1342.8 1575.03 1338.18 1588.49C1336.04 1594.77 1336.79 1598.68 1341.78 1602.91C1342.63 1599.51 1343.21 1596.11 1344.37 1592.81C1346.77 1585.89 1350.3 1579.42 1354.81 1573.66C1357.3 1570.48 1360.09 1567.54 1363.13 1564.89C1364.8 1563.44 1366.61 1561.96 1367.7 1560.09C1366.2 1557.84 1364.34 1555.86 1362.2 1554.22Z" fill="#6CA5C2"/>
<path d="M1226.05 1586.39C1228.7 1582.52 1232.91 1580.02 1237.21 1578.17C1245.94 1574.42 1255.43 1572.9 1264.81 1571.42C1266.3 1571.18 1267.87 1570.95 1269.28 1571.49C1271.02 1572.17 1272.14 1573.84 1273.07 1575.45C1276.78 1581.94 1279.43 1588.97 1280.92 1596.3C1281.17 1597.23 1281.22 1598.22 1281.06 1599.17C1280.51 1601.45 1277.99 1602.57 1275.77 1603.25C1262.93 1607.31 1249.43 1608.86 1236.02 1607.81C1230.99 1607.41 1224.53 1605.88 1223.4 1600.05C1222.62 1595.98 1223.73 1589.77 1226.05 1586.39Z" fill="#376F92"/>
<path d="M1273.07 1575.58C1272.14 1573.96 1271.03 1572.27 1269.27 1571.61C1267.87 1571.08 1266.3 1571.3 1264.81 1571.54L1259.95 1572.32C1264.1 1574.2 1267.13 1578.21 1268.92 1582.47C1270.96 1587.23 1271.71 1592.43 1273.09 1597.43C1273.72 1599.72 1274.85 1602.33 1277.12 1602.9C1278.93 1602.18 1280.62 1601.11 1281.06 1599.29C1281.22 1598.33 1281.17 1597.35 1280.91 1596.41C1279.43 1589.09 1276.78 1582.06 1273.07 1575.58Z" fill="#6CA5C2"/>
<path d="M1228.11 1628.94H1375.3C1376.05 1628.94 1376.8 1628.79 1377.49 1628.5C1378.18 1628.21 1378.81 1627.78 1379.33 1627.24C1379.85 1626.7 1380.26 1626.06 1380.53 1625.36C1380.8 1624.66 1380.93 1623.91 1380.9 1623.16L1379.95 1592.69C1379.83 1589.12 1377.97 1586.7 1376.51 1587.09C1369.72 1588.87 1352.93 1591.57 1327.59 1593.74C1288.22 1597.14 1236.28 1598.64 1223.31 1600.04C1222.28 1600.14 1222.45 1601.45 1222.49 1603.27C1222.57 1608.15 1222.7 1617.4 1222.57 1623.22C1222.55 1623.96 1222.68 1624.7 1222.95 1625.39C1223.22 1626.08 1223.62 1626.71 1224.14 1627.24C1224.66 1627.77 1225.27 1628.2 1225.95 1628.49C1226.63 1628.78 1227.36 1628.93 1228.11 1628.94V1628.94Z" fill="#FFAC41"/>
<path d="M1222.65 1608.72C1229.19 1608.96 1240.32 1609.13 1245.13 1608.93C1293.01 1606.94 1332.78 1603.31 1380.2 1596.19L1380.14 1594.54C1379.43 1594.54 1378.72 1594.62 1378.02 1594.79C1360.65 1597.93 1347.49 1598.61 1327.54 1601.25C1292.93 1605.82 1257.27 1609.18 1222.61 1605.66C1222.63 1607.2 1222.63 1606.96 1222.65 1608.72Z" fill="#EC5A29"/>
<path d="M1380.63 1610.04C1336.01 1615.35 1300.72 1618.87 1247.97 1618.15C1239.53 1618.04 1231.08 1619.09 1222.67 1618.47C1222.67 1619.83 1222.62 1619.21 1222.59 1620.33C1222.59 1620.56 1230.68 1620.7 1234.55 1620.65C1243.48 1620.53 1341.56 1619.58 1380.64 1611.46L1380.63 1610.04Z" fill="#EC5A29"/>
<path d="M1358.14 1548.84C1357.68 1547.43 1357.25 1545.85 1357.91 1544.52C1358.74 1542.86 1360.9 1542.39 1362.75 1542.48C1364.01 1542.55 1365.41 1542.88 1366.09 1543.94C1366.43 1544.55 1366.59 1545.24 1366.55 1545.94C1366.55 1548.36 1365.42 1550.62 1364.26 1552.73C1363.67 1553.81 1363.06 1554.88 1362.42 1555.92C1361.61 1557.22 1361.34 1557.28 1360.72 1555.83C1359.76 1553.54 1358.92 1551.19 1358.14 1548.84Z" fill="#376F92"/>
<path d="M1363.51 1544.22L1323.04 1540.28L1322.14 1549.56L1362.6 1553.5L1363.51 1544.22Z" fill="#72AECC"/>
<path d="M1343.37 1546.32L1341.51 1546.09L1341.62 1545.23C1341.67 1544.79 1341.64 1544.33 1341.52 1543.9C1341.41 1543.47 1341.21 1543.07 1340.93 1542.71C1340.66 1542.36 1340.32 1542.06 1339.93 1541.84C1339.54 1541.62 1339.11 1541.48 1338.67 1541.42L1330.35 1540.37C1329.91 1540.31 1329.46 1540.34 1329.03 1540.46C1328.6 1540.58 1328.19 1540.78 1327.84 1541.06C1327.49 1541.33 1327.19 1541.67 1326.97 1542.06C1326.75 1542.45 1326.61 1542.88 1326.55 1543.32L1326.14 1546.58C1326.08 1547.02 1326.11 1547.47 1326.23 1547.9C1326.35 1548.33 1326.55 1548.74 1326.82 1549.09C1327.1 1549.45 1327.44 1549.74 1327.83 1549.96C1328.21 1550.18 1328.64 1550.33 1329.09 1550.38L1337.4 1551.43C1337.85 1551.49 1338.3 1551.45 1338.73 1551.34C1339.16 1551.22 1339.56 1551.02 1339.91 1550.74C1340.27 1550.47 1340.56 1550.13 1340.78 1549.74C1341 1549.35 1341.15 1548.92 1341.2 1548.48L1341.31 1547.63L1343.17 1547.87C1343.34 1547.88 1343.52 1547.83 1343.65 1547.73C1343.79 1547.62 1343.88 1547.47 1343.91 1547.3V1547.05C1343.92 1546.88 1343.88 1546.72 1343.78 1546.58C1343.68 1546.45 1343.53 1546.35 1343.37 1546.32ZM1339.76 1548.3C1339.69 1548.81 1339.43 1549.28 1339.02 1549.59C1338.61 1549.91 1338.1 1550.05 1337.59 1549.99L1329.27 1548.93C1328.76 1548.87 1328.29 1548.6 1327.98 1548.2C1327.66 1547.79 1327.52 1547.27 1327.58 1546.76L1327.99 1543.5C1328.06 1542.99 1328.32 1542.53 1328.73 1542.21C1329.14 1541.89 1329.65 1541.75 1330.17 1541.82L1338.48 1542.86C1339 1542.93 1339.46 1543.2 1339.78 1543.61C1340.1 1544.01 1340.24 1544.53 1340.18 1545.05L1340.07 1545.9L1335.99 1545.39L1335.79 1546.94L1339.87 1547.45L1339.76 1548.3Z" fill="#5094B2"/>
<path d="M1580.14 1449.19C1586.56 1447.58 1593.32 1449.13 1599.61 1451.16C1604.97 1452.89 1610.34 1455.05 1614.51 1458.85C1621.39 1465.1 1623.95 1475.84 1620.09 1484.33C1618.73 1487.16 1616.75 1489.65 1614.29 1491.61C1611.83 1493.56 1608.96 1494.93 1605.89 1495.62C1598.88 1497.18 1595.19 1495.38 1591.51 1489.5C1584 1477.4 1580.06 1463.43 1580.14 1449.19V1449.19Z" fill="#376F92"/>
<path d="M1580.14 1449.19C1580.06 1463.42 1584 1477.39 1591.51 1489.47C1595.02 1495.11 1598.54 1497 1604.96 1495.81C1602.86 1493.01 1600.61 1490.42 1598.77 1487.41C1594.95 1481.17 1592.19 1474.34 1590.59 1467.2C1589.71 1463.26 1589.2 1459.25 1589.06 1455.21C1588.99 1453 1588.99 1450.66 1588.23 1448.63C1585.52 1448.37 1582.79 1448.56 1580.14 1449.19Z" fill="#6CA5C2"/>
<path d="M1519.01 1575.09C1517.69 1570.59 1518.42 1565.74 1519.69 1561.24C1522.3 1552.1 1527.13 1543.78 1531.92 1535.57C1532.67 1534.26 1533.49 1532.9 1534.79 1532.17C1536.41 1531.23 1538.42 1531.44 1540.23 1531.73C1547.6 1532.95 1554.72 1535.34 1561.33 1538.83C1562.22 1539.22 1563.01 1539.8 1563.64 1540.53C1565.07 1542.39 1564.32 1545.05 1563.48 1547.23C1558.52 1559.75 1551.18 1571.19 1541.88 1580.92C1538.39 1584.56 1533.12 1588.61 1527.9 1585.8C1524.27 1583.81 1520.16 1579.02 1519.01 1575.09Z" fill="#376F92"/>
<path d="M1540.36 1531.78C1538.52 1531.48 1536.5 1531.29 1534.89 1532.22C1533.58 1532.97 1532.77 1534.33 1532.01 1535.62C1531.18 1537.04 1530.35 1538.46 1529.54 1539.89C1533.62 1537.85 1538.64 1538.04 1543.07 1539.34C1548.05 1540.8 1552.55 1543.48 1557.29 1545.57C1559.47 1546.53 1562.2 1547.3 1564.08 1545.9C1564.66 1544.05 1564.9 1542.06 1563.76 1540.57C1563.13 1539.84 1562.34 1539.26 1561.45 1538.86C1554.85 1535.38 1547.72 1532.99 1540.36 1531.78V1531.78Z" fill="#6CA5C2"/>
<path d="M1552.48 1599.76L1645.52 1485.64C1646 1485.06 1646.35 1484.39 1646.56 1483.67C1646.77 1482.95 1646.83 1482.19 1646.74 1481.45C1646.65 1480.7 1646.42 1479.98 1646.04 1479.33C1645.67 1478.68 1645.17 1478.11 1644.58 1477.65L1620.36 1459.16C1617.52 1456.99 1614.46 1456.91 1613.84 1458.28C1610.94 1464.65 1602.41 1479.4 1588.06 1500.42C1565.78 1533.05 1534.13 1574.31 1527.01 1585.25C1526.45 1586.12 1527.58 1586.81 1529 1587.93C1532.83 1590.95 1540.08 1596.71 1544.5 1600.48C1545.07 1600.96 1545.73 1601.33 1546.44 1601.56C1547.15 1601.78 1547.9 1601.86 1548.64 1601.8C1549.38 1601.73 1550.11 1601.52 1550.76 1601.17C1551.42 1600.82 1552.01 1600.34 1552.48 1599.76V1599.76Z" fill="#FFAC41"/>
<path d="M1534.15 1591.84C1538.48 1586.92 1545.64 1578.41 1548.53 1574.54C1577.26 1536.17 1599.59 1503.02 1624.04 1461.78L1622.73 1460.78C1622.28 1461.33 1621.89 1461.93 1621.58 1462.57C1613.03 1478.02 1605.27 1488.66 1594.68 1505.79C1576.33 1535.52 1556.4 1565.28 1531.77 1589.93L1534.15 1591.84Z" fill="#EC5A29"/>
<path d="M1635.04 1470.18C1610.96 1508.13 1591.37 1537.71 1557.48 1578.16C1552.05 1584.63 1547.53 1591.85 1541.73 1597.98C1542.76 1598.82 1542.27 1598.48 1543.13 1599.21C1543.3 1599.36 1548.53 1593.18 1550.93 1590.15C1556.49 1583.14 1617.74 1506.53 1636.18 1471.05L1635.04 1470.18Z" fill="#EC5A29"/>
<path d="M1573.42 1448.94C1572.06 1448.41 1570.54 1447.74 1569.94 1446.39C1569.18 1444.7 1570.17 1442.73 1571.42 1441.35C1572.27 1440.42 1573.4 1439.55 1574.66 1439.69C1575.35 1439.81 1575.98 1440.12 1576.5 1440.59C1578.36 1442.14 1579.41 1444.43 1580.31 1446.66C1580.77 1447.81 1581.22 1448.95 1581.62 1450.11C1582.11 1451.56 1582 1451.82 1580.48 1451.37C1578.09 1450.66 1575.74 1449.83 1573.42 1448.94Z" fill="#5094B2"/>
<path d="M1573.22 1441.69L1544.59 1470.57L1551.21 1477.14L1579.84 1448.26L1573.22 1441.69Z" fill="#72AECC"/>
<path d="M1562.13 1458.81L1560.77 1460.1L1560.17 1459.47C1559.87 1459.15 1559.5 1458.89 1559.09 1458.71C1558.68 1458.52 1558.24 1458.43 1557.79 1458.42C1557.34 1458.4 1556.9 1458.48 1556.48 1458.64C1556.07 1458.8 1555.69 1459.05 1555.36 1459.36L1549.29 1465.13C1548.96 1465.44 1548.7 1465.81 1548.52 1466.22C1548.34 1466.63 1548.24 1467.07 1548.23 1467.52C1548.22 1467.96 1548.3 1468.41 1548.46 1468.83C1548.62 1469.24 1548.86 1469.62 1549.17 1469.95L1551.43 1472.33C1551.74 1472.65 1552.11 1472.91 1552.52 1473.09C1552.93 1473.27 1553.37 1473.37 1553.82 1473.38C1554.26 1473.39 1554.71 1473.32 1555.12 1473.16C1555.54 1472.99 1555.92 1472.75 1556.25 1472.44L1562.31 1466.66C1562.64 1466.36 1562.9 1465.99 1563.08 1465.58C1563.26 1465.17 1563.36 1464.73 1563.37 1464.28C1563.38 1463.84 1563.31 1463.39 1563.15 1462.97C1562.99 1462.56 1562.74 1462.17 1562.44 1461.85L1561.84 1461.23L1563.2 1459.93C1563.32 1459.81 1563.38 1459.64 1563.38 1459.47C1563.38 1459.3 1563.32 1459.14 1563.2 1459.01L1563.03 1458.83C1562.91 1458.72 1562.75 1458.65 1562.59 1458.65C1562.42 1458.64 1562.26 1458.7 1562.13 1458.81V1458.81ZM1561.39 1462.88C1561.73 1463.26 1561.92 1463.75 1561.91 1464.26C1561.89 1464.77 1561.68 1465.25 1561.32 1465.6L1555.25 1471.38C1555.06 1471.56 1554.84 1471.7 1554.61 1471.79C1554.37 1471.88 1554.11 1471.93 1553.86 1471.92C1553.6 1471.91 1553.35 1471.86 1553.12 1471.75C1552.88 1471.65 1552.67 1471.5 1552.49 1471.31L1550.23 1468.94C1550.06 1468.76 1549.92 1468.54 1549.82 1468.3C1549.73 1468.06 1549.69 1467.8 1549.69 1467.55C1549.7 1467.29 1549.76 1467.04 1549.86 1466.8C1549.97 1466.57 1550.11 1466.36 1550.3 1466.18L1556.37 1460.4C1556.55 1460.23 1556.77 1460.09 1557.01 1460C1557.25 1459.9 1557.51 1459.86 1557.76 1459.87C1558.02 1459.87 1558.27 1459.93 1558.5 1460.03C1558.74 1460.14 1558.95 1460.29 1559.13 1460.47L1559.72 1461.1L1556.76 1463.92L1557.84 1465.05L1560.79 1462.23L1561.39 1462.88Z" fill="#5094B2"/>
<path d="M1205.58 696.505C1205.13 697.283 1204.79 698.124 1204.58 699C1204.34 699.848 1204.31 700.742 1204.49 701.603C1204.71 702.427 1205.19 703.158 1205.85 703.69C1206.19 703.957 1206.56 704.185 1206.95 704.37L1207.55 704.628C1207.74 704.717 1207.97 704.751 1208.17 704.819C1209.86 705.28 1211.63 705.352 1213.35 705.029C1215.12 704.778 1216.86 704.408 1218.58 703.921C1222.04 702.942 1225.44 701.774 1228.77 700.42C1232.12 699.088 1235.41 697.642 1238.66 696.083C1241.91 694.524 1245.12 692.884 1248.29 691.161C1251.45 689.441 1254.54 687.592 1257.58 685.655C1260.63 683.717 1263.7 681.766 1266.72 679.788C1269.75 677.81 1272.8 675.859 1275.7 673.67C1274.38 674.921 1272.98 676.042 1271.52 677.157C1270.06 678.272 1268.65 679.367 1267.18 680.448C1264.26 682.587 1261.3 684.681 1258.3 686.729C1252.29 690.841 1245.97 694.467 1239.38 697.572C1232.8 700.658 1226.03 703.439 1218.91 705.165C1217.12 705.61 1215.3 705.921 1213.47 706.097C1212.54 706.185 1211.61 706.206 1210.68 706.158C1209.73 706.104 1208.8 705.907 1207.91 705.573C1207.7 705.485 1207.46 705.431 1207.23 705.322L1206.6 704.989C1206.18 704.765 1205.78 704.491 1205.43 704.173C1204.72 703.514 1204.24 702.647 1204.07 701.698C1203.93 700.768 1204.02 699.817 1204.34 698.932C1204.63 698.067 1205.05 697.25 1205.58 696.505V696.505Z" fill="#EC5A29"/>
<path d="M1164.06 1005.69C1156.73 1017.19 1156.45 1030.84 1148.78 1029.39C1139.36 1027.57 1127.24 1034.25 1126.36 1043.78C1125.48 1053.31 1127.54 1053.38 1127.54 1053.38C1126.23 1054.18 1123.27 1056.24 1121.22 1056.16C1121.22 1056.16 1116.93 1043.19 1123.12 1035.03C1129.31 1026.86 1148.53 1025.8 1152.59 1020.02C1156.64 1014.25 1164.06 1005.69 1164.06 1005.69Z" fill="#EC5A29"/>
<path d="M1268.44 1272.57C1271.33 1272.44 1274.22 1272.33 1277.1 1272.26C1279.99 1272.19 1282.89 1272.18 1285.78 1272.17C1291.56 1272.17 1297.34 1272.21 1303.12 1272.3C1308.89 1272.42 1314.67 1272.59 1320.45 1272.79C1326.23 1272.99 1331.93 1273.11 1337.67 1272.82C1343.4 1272.54 1349.13 1272.14 1354.83 1271.46C1360.53 1270.78 1366.22 1269.97 1371.88 1268.98C1377.54 1268 1383.19 1266.88 1388.81 1265.66C1394.44 1264.44 1400.04 1263.11 1405.64 1261.74C1416.85 1259.02 1428.01 1256.13 1439.13 1253.08C1450.25 1250.03 1461.35 1246.85 1472.42 1243.61C1477.96 1241.99 1483.44 1240.26 1488.96 1238.62L1493.11 1237.37C1493.44 1237.27 1493.79 1237.17 1494.11 1237.06L1495.14 1236.68L1497.18 1235.96C1499.9 1235.02 1502.7 1234.15 1505.5 1233.37C1511.09 1231.76 1516.83 1230.69 1522.63 1230.19C1525.55 1229.91 1528.48 1230.1 1531.34 1230.73C1532.78 1231.07 1534.13 1231.71 1535.3 1232.61C1536.45 1233.52 1537.27 1234.79 1537.63 1236.22C1537.19 1234.84 1536.32 1233.65 1535.15 1232.82C1533.96 1232.03 1532.63 1231.49 1531.23 1231.24C1528.41 1230.76 1525.54 1230.7 1522.71 1231.08C1517.02 1231.84 1511.41 1233.14 1505.97 1234.96C1503.25 1235.84 1500.53 1236.78 1497.82 1237.79L1495.78 1238.56L1494.79 1238.96C1494.4 1239.12 1494.11 1239.2 1493.74 1239.33L1489.62 1240.69L1481.38 1243.41C1478.66 1244.31 1475.88 1245.23 1473.12 1246.13C1462.12 1249.66 1451.03 1252.96 1439.92 1256.15C1428.8 1259.35 1417.6 1262.27 1406.36 1264.99C1395.13 1267.71 1383.79 1270.21 1372.34 1272.1C1360.88 1274.03 1349.3 1275.13 1337.69 1275.4C1331.89 1275.54 1326.06 1275.31 1320.28 1274.94C1314.5 1274.58 1308.73 1274.22 1303 1273.9C1291.53 1273.24 1280 1272.78 1268.44 1272.57Z" fill="#602005"/>
<path d="M1380.81 1040.64C1385.29 1057.13 1387.34 1074.31 1387.55 1091.47C1387.66 1100.06 1387.32 1108.65 1386.55 1117.21C1385.77 1125.76 1384.56 1134.27 1383.04 1142.72C1381.53 1151.17 1379.55 1159.54 1377.29 1167.81C1375.03 1176.09 1372.4 1184.27 1369.38 1192.29C1366.36 1200.31 1363.51 1208.32 1359.99 1216.16C1356.46 1224.01 1352.2 1231.61 1346.4 1237.92C1351.43 1231 1355.01 1223.26 1357.95 1215.33C1359.45 1211.38 1360.81 1207.35 1362.11 1203.31L1366.07 1191.15C1368.67 1183.07 1371.12 1174.95 1373.18 1166.73C1375.24 1158.51 1377.15 1150.25 1378.61 1141.92C1380.07 1133.59 1381.4 1125.21 1382.31 1116.77C1383.22 1108.32 1383.78 1099.9 1384.04 1091.43C1384.51 1074.44 1383.43 1057.44 1380.81 1040.64V1040.64Z" fill="#F28D23"/>
<path d="M1398.88 1175.02C1400.08 1180.33 1400.48 1185.79 1400.08 1191.21C1399.33 1202.17 1395.94 1212.78 1390.2 1222.14C1387.38 1226.79 1383.88 1230.99 1379.82 1234.61C1382.45 1229.85 1384.93 1225.24 1387.1 1220.47C1391.46 1210.99 1394.65 1201.02 1396.62 1190.77C1397.62 1185.62 1398.3 1180.4 1398.88 1175.02Z" fill="#F28D23"/>
<path d="M1182.48 625.851C1186.46 625.851 1189.69 622.619 1189.69 618.632C1189.69 614.644 1186.46 611.412 1182.48 611.412C1178.49 611.412 1175.26 614.644 1175.26 618.632C1175.26 622.619 1178.49 625.851 1182.48 625.851Z" fill="#EC5A29"/>
<path d="M1180.38 625.851C1184.37 625.851 1187.6 622.619 1187.6 618.632C1187.6 614.644 1184.37 611.412 1180.38 611.412C1176.39 611.412 1173.16 614.644 1173.16 618.632C1173.16 622.619 1176.39 625.851 1180.38 625.851Z" fill="#FFAB3E"/>
<path d="M1224.51 580.842C1226.69 580.842 1228.45 578.1 1228.45 574.717C1228.45 571.334 1226.69 568.592 1224.51 568.592C1222.34 568.592 1220.58 571.334 1220.58 574.717C1220.58 578.1 1222.34 580.842 1224.51 580.842Z" fill="#3F0808"/>
<path d="M1270.81 579.094C1272.99 579.094 1274.75 576.352 1274.75 572.969C1274.75 569.586 1272.99 566.844 1270.81 566.844C1268.64 566.844 1266.88 569.586 1266.88 572.969C1266.88 576.352 1268.64 579.094 1270.81 579.094Z" fill="#3F0808"/>
<path d="M1207.88 561.597C1209.19 559.393 1211.07 557.584 1213.32 556.363C1215.53 555.137 1217.9 554.203 1220.35 553.582C1222.79 552.917 1225.3 552.536 1227.83 552.447C1229.09 552.409 1230.36 552.485 1231.62 552.671C1232.87 552.843 1234.09 553.239 1235.2 553.84C1232.8 553.55 1230.36 553.646 1227.99 554.126C1225.62 554.531 1223.27 555.066 1220.96 555.73C1218.66 556.369 1216.39 557.129 1214.17 558.008C1211.92 558.908 1209.8 560.116 1207.88 561.597V561.597Z" fill="#600E0E"/>
<path d="M1260.95 551.643C1262.5 550.912 1264.15 550.428 1265.85 550.209C1267.58 549.958 1269.35 550.006 1271.06 550.352C1272.83 550.7 1274.49 551.475 1275.89 552.609C1277.27 553.723 1278.28 555.235 1278.77 556.939C1277.62 555.806 1276.32 554.836 1274.9 554.057C1273.55 553.351 1272.1 552.84 1270.6 552.541C1269.05 552.236 1267.49 552.041 1265.91 551.956C1264.3 551.84 1262.66 551.813 1260.95 551.643Z" fill="#600E0E"/>
<path d="M1256.36 583.105C1256.36 583.105 1258.16 590.325 1254.55 593.527C1250.95 596.729 1244.14 595.403 1244.14 595.403C1244.14 595.403 1249.7 599.197 1255.22 595.981C1259 593.778 1259.11 589.666 1256.36 583.105Z" fill="#EC5A29"/>
<g opacity="0.35">
<path d="M1213.2 585.362C1212.24 585.677 1211.36 586.208 1210.64 586.916C1209.92 587.623 1209.37 588.487 1209.04 589.441C1208.85 589.993 1208.81 590.583 1208.92 591.156C1209.02 591.729 1209.28 592.264 1209.65 592.711C1210.35 593.398 1211.21 593.906 1212.14 594.193C1214.7 595.093 1217.44 595.353 1220.11 594.947C1223.1 594.499 1224.66 593.037 1224.62 590.624C1224.64 589.562 1224.46 588.506 1224.09 587.51C1223.65 586.431 1222.83 585.548 1221.79 585.022C1219.71 584.016 1215.94 584.329 1213.2 585.362Z" fill="#F73943"/>
</g>
<g opacity="0.35">
<path d="M1281.82 592.69C1279.5 592.828 1277.17 592.516 1274.96 591.773C1273.98 591.494 1273.08 590.986 1272.34 590.291C1271.95 589.855 1271.68 589.322 1271.57 588.748C1271.45 588.174 1271.5 587.58 1271.69 587.028C1272.06 586.059 1272.65 585.188 1273.41 584.481C1274.16 583.774 1275.07 583.25 1276.07 582.949C1277.79 582.354 1279.59 582.035 1281.41 582.004C1281.6 585.607 1281.74 589.189 1281.82 592.69Z" fill="#F73943"/>
</g>
<path d="M1227.3 610.379C1227.3 610.379 1227.37 610.59 1227.53 610.957C1227.96 611.94 1228.45 612.897 1228.99 613.826C1231.5 618.156 1240.29 625.654 1249.33 625.076C1256.92 624.587 1260.82 621.426 1266.2 615.403C1267.14 614.363 1268.13 613.241 1269.21 612.044L1227.3 610.379Z" fill="#F73943"/>
<path d="M1227.3 610.379C1227.3 610.379 1227.37 610.59 1227.53 610.957C1228.21 612.316 1228.83 613.547 1228.99 613.826C1229.29 614.342 1266.19 615.375 1266.19 615.375C1267.13 614.335 1268.11 613.214 1269.19 612.017L1227.3 610.379Z" fill="white"/>
<path d="M1227.33 610.407C1227.43 610.597 1227.52 610.761 1227.6 610.93C1228.08 611.898 1228.6 612.84 1229.17 613.752C1229.76 614.646 1230.44 615.471 1231.21 616.213C1232.74 617.709 1234.42 619.042 1236.23 620.189C1238.03 621.342 1239.93 622.314 1241.92 623.092C1243.89 623.899 1245.97 624.434 1248.08 624.683C1250.21 624.931 1252.36 624.76 1254.42 624.18C1255.45 623.867 1256.44 623.452 1257.39 622.943C1258.32 622.42 1259.22 621.824 1260.06 621.162C1263.46 618.503 1266.08 615.043 1268.96 611.807L1269.22 612.412C1265.74 612.324 1262.29 612.195 1258.84 612.079C1255.4 611.964 1251.94 611.794 1248.46 611.617L1227.33 610.407ZM1227.26 610.359L1237.57 610.563L1248.06 610.815C1251.58 610.91 1255.11 611.035 1258.64 611.189C1262.18 611.352 1265.71 611.495 1269.22 611.685L1270 611.726L1269.48 612.297C1266.56 615.458 1263.69 618.762 1260.23 621.406C1258.5 622.739 1256.56 623.775 1254.49 624.472C1252.4 625.127 1250.2 625.39 1248.02 625.247C1243.61 624.982 1239.43 623.208 1235.79 620.788C1233.95 619.6 1232.27 618.189 1230.78 616.586C1230.02 615.788 1229.36 614.905 1228.8 613.956C1228.29 612.995 1227.84 612.005 1227.44 610.992C1227.39 610.774 1227.33 610.55 1227.26 610.359V610.359Z" fill="#DF431B"/>
<path d="M1171.76 599.244C1172.11 600.055 1172.63 600.786 1173.27 601.394C1173.91 602.003 1174.67 602.476 1175.5 602.786C1177.01 603.272 1178.61 603.393 1180.18 603.139C1180.69 603.128 1181.19 602.951 1181.6 602.636C1183.42 601.032 1183.44 594.723 1182.88 592.296C1182.2 589.489 1180.23 586.702 1178.08 585.906C1172.71 583.914 1169.22 593.595 1171.76 599.244Z" fill="#EC5A29"/>
<path d="M153.286 123.957L151.54 125.412C129.742 143.61 108.413 163.943 96.8205 190.347C70.5787 250.17 106.13 314.031 157.893 342.896C224.863 380.245 306.986 368.871 355.624 305.921C411.797 233.182 421.16 101.163 323.083 61.9858C264.878 38.7364 197.031 87.6281 153.286 123.957Z" fill="#FFEACB"/>
<path d="M381.014 123.894C380.307 120.058 376.625 117.521 372.789 118.228C368.953 118.935 366.417 122.617 367.123 126.453L398.246 295.362C398.953 299.198 402.635 301.735 406.471 301.028C410.307 300.321 412.843 296.639 412.137 292.803L381.014 123.894Z" fill="#F49EB5"/>
<path d="M464.229 350.113L405.645 344.543L431.52 161.25L473.377 165.231L464.229 350.113Z" fill="#F49EB5"/>
<path d="M462.432 176.114L438.406 173.826L427.3 290.448L451.326 292.736L462.432 176.114Z" fill="#FCC7A2"/>
<path d="M474.294 168.292L430.504 164.12L437.126 139.469L472.437 142.818L474.294 168.292Z" fill="#FFDCC2"/>
<path d="M480.229 382.514H371.922L358.965 227.719H493.186L480.229 382.514Z" fill="#FFDCC2"/>
<path d="M541.039 711.286H453.766C452.566 711.288 451.378 711.044 450.276 710.569C449.173 710.095 448.18 709.399 447.357 708.526C446.534 707.653 445.898 706.62 445.49 705.492C445.081 704.363 444.908 703.163 444.981 701.965L453.345 564.758C453.472 562.521 454.451 560.417 456.082 558.879C457.712 557.342 459.869 556.487 462.111 556.49H532.695C534.936 556.487 537.093 557.342 538.723 558.879C540.354 560.417 541.333 562.521 541.46 564.758L549.824 701.965C549.897 703.163 549.724 704.363 549.316 705.492C548.907 706.62 548.272 707.653 547.448 708.526C546.625 709.399 545.632 710.095 544.53 710.569C543.427 711.044 542.239 711.288 541.039 711.286Z" fill="url(#paint0_linear_3668_22925)"/>
<path d="M483.814 537.85H516.159C518.951 537.85 521.628 538.959 523.602 540.933C525.576 542.907 526.685 545.584 526.685 548.376V556.548H470.168V551.438C470.178 547.827 471.621 544.368 474.179 541.821C476.738 539.273 480.203 537.845 483.814 537.85V537.85Z" fill="#515151"/>
<path d="M503.28 515.725H493.863V542.806H503.28V515.725Z" fill="#515151"/>
<path d="M514.186 508.949H468.559V517.485H514.186V508.949Z" fill="#515151"/>
<path d="M526.685 698.061H470.168L475.029 573.562H521.824L526.685 698.061Z" fill="#FFEDCD"/>
<path d="M346.595 481.949H303.801V574.888H346.595V481.949Z" fill="#FFB8CB"/>
<path d="M355.401 549.893H294.463C285.351 549.893 277.965 557.279 277.965 566.39V695.138C277.965 704.249 285.351 711.635 294.463 711.635H355.401C364.512 711.635 371.899 704.249 371.899 695.138V566.39C371.899 557.279 364.512 549.893 355.401 549.893Z" fill="#F49EB5"/>
<path d="M356.242 577.205H289.18V686.603H356.242V577.205Z" fill="white"/>
<path d="M207.529 610.49H86.8203V712.424H207.529V610.49Z" fill="#FFEDCD"/>
<path d="M212.239 590.949H80.9648V626.031H212.239V590.949Z" fill="url(#paint1_linear_3668_22925)"/>
<path d="M194.013 631.949H99.9648V698.648H194.013V631.949Z" fill="url(#paint2_linear_3668_22925)"/>
<path d="M57.5137 214.859H71.3438V186.179H57.5137V214.859Z" fill="#FFB8CB"/>
<path d="M49.043 237.459H80.543V210.139H49.043V237.459Z" fill="#515151"/>
<path d="M43.5333 383.229H86.0433C92.4332 383.229 97.6133 378.048 97.6133 371.659L97.6133 238.349C97.6133 231.959 92.4332 226.779 86.0433 226.779H43.5333C37.1433 226.779 31.9633 231.959 31.9633 238.349L31.9633 371.659C31.9633 378.048 37.1433 383.229 43.5333 383.229Z" fill="#F49EB5"/>
<path d="M49.0428 189.488H93.6328V184.948H49.0428V189.488Z" fill="#515151"/>
<path d="M41.3647 359.6H87.5547L87.5547 254.42H41.3647L41.3647 359.6Z" fill="white"/>
<path d="M204.571 370.936L205.736 382.343C205.736 382.343 220.488 386.967 232.939 380.082L233.691 365.493C233.691 365.493 216.997 367.29 216.067 367.565C215.136 367.839 204.571 370.936 204.571 370.936Z" fill="#515151"/>
<path d="M194.51 286.334C194.51 286.334 192.317 276.18 194.389 276.027C196.46 275.875 236.71 266.313 239.12 266.603C241.531 266.893 239.816 277.867 239.77 278.381C239.723 278.895 194.51 286.334 194.51 286.334Z" fill="#515151"/>
<path d="M204.567 370.937C204.567 370.937 192.436 285.476 194.827 284.427C197.217 283.378 233.479 275.107 238.717 276.638C243.954 278.168 233.336 368.933 233.336 368.933C233.336 368.933 218.599 376.868 204.567 370.937Z" fill="url(#paint3_linear_3668_22925)"/>
<path d="M199.174 299.262C199.174 299.262 229.896 295.89 233.217 296.755C236.537 297.621 234.76 348.275 233.826 351.47C232.892 354.665 209.882 355.48 206.851 354.82C203.821 354.161 197.64 299.433 199.174 299.262Z" fill="#515151"/>
<path d="M314.592 311.389H293.062V321.299H314.592V311.389Z" fill="#FFB8CB"/>
<path d="M309.263 300.389C309.263 297.385 306.827 294.949 303.823 294.949C300.818 294.949 298.383 297.385 298.383 300.389V310.899C298.383 313.904 300.818 316.339 303.823 316.339C306.827 316.339 309.263 313.904 309.263 310.899V300.389Z" fill="#FFB8CB"/>
<path d="M314.515 318.818H293.135C289.727 318.818 286.965 321.581 286.965 324.988V377.158C286.965 380.566 289.727 383.328 293.135 383.328H314.515C317.922 383.328 320.685 380.566 320.685 377.158V324.988C320.685 321.581 317.922 318.818 314.515 318.818Z" fill="#F49EB5"/>
<path d="M315.836 328.178H291.836V375.968H315.836V328.178Z" fill="white"/>
<path d="M589.846 380.72H521.846C516.701 372.754 513.965 363.473 513.965 353.99C513.965 344.507 516.701 335.226 521.846 327.26H589.846C594.426 335.424 596.832 344.628 596.832 353.99C596.832 363.351 594.426 372.555 589.846 380.72V380.72Z" fill="url(#paint4_linear_3668_22925)"/>
<path d="M591.896 317.949H518.836V331.719H591.896V317.949Z" fill="#515151"/>
<path d="M555.366 376.09C567.533 376.09 577.396 367.247 577.396 356.34C577.396 345.432 567.533 336.59 555.366 336.59C543.199 336.59 533.336 345.432 533.336 356.34C533.336 367.247 543.199 376.09 555.366 376.09Z" fill="white"/>
<defs>
<linearGradient id="paint0_linear_3668_22925" x1="532.258" y1="711.286" x2="447.551" y2="703.348" gradientUnits="userSpaceOnUse">
<stop stop-color="#F1D094"/>
<stop offset="1" stop-color="#D3A966"/>
</linearGradient>
<linearGradient id="paint1_linear_3668_22925" x1="190.231" y1="626.031" x2="105.869" y2="582.369" gradientUnits="userSpaceOnUse">
<stop stop-color="#F1D094"/>
<stop offset="1" stop-color="#D3A966"/>
</linearGradient>
<linearGradient id="paint2_linear_3668_22925" x1="178.246" y1="698.648" x2="104.425" y2="684.251" gradientUnits="userSpaceOnUse">
<stop stop-color="#F1D094"/>
<stop offset="1" stop-color="#D3A966"/>
</linearGradient>
<linearGradient id="paint3_linear_3668_22925" x1="254.272" y1="363.377" x2="206.651" y2="372.918" gradientUnits="userSpaceOnUse">
<stop stop-color="#F1D094"/>
<stop offset="1" stop-color="#D3A966"/>
</linearGradient>
<linearGradient id="paint4_linear_3668_22925" x1="524.689" y1="327.26" x2="596.833" y2="353.594" gradientUnits="userSpaceOnUse">
<stop stop-color="#D6AC68"/>
<stop offset="1" stop-color="#A67A4A"/>
</linearGradient>
</defs>
</svg>
