<svg width="468" height="353" viewBox="0 0 468 353" fill="none" xmlns="http://www.w3.org/2000/svg">
<path d="M1.18682e-07 0.000177041H468V352H1.18682e-07V0.000177041Z" fill="white"/>
<path d="M130.884 292.066C127.879 291.437 124.858 290.849 121.823 290.304C103.14 286.995 85.6472 291.86 71.7548 302.606C63.4341 309.041 60.428 318.816 66.2008 327.157C72.0368 335.591 83.393 338.52 94.3527 340.416C171.636 353.78 254.432 358.083 331.297 340.685C341.665 338.335 352.151 336.105 361.999 332C366.883 329.963 371.606 327.459 375.816 324.233C378.374 322.272 386.109 316.51 382.203 312.817C381.195 311.865 379.789 311.473 378.421 311.238C352.988 306.853 328.099 308.614 302.567 310.797C289.089 311.949 275.516 312.352 261.992 312.236C234.999 312.004 207.975 309.411 181.528 303.941C164.499 300.419 147.897 295.624 130.884 292.066Z" fill="#FFEDCD"/>
<path d="M100.411 292.387C100.411 292.387 95.0124 297.29 100.411 300.61C105.809 303.931 126.474 313.002 133.842 311.011C141.21 309.019 158.317 307.15 160.164 311.293C162.012 315.435 127.269 334.466 124.612 334.244C121.956 334.023 130.983 343.759 138.975 341.104C146.966 338.449 172.634 331.589 173.297 326.057C173.961 320.525 178.584 315.418 187.78 316.976C196.976 318.534 215.562 321.631 214.897 326.279C214.231 330.927 210.518 335.177 217.907 338.027C225.297 340.878 241.637 348.632 259.579 342.874C277.52 337.115 323.431 314.175 323.431 314.175C323.431 314.175 154.706 276.494 137.888 280.252C121.07 284.01 100.411 292.387 100.411 292.387Z" fill="#F2B597"/>
<path d="M417.799 225.178C417.03 235.017 412.526 244.433 405.875 252.09C394.323 265.389 376.315 273.669 359.368 279.326C344.581 284.262 329.126 288.015 313.37 290.598C282.531 295.658 250.536 296.229 220.118 292.392C219.179 292.272 218.241 292.149 217.305 292.023C181.564 287.177 145.135 278.482 111.363 266.143C95.5561 260.367 80.1849 253.483 65.7579 245.109C38.4636 229.271 16.6396 206.712 5.74599 178.19C4.55385 175.07 3.54472 171.883 2.72374 168.645C1.94278 165.561 1.3295 162.437 0.886591 159.287C-3.14308 130.677 6.74606 100.474 26.8386 78.5176C39.59 64.5812 55.7894 53.714 73.1564 45.3389C167.379 -0.112434 351.818 -24.4755 368.89 68.7284V68.7533C372.99 91.1882 362.973 106.596 367.264 128.996C370.335 145.035 376.298 158.251 386.813 171.116C400.761 188.177 419.672 201.255 417.799 225.178Z" fill="#FCF5EA"/>
<path d="M220.112 292.388C219.173 292.268 218.236 292.145 217.3 292.019C181.558 287.173 145.13 278.478 111.358 266.139C95.5503 260.363 80.1791 253.479 65.7522 245.105C38.4579 229.267 16.6339 206.709 5.74026 178.187C4.54813 175.066 3.53899 171.879 2.71801 168.641C1.93705 165.557 1.32376 162.434 0.880859 159.283C36.0216 126.3 87.4822 78.7502 87.4822 78.7502C87.4822 78.7502 174.58 206.57 187.784 208.393C196.794 209.635 211.618 260.354 220.112 292.388Z" fill="#FFEDCD"/>
<path d="M392.673 96.6067C388.172 103.454 385.086 111.229 383.991 119.271C381.087 140.613 393.649 162.485 414.851 168.389C442.044 175.962 471.592 148.857 467.643 121.7C465.44 106.574 455.706 93.4258 444.031 83.5543C438.949 79.2588 433.113 75.3216 426.486 74.7195C419.505 74.0851 412.693 77.2777 407.041 81.4234C401.389 85.5923 396.524 90.7335 392.673 96.6067Z" fill="#FFEDCD"/>
<path d="M187.78 28.4057V193.06C187.78 193.787 187.636 194.507 187.358 195.179C187.08 195.851 186.671 196.461 186.157 196.975C185.643 197.49 185.032 197.897 184.36 198.175C183.688 198.454 182.968 198.597 182.241 198.596H69.8137C68.3454 198.596 66.9372 198.013 65.8989 196.975C64.8606 195.937 64.2773 194.528 64.2773 193.06V28.4057C64.2773 26.9374 64.8606 25.5292 65.8989 24.4909C66.9372 23.4526 68.3454 22.8693 69.8137 22.8693H182.235C182.963 22.8684 183.683 23.0108 184.356 23.2886C185.029 23.5664 185.64 23.974 186.155 24.4882C186.67 25.0024 187.079 25.613 187.357 26.2852C187.636 26.9574 187.78 27.678 187.78 28.4057Z" fill="#A67A4A"/>
<path d="M182.807 30.4949C181.879 29.7429 180.72 29.3337 179.526 29.3362H75.0746C73.69 29.3362 72.3621 29.8863 71.383 30.8653C70.404 31.8444 69.8539 33.1723 69.8539 34.5569V192.034C69.8535 192.542 69.9272 193.046 70.0728 193.532C69.4663 193.044 68.9771 192.425 68.6414 191.722C68.3056 191.02 68.1319 190.251 68.1328 189.472V31.9943C68.1332 30.6098 68.6834 29.2821 69.6623 28.3031C70.6413 27.3242 71.969 26.774 73.3535 26.7736H177.803C178.927 26.7738 180.02 27.1358 180.921 27.8061C181.822 28.4764 182.483 29.4193 182.807 30.4949Z" fill="#515151"/>
<path d="M183.025 32.2242V189.7C183.025 191.085 182.475 192.413 181.496 193.393C180.516 194.372 179.188 194.922 177.803 194.922H73.353C72.1584 194.924 70.9997 194.514 70.0723 193.761C69.9267 193.275 69.853 192.77 69.8535 192.263V34.7853C69.8535 33.4007 70.4036 32.0728 71.3826 31.0937C72.3617 30.1147 73.6896 29.5646 75.0742 29.5646H179.526C180.72 29.5628 181.878 29.972 182.806 30.7233C182.952 31.2103 183.026 31.7159 183.025 32.2242Z" fill="white"/>
<path d="M187.78 28.4057V193.06C187.78 193.787 187.636 194.507 187.358 195.179C187.08 195.851 186.671 196.461 186.157 196.975C185.643 197.49 185.032 197.897 184.36 198.175C183.688 198.454 182.968 198.597 182.241 198.596H69.8137C68.3454 198.596 66.9372 198.013 65.8989 196.975C64.8606 195.937 64.2773 194.528 64.2773 193.06V169.45L178.53 22.8693H182.238C182.965 22.8687 183.686 23.0115 184.358 23.2895C185.03 23.5674 185.641 23.9751 186.156 24.4893C186.671 25.0034 187.079 25.6132 187.357 26.2852C187.636 26.9574 187.78 27.678 187.78 28.4057Z" fill="#F9D8AD"/>
<path d="M417.799 225.178C417.03 235.017 412.526 244.433 405.875 252.09C394.323 265.389 376.315 273.669 359.368 279.326C354.617 280.912 349.802 282.374 344.923 283.715C342.629 284.348 340.323 284.953 338.006 285.528C329.913 287.546 321.683 289.236 313.37 290.598C309.9 289.637 306.256 288.768 302.403 288.078C259.883 280.453 264.41 202.432 264.41 202.432L304.219 72.1375L362.309 65.0959C362.309 65.0959 364.744 66.3405 368.89 68.7284V68.7533C369.223 70.5787 369.462 72.3563 369.624 74.098C371.455 93.7427 363.322 108.419 367.264 128.996C370.335 145.035 376.298 158.251 386.813 171.116C400.761 188.177 419.672 201.255 417.799 225.178Z" fill="white"/>
<path d="M315.826 144.762C315.826 144.762 317.353 143.107 291.027 141.951C272.943 141.156 226.176 140.747 209.41 140.629C208.612 140.623 207.822 140.774 207.084 141.076C206.346 141.377 205.675 141.822 205.11 142.384C204.546 142.947 204.098 143.616 203.794 144.353C203.49 145.09 203.335 145.88 203.339 146.677C203.399 163.346 203.538 209.118 203.315 218.722C203.042 230.514 292.513 322.718 292.513 322.718H298.541C298.541 322.718 306.661 248.646 309.408 229.723C312.156 210.799 315.826 144.762 315.826 144.762Z" fill="#E63E09"/>
<path d="M250.496 119.322C250.496 119.322 236.707 133.567 243.525 144.141C250.344 154.714 269.035 152.108 271.868 148.278C274.701 144.448 280.239 131.977 278.151 127.101C276.062 122.226 250.496 119.322 250.496 119.322Z" fill="#763019"/>
<path d="M265.589 142.881C264.121 145.386 262.83 148.327 262.83 149.505C262.83 150.355 263.939 151.166 265.131 151.792C266.058 152.266 267.019 152.669 268.008 152.996C268.008 152.996 262.984 160.384 256.931 163.6C250.877 166.816 241.457 165.976 236.401 163.218C231.344 160.46 241.609 147.211 243.219 146.135C244.285 145.423 245.061 145.956 246.037 146.194C246.597 146.348 247.19 146.327 247.738 146.135C248.124 145.974 248.459 145.712 248.707 145.376C250.148 143.613 251.096 139.66 251.032 139.471C251.032 139.471 270.032 137.401 268.008 139.471C267.283 140.205 266.41 141.477 265.592 142.879L265.589 142.881Z" fill="#FFA188"/>
<path d="M247.433 116.488C247.433 116.488 230.349 134.415 243.525 144.144C243.525 144.144 245.747 126.677 248.581 123.076C251.416 119.475 247.433 116.488 247.433 116.488Z" fill="#702B1B"/>
<path d="M268.008 152.996C268.008 152.996 262.984 160.384 256.931 163.6C250.877 166.816 241.457 165.976 236.401 163.218C231.344 160.46 241.609 147.211 243.219 146.135C244.285 145.423 245.061 145.956 246.037 146.194C244.322 148.78 237.897 158.888 240.919 160.879C244.392 163.165 260.263 159.582 263.643 154.282C264.213 153.391 264.701 152.552 265.131 151.786C266.058 152.262 267.019 152.667 268.008 152.996Z" fill="#EC5A29"/>
<path d="M268.008 139.471C267.283 140.205 266.41 141.477 265.592 142.879C265.476 142.942 261.727 144.994 255.828 146.007C251.98 146.668 249.832 145.979 248.71 145.374C250.151 143.612 251.099 139.659 251.035 139.469C251.032 139.471 270.032 137.401 268.008 139.471Z" fill="#EC5A29"/>
<path d="M216.983 266.374C213.342 292.074 165.261 304.678 165.261 304.678L126.894 308.924L103.036 223.23C103.036 223.23 102.362 218.556 113.985 214.78C118.244 213.401 124.133 212.137 132.307 211.276C162.833 208.045 203.428 202.6 203.428 202.6C203.428 202.6 219.312 198.106 219.447 235.578C219.475 243.709 218.761 253.815 216.983 266.374Z" fill="#FF5823"/>
<path d="M219.447 235.578C219.475 243.709 218.761 253.815 216.983 266.374C213.342 292.074 165.261 304.678 165.261 304.678L126.894 308.924L103.036 223.23C103.036 223.23 102.362 218.556 113.985 214.78C114.795 215.423 115.538 216.144 116.205 216.934C116.205 216.934 126.5 214.949 136.339 232.42C146.178 249.891 178.599 238.78 177.922 237.107C177.485 236.012 202.299 235.679 219.447 235.578Z" fill="#CD2D35"/>
<path d="M126.894 308.924L100.411 298.613V232.382C100.411 232.382 100.998 215.267 116.205 216.933C131.065 218.558 128.725 240.037 128.725 240.037L126.894 308.924Z" fill="#DC3A06"/>
<path d="M323.431 314.175L298.536 322.712L296.461 161.305C296.461 161.305 297.041 141.88 312.257 143.77C327.115 145.615 324.774 169.994 324.774 169.994L323.431 314.175Z" fill="#FF5823"/>
<path d="M208.8 234.233C208.8 234.233 191.912 247.927 179.745 243.21C167.578 238.493 156.557 197.282 156.557 197.282C156.557 197.282 168.574 191.192 167.776 182.618C167.709 181.884 168.017 181.527 168.571 181.443C170.154 181.216 173.728 183.251 176.146 185.149C176.684 185.572 177.119 186.112 177.419 186.727C177.718 187.343 177.874 188.019 177.874 188.704L208.8 217.49C208.8 217.49 214.894 220.229 216.983 221.749C219.071 223.269 208.8 234.233 208.8 234.233Z" fill="#F49EB5"/>
<path d="M208.8 234.231C208.8 234.231 191.912 247.925 179.745 243.208C167.578 238.491 156.557 197.28 156.557 197.28C156.557 197.28 168.574 191.19 167.776 182.616C167.709 181.882 168.017 181.525 168.571 181.442C168.571 181.442 171.223 183.574 170.982 186.938C170.741 190.303 169.06 192.87 167.857 195.034C166.654 197.199 174.172 219.969 184.17 223.938C191.311 226.775 201.074 223.224 203.822 220.796C206.248 218.653 206.487 215.335 206.487 215.335L208.8 217.488C208.8 217.488 214.894 220.227 216.983 221.747C219.071 223.267 208.8 234.231 208.8 234.231Z" fill="#515151"/>
<path d="M222.449 262.466C221.688 262.722 220.844 262.96 219.907 263.179L221.353 317.924L221.462 322.066L170.263 309.777L154.146 305.91V251.709C154.146 251.709 155.479 247.779 168.298 247.668C181.117 247.556 228.471 253.35 228.471 253.35C228.471 253.35 232.028 259.247 222.449 262.466Z" fill="#D03200"/>
<path d="M222.449 262.466C216.359 262.246 210.004 264.916 206.401 269.157C201.076 275.423 181.155 303.85 181.356 308.097C181.534 311.889 214.306 316.892 221.353 317.924L221.462 322.066L170.263 309.777C175.972 300.706 194.478 268.343 194.304 262.873C194.102 256.483 183.989 258.745 173.27 266.562C165.781 272.019 158.099 274.132 154.146 274.908V251.709C154.146 251.709 155.479 247.779 168.298 247.668C181.117 247.556 228.471 253.35 228.471 253.35C228.471 253.35 232.028 259.247 222.449 262.466Z" fill="#A30823"/>
<path d="M165.214 196.156C165.214 196.156 168.738 202.448 170.051 208.906C171.364 215.365 173.734 224.582 181.359 226.928C191.874 230.159 217.912 222.448 217.912 222.448L184.174 247.119C184.174 247.119 172.937 249.561 170.966 244.201C168.995 238.841 162.943 205.338 162.742 202.439C162.541 199.54 165.214 196.156 165.214 196.156Z" fill="#515151"/>
<path d="M226.197 255.673C215.699 260.539 203.999 260.263 204.801 257.938C205.603 255.613 206.403 249.043 203.315 239.434C200.226 229.826 190.055 231.099 190.055 231.099C189.654 229.177 193.259 229.577 196.465 228.215C199.671 226.852 201.354 227.655 201.674 227.733C201.994 227.811 213.838 224.25 213.838 224.25L224.354 222.928C224.354 222.928 231.005 224.211 239.019 226.134C243.39 227.182 244.185 229.16 244.395 231.628C244.569 233.684 244.337 236.077 245.423 238.555C247.833 244.001 236.694 250.813 226.197 255.673Z" fill="#F49EB5"/>
<path d="M226.197 255.673C215.699 260.539 203.999 260.263 204.801 257.938C205.603 255.613 206.403 249.043 203.315 239.434C200.226 229.826 190.055 231.099 190.055 231.099C190.055 231.099 191.693 229.395 196.436 231.043C201.18 232.69 203.945 236.591 205.956 240.882C208.467 246.239 211.473 247.506 216.983 244.202C221.682 241.383 239.333 233.79 244.396 231.63C244.569 233.686 244.337 236.08 245.424 238.557C247.834 244.001 236.694 250.813 226.197 255.673Z" fill="#515151"/>
<path d="M171.233 260.528C167.561 263.445 163.89 266.131 160.421 268.191C154.694 271.603 149.539 273.305 145.921 271.52C140.116 268.657 143.211 265.56 148.011 262.54C148.886 261.964 149.716 261.322 150.492 260.618C155.999 255.751 164.46 245.122 161.947 240.092C161.166 238.531 159.925 236.104 158.521 233.382C156.888 230.212 155.035 226.642 153.435 223.568C153.201 223.119 152.974 222.682 152.754 222.257C150.885 218.668 149.509 216.033 149.509 216.033C145.341 208.821 138.447 193.914 139.01 185.9C139.572 177.886 144.297 175.482 149.989 174.445C155.246 173.482 162.076 176.215 166.688 181.314C167.066 181.734 167.432 182.169 167.779 182.619C167.779 182.619 170.984 184.622 169.783 189.272C168.582 193.921 165.216 196.162 165.216 196.162C165.272 196.374 167.685 205.489 169.466 213.603C169.708 214.701 169.939 215.783 170.149 216.82C170.337 217.745 170.51 218.638 170.663 219.478C171.078 221.766 171.484 223.9 171.857 225.811C172.927 231.262 173.737 234.891 173.789 235.062C175.699 241.22 180.368 243.966 181.144 245.902C181.919 247.837 180.982 252.788 171.233 260.528Z" fill="#FFA188"/>
<path d="M171.856 225.81C168.26 228.924 162.858 232.945 158.519 233.382C156.886 230.211 155.033 226.641 153.433 223.567C153.199 223.118 152.972 222.681 152.752 222.256C155.213 223.933 159.457 225.448 164.06 220.98C166.76 218.361 168.43 215.791 169.461 213.602C169.703 214.7 169.934 215.783 170.144 216.819C170.332 217.745 170.505 218.637 170.658 219.477C171.078 221.765 171.483 223.899 171.856 225.81Z" fill="#EC5A29"/>
<path d="M169.78 189.267C168.577 193.914 165.213 196.157 165.213 196.157C163.127 190.709 156.739 187.963 156.739 187.963C161.469 187.963 165.213 194.394 166.894 190.166C168.04 187.292 168.411 185.907 167.429 182.162C167.808 182.582 167.429 182.162 167.775 182.613C167.775 182.613 170.981 184.618 169.78 189.267Z" fill="#EC5A29"/>
<path d="M171.233 260.528C167.561 263.445 163.89 266.131 160.421 268.191C154.694 271.603 149.539 273.305 145.921 271.52C145.281 271.217 144.675 270.845 144.116 270.41C140.935 267.867 143.822 265.173 148.011 262.54C148.886 261.964 149.716 261.322 150.492 260.618C155.999 255.751 164.46 245.122 161.947 240.092C160.258 236.715 156.409 229.283 153.429 223.568C153.429 223.568 158.022 226.542 164.179 222.605C166.05 221.408 168.066 219.574 170.144 216.82C170.332 217.746 170.506 218.639 170.658 219.479C172.261 228.29 173.713 234.832 173.785 235.06C175.694 241.217 180.364 243.964 181.139 245.899C181.915 247.835 180.982 252.788 171.233 260.528Z" fill="#FFEDCD"/>
<path d="M171.233 260.528C167.561 263.445 163.89 266.131 160.421 268.191C154.694 271.603 150.729 274.065 145.921 271.52C145.287 271.206 144.682 270.835 144.116 270.41C152.448 272.634 173.85 252.515 173.33 243.655C172.671 232.421 164.182 222.605 164.182 222.605C166.053 221.408 168.07 219.574 170.148 216.82C170.336 217.746 170.509 218.639 170.662 219.479C172.264 228.29 173.716 234.832 173.788 235.06C175.697 241.217 180.367 243.964 181.143 245.899C181.918 247.835 180.982 252.788 171.233 260.528Z" fill="#EA6F00"/>
<path d="M158.311 269.379C152.584 272.79 149.54 273.303 145.921 271.519C140.116 268.655 143.212 265.558 148.011 262.539C148.887 261.963 149.716 261.32 150.493 260.616C153.587 260.311 157.847 262.868 158.311 269.379Z" fill="white"/>
<path d="M204.801 257.944C204.801 257.944 201.674 265.237 194.462 275.735C194.462 275.735 188.369 285.825 182.234 294.579C181.537 295.574 180.838 296.553 180.148 297.497C177.898 300.581 176.171 303.078 174.841 305.172C172.176 309.36 171.108 311.871 170.634 313.948C170.382 315.046 170.128 316.525 169.855 318.114C169.35 321.04 168.777 324.336 168.034 326.303C167.701 327.184 165.35 328.077 162.104 329.106C159.289 329.999 155.8 330.998 152.372 332.19C149.131 333.314 145.937 334.599 143.07 335.678C139.308 337.095 136.105 338.155 134.096 338.028C127.072 337.587 123.793 327.319 127.704 326.519C129.155 326.225 132.369 325.068 136.074 323.568C142.38 321.022 150.112 317.48 153.023 315.464C155.453 313.781 157.27 311.387 158.446 309.494C159.382 307.982 160.088 306.34 160.539 304.62C161.012 302.821 161.805 299.821 162.808 296.071C163.448 293.676 164.173 290.973 164.958 288.083C165.099 287.557 165.243 287.027 165.391 286.492C170.153 269.172 177.498 246.408 179.981 241.246C184.068 232.751 190.051 231.102 190.051 231.102C190.051 231.102 200.22 229.821 203.31 239.437C206.4 249.053 205.601 255.62 204.801 257.944Z" fill="#FFA188"/>
<path d="M204.801 257.942C204.801 257.942 201.674 265.235 194.462 275.734C194.462 275.734 188.37 285.824 182.234 294.578C181.538 295.572 180.839 296.552 180.149 297.496C177.899 300.58 176.172 303.076 174.841 305.171C170.255 303.197 165.736 299.725 162.812 296.066C163.453 293.67 164.178 290.967 164.962 288.077C165.103 287.551 165.248 287.021 165.396 286.486C167.957 289.109 172.235 292.318 177.445 291.698C186.037 290.67 203.676 249.143 200.746 240.213C197.817 231.282 190.055 231.096 190.055 231.096C190.055 231.096 200.225 229.815 203.315 239.431C206.405 249.047 205.601 255.619 204.801 257.942Z" fill="#EC5A29"/>
<path d="M182.234 294.579C181.537 295.574 180.838 296.553 180.148 297.497C173.393 306.749 171.337 310.837 170.634 313.946C170.382 315.044 170.128 316.523 169.855 318.112C169.35 321.037 168.777 324.334 168.034 326.3C167.701 327.182 165.35 328.074 162.104 329.104C159.289 329.997 155.8 330.995 152.372 332.188C149.131 333.311 145.937 334.596 143.07 335.676C139.308 337.093 136.105 338.153 134.096 338.025C127.072 337.585 123.793 327.317 127.704 326.516C129.155 326.223 132.369 325.065 136.074 323.566C142.38 321.02 150.112 317.478 153.023 315.461C155.453 313.778 157.27 311.385 158.446 309.492C159.382 307.98 160.088 306.337 160.539 304.617C161.314 301.669 162.949 295.496 164.958 288.08C165.959 290.324 167.965 292.94 171.967 294.194C175.618 295.336 179.324 295.126 182.234 294.579Z" fill="#FFEDCD"/>
<path d="M143.07 335.672C139.308 337.089 136.105 338.15 134.096 338.022C127.072 337.581 120.577 328.056 127.703 326.513C129.15 326.199 132.369 325.062 136.074 323.563C139.18 325.607 143.182 329.459 143.07 335.672Z" fill="white"/>
<path d="M169.855 318.114C170.089 321.028 169.487 324.789 168.744 326.754C168.409 327.635 165.359 328.794 162.104 329.104C162.104 329.1 160.482 318.76 169.855 318.114Z" fill="white"/>
<path d="M275.883 132.916C274.121 138.202 271.184 137.356 271.184 137.356C271.184 137.356 270.009 139.233 266.863 140.925C264.967 141.953 262.355 142.897 258.854 143.329C248.768 144.574 247.124 141.032 245.522 134.371C244.971 132.079 244.819 130.196 244.935 128.545C245.082 126.555 245.643 124.906 246.403 123.291C246.844 122.345 247.356 121.411 247.894 120.429C247.91 120.396 247.926 120.365 247.945 120.335C250.148 116.292 252.182 111.313 252.182 111.313C252.182 111.313 253.868 110.086 255.247 111.313C256.626 112.541 270.339 116.521 273.175 118.207C276.011 119.893 277.645 127.63 275.883 132.916Z" fill="#FFA188"/>
<path d="M275.882 132.884C274.12 138.171 271.183 137.324 271.183 137.324C271.183 137.324 270.008 139.2 266.863 140.894C266.958 140.804 269.684 137.902 270.137 135.955C270.798 133.125 269.744 130.228 267.866 128.087C265.77 125.703 262.762 124.121 259.837 122.991C258.007 122.286 256.166 121.91 254.568 120.71C253.445 119.87 252.552 118.83 251.588 117.823C250.56 116.755 250.44 117.895 249.44 119.321C249.076 119.817 248.546 120.164 247.946 120.299C250.149 116.256 252.183 111.278 252.183 111.278C252.183 111.278 253.869 110.051 255.248 111.278C256.627 112.504 270.34 116.485 273.176 118.171C276.012 119.857 277.645 127.597 275.882 132.884Z" fill="#F4734B"/>
<path d="M283.827 203.795C282.03 217.33 278.623 221.589 276.067 222.914C273.512 224.238 239.156 233.607 237.738 232.638C236.321 231.669 230.735 227.929 220.703 226.605C210.672 225.282 209.249 218.464 208.874 216.856C208.5 215.248 209.632 216.572 212.377 216.383C213.745 216.289 216.387 212.615 218.759 208.075C221.144 203.514 223.259 198.079 223.544 194.521C223.563 194.274 223.57 194.002 223.567 193.707C223.48 185.522 214.903 159.515 216.73 154.581C218.622 149.47 228.845 140.007 233.86 139.722C238.875 139.437 247.678 144.739 246.447 145.596C245.216 146.454 239.822 154.872 238.537 158.279C237.252 161.686 242.756 165.85 254.964 160.922C267.172 155.994 265.78 152.111 265.78 152.111C265.918 150.789 268.121 151.362 271.716 153.634C275.311 155.905 280.803 163.192 282.505 167.072C284.208 170.952 285.626 190.262 283.827 203.795Z" fill="white"/>
<path d="M268.009 185.664C267.916 185.802 249.874 203.14 231.209 207.105C224.306 208.573 220.635 208.609 218.757 208.073C221.142 203.511 223.256 198.076 223.541 194.518C223.56 194.271 223.568 194 223.565 193.704C229.452 191.104 238.877 187.39 240.861 189.314C243.798 192.152 245.308 192.53 247.771 192.342C250.212 192.155 264.782 187.04 268.009 185.664Z" fill="#FFEACB"/>
<path d="M221.743 161.489C221.743 166.6 213.413 182.688 213.413 182.688C213.413 182.972 204.802 190.261 197.986 190.165C195.521 190.132 193.76 189.44 192.591 188.274C190.535 186.218 190.301 182.693 191.269 178.714C192.783 172.468 208.304 145.4 209.818 142.466C211.332 139.532 209.439 130.447 209.724 124.577C210.009 118.708 211.711 115.399 213.415 114.831C215.118 114.262 217.486 113.885 217.486 113.885C217.486 113.885 217.594 114.355 217.779 115.094C218.384 117.443 219.826 122.526 221.267 123.821C223.163 125.525 221.743 156.379 221.743 161.489Z" fill="#FFA188"/>
<path d="M221.743 161.489C221.743 166.6 213.413 182.688 213.413 182.688C213.413 182.972 204.802 190.261 197.986 190.165C195.521 190.132 193.76 189.44 192.591 188.274C192.591 188.274 199.406 191.017 205.843 180.985C212.28 170.954 219.471 139.343 218.051 137.45C216.631 135.558 212.846 130.162 212.277 126.567C211.707 122.972 211.237 118.426 213.598 117.007C214.886 116.233 216.535 115.553 217.778 115.098C218.383 117.447 219.825 122.53 221.266 123.825C223.163 125.524 221.743 156.379 221.743 161.489Z" fill="#EC5A29"/>
<path d="M215.897 118.124V104.627L227.208 108.76V127.144L215.897 118.124Z" fill="#113855"/>
<path d="M215.897 104.628L218.736 104.17L229.539 107.888L227.208 108.761L215.897 104.628Z" fill="#67A4C3"/>
<path d="M229.539 107.887V127.396L227.208 127.144V108.76L229.539 107.887Z" fill="#376F92"/>
<path d="M243.321 173.511L242.375 172.091C242.375 172.091 239.71 170.787 242.375 170.008C243.36 169.715 253.329 165.548 258.657 163.35C258.673 163.344 258.687 163.335 258.7 163.324C258.712 163.312 258.723 163.298 258.73 163.283C258.737 163.267 258.741 163.25 258.742 163.233C258.742 163.216 258.74 163.199 258.734 163.183C258.728 163.167 258.719 163.153 258.707 163.14C258.696 163.128 258.682 163.117 258.666 163.11C258.651 163.103 258.634 163.099 258.617 163.098C258.6 163.098 258.583 163.1 258.567 163.106C251.205 165.481 234.336 170.584 233.006 167.926C231.302 164.519 228.368 151.625 228.368 151.625C228.368 151.625 224.961 184.667 227.706 184.202C230.45 183.736 243.321 173.511 243.321 173.511Z" fill="#FFEACB"/>
<path d="M248.557 187.706C248.437 188.184 248.21 188.628 247.894 189.005C247.577 189.382 247.179 189.682 246.73 189.883C245.279 190.461 243.577 191.069 241.727 191.68L241.631 191.713L241.584 191.727C232.835 194.604 220.856 197.499 216.347 197.264C210.858 196.982 211.331 191.491 212.915 174.343C214.5 157.195 221.553 138.493 220.133 137.923C218.713 137.353 216.159 131.021 214.927 129.783C213.695 128.545 213.792 126.567 213.792 126.567C212.751 125.997 213.244 123.064 213.244 123.064C212.415 122.308 213.413 120.318 213.413 120.318C213.413 120.318 213.034 120.036 213.413 118.521C213.792 117.005 222.593 115.583 223.636 115.68C224.678 115.777 228.745 124.104 228.936 122.876C229.127 121.649 229.503 117.481 229.409 115.873C229.315 114.265 231.585 113.789 231.49 115.873C231.394 117.957 233.195 119.847 233.761 120.698C234.328 121.55 234.709 124.675 232.058 129.784C230.483 132.808 229.124 135.939 227.989 139.154C227.989 139.154 227.742 142.469 228.367 151.627C228.993 160.785 231.68 173.698 231.868 174.268C232.015 174.701 238.07 173.2 240.919 172.469C241.8 172.244 242.375 172.091 242.375 172.091C250.139 173.753 249.795 183.128 248.557 187.706Z" fill="#FFA188"/>
<path d="M229.431 115.506C229.431 115.506 229.807 117.121 230.101 120.417C230.395 123.712 228.936 122.876 228.936 122.876L229.431 115.506Z" fill="#EC5A29"/>
<path d="M213.402 120.294C214.074 119.783 214.816 119.373 215.605 119.075C215.811 118.995 216.023 118.93 216.24 118.883C216.357 118.857 216.476 118.839 216.596 118.827C216.743 118.811 216.892 118.818 217.037 118.848L217.147 118.877L217.215 118.896L217.353 118.937L217.646 119.018L218.234 119.175C218.624 119.296 219.018 119.406 219.409 119.529C219.799 119.652 220.19 119.779 220.575 119.927C221.359 120.201 222.121 120.533 222.857 120.918L222.842 120.973C221.253 120.56 219.666 120.147 218.083 119.713C217.689 119.6 217.291 119.484 216.908 119.357C216.713 119.323 216.514 119.326 216.32 119.366C216.122 119.4 215.926 119.445 215.733 119.5C214.946 119.729 214.177 120.011 213.429 120.346L213.402 120.294Z" fill="#EC5A29"/>
<path d="M213.246 123.037C213.935 122.857 214.649 122.791 215.359 122.841C215.539 122.847 215.718 122.865 215.895 122.893L216.166 122.937L216.436 122.995C216.527 123.015 216.618 123.04 216.706 123.071C216.798 123.098 216.888 123.131 216.976 123.168C217.067 123.208 217.157 123.236 217.248 123.285L217.384 123.357C217.429 123.381 217.478 123.406 217.511 123.425C217.788 123.609 218.082 123.777 218.37 123.958C218.658 124.139 218.947 124.321 219.226 124.522C219.808 124.906 220.358 125.336 220.872 125.807L220.846 125.857C220.231 125.551 219.621 125.236 219.016 124.911C218.411 124.587 217.807 124.258 217.217 123.901C216.627 123.544 215.96 123.394 215.289 123.28C214.953 123.224 214.612 123.184 214.271 123.155C213.93 123.125 213.587 123.1 213.243 123.093L213.246 123.037Z" fill="#EC5A29"/>
<path d="M213.804 126.541C214.344 126.575 214.877 126.674 215.393 126.835C215.901 126.979 216.396 127.161 216.876 127.38C217.359 127.594 217.824 127.845 218.267 128.132C218.733 128.414 219.155 128.763 219.518 129.168L219.49 129.217C219.261 129.094 219.026 128.979 218.79 128.867L218.079 128.534C217.605 128.314 217.126 128.093 216.647 127.888L213.782 126.598L213.804 126.541Z" fill="#EC5A29"/>
<path d="M231.87 174.265C231.87 174.265 232.525 180.367 230.548 185.151C230.548 185.151 232.786 182.536 233.909 179.164C235.033 175.792 234.467 173.996 234.467 173.996L231.87 174.265Z" fill="#EC5A29"/>
<path d="M249.236 187.373C248.784 189.044 246.73 189.883 246.73 189.883C245.279 190.461 243.577 191.069 241.727 191.68C244.106 190.83 248.126 186.115 246.731 180.477C245.32 174.763 240.919 172.469 240.919 172.469C241.8 172.244 242.375 172.091 242.375 172.091C250.139 173.753 250.473 182.799 249.236 187.373Z" fill="#EC5A29"/>
<path d="M296.356 268.301C295.929 295.234 294.386 324.658 294.386 324.658L247.411 342.886L222.677 238.605C222.677 238.605 222.805 237.384 224.985 235.556C227.608 233.353 233.209 230.269 245.123 227.379C266.949 222.079 289.71 215.532 294.386 225.51C296.375 229.749 296.672 248.338 296.356 268.301Z" fill="#FF5823"/>
<path d="M296.356 268.301C295.929 295.234 294.386 324.658 294.386 324.658L247.411 342.886L222.677 238.605C222.677 238.605 222.805 237.384 224.985 235.556C231.134 235.534 235.35 235.543 235.35 235.543C235.35 235.543 244.272 232.018 258.433 259.565C264.082 270.549 279.668 271.328 296.356 268.301Z" fill="#CD2D35"/>
<path d="M247.414 342.88L216.982 333.66V253.2C216.982 253.2 217.57 233.776 232.778 235.665C247.637 237.511 245.296 261.89 245.296 261.89L247.414 342.88Z" fill="#DC3A06"/>
<path d="M243.827 190.964C243.827 190.964 245.243 192.116 248.139 190.167C251.035 188.218 253.176 172.251 242.412 171.797C242.412 171.797 241.545 171.832 242.372 172.091C245.289 172.997 248.801 175.229 249.525 181.597C250.536 190.462 244.838 190.39 244.838 190.39L243.827 190.964Z" fill="#440003"/>
<path d="M190.055 231.096C190.055 231.096 201.675 226.975 205.884 247.112C205.884 247.112 207.352 255.767 205.528 258.991C205.528 258.991 204.319 260.047 204.801 257.942C205.283 255.838 208.074 231.09 190.055 231.096Z" fill="#001623"/>
<path d="M164.259 194.255C164.259 194.255 165.627 194.36 167.816 192.121C170.004 189.881 170.267 185.333 167.775 182.613C167.775 182.613 172.543 185.94 168.459 192.479C167.865 193.414 167.187 194.293 166.432 195.105C166.047 195.479 165.641 195.831 165.214 196.156C165.214 196.156 164.629 194.811 164.259 194.255Z" fill="#001623"/>
<path d="M278.611 155.48C273.775 156.232 269.771 154.305 267.124 152.396C265.837 151.479 264.668 150.406 263.644 149.202C274.263 143.915 277.461 131.122 275.47 129.13C273.479 127.137 270.951 129.13 270.951 129.13C270.337 127.752 270.032 125.069 270.032 125.069C269.035 126.217 268.193 126.676 268.193 126.676C263.594 125.47 261.171 119.066 261.096 118.866C260.432 120.552 261.096 122.39 261.096 122.39C261.096 122.39 260.839 122.339 260.407 122.229C259.025 121.871 255.855 120.907 253.64 119.097C251.011 116.951 252.445 113.055 252.746 112.322C252.772 112.258 252.791 112.216 252.796 112.206L248.537 119.191C248.426 119.264 248.307 119.324 248.182 119.37C247.372 119.678 245.496 119.772 245.979 113.659C246.593 105.921 256.699 101.323 262.45 100.712C268.201 100.101 269.992 103.239 269.992 103.239C278.915 103.009 286.352 110.435 287.731 118.791C289.11 127.147 287.499 154.101 278.611 155.48Z" fill="#9D4A2E"/>
<path d="M269.113 112.627C269.113 112.627 265.572 112.942 263.631 114.758C261.786 116.482 261.093 118.87 261.093 118.87C260.429 120.556 261.093 122.395 261.093 122.395C261.093 122.395 260.836 122.343 260.404 122.233C260.404 122.233 258.363 119.581 261.285 115.174C264.289 110.623 269.113 112.627 269.113 112.627Z" fill="#763019"/>
<path d="M276.692 138.55C275.122 144.955 270.604 151.15 267.124 152.393C265.836 151.476 264.667 150.403 263.644 149.199C274.263 143.912 277.461 131.12 275.47 129.127C273.478 127.134 270.951 129.127 270.951 129.127C270.337 127.749 270.032 125.066 270.032 125.066C270.032 125.066 271.81 122.824 273.329 116.092C273.329 116.092 273.502 124.446 274.953 126.657C276.404 128.867 278.432 131.457 276.692 138.55Z" fill="#763019"/>
<path d="M248.179 119.364C245.9 116.814 251.815 109.719 255 107.375C258.441 104.845 260.122 104.958 260.122 104.958C255.209 106.663 252.794 112.198 252.794 112.198C252.794 112.198 249.051 119.883 248.179 119.364Z" fill="#763019"/>
<path d="M272.257 132.064C272.111 132.388 272.052 132.745 272.086 133.098C272.12 133.452 272.245 133.791 272.45 134.081C272.568 134.257 272.73 134.4 272.92 134.493C273.084 134.558 273.262 134.579 273.437 134.556C273.611 134.533 273.777 134.466 273.919 134.361C274.201 134.148 274.415 133.857 274.534 133.524C274.784 132.901 274.975 131.321 274.185 130.957C273.522 130.647 272.509 131.528 272.257 132.064Z" fill="#EC5A29"/>
<path d="M248.816 122.067C248.821 122.123 248.839 122.177 248.867 122.225C248.908 122.274 248.962 122.311 249.023 122.329C249.484 122.501 250.016 122.259 250.337 121.889C250.471 121.744 250.572 121.572 250.632 121.384C250.693 121.196 250.711 120.998 250.687 120.802C250.386 119.113 248.674 121.042 248.816 122.067Z" fill="#440003"/>
<path d="M259.588 126.148C259.591 126.204 259.609 126.259 259.639 126.306C259.679 126.356 259.734 126.392 259.795 126.411C260.256 126.584 260.786 126.34 261.108 125.97C261.242 125.826 261.343 125.653 261.403 125.466C261.463 125.278 261.482 125.079 261.457 124.883C261.156 123.198 259.444 125.12 259.588 126.148Z" fill="#440003"/>
<path d="M260.995 130.322C261.777 130.789 262.504 131.974 262.515 132.886C262.508 133.199 262.44 133.508 262.314 133.795C262.188 134.081 262.006 134.341 261.78 134.557C260.666 135.673 259.303 135.716 257.981 134.955C257.432 134.639 256.872 134.221 256.698 133.619C256.565 133.159 256.681 132.664 256.858 132.219C257.464 130.692 259.362 129.35 260.995 130.322Z" fill="#F83B4F"/>
<path d="M248.212 126.002C248.206 126.315 248.138 126.624 248.012 126.911C247.886 127.197 247.705 127.456 247.478 127.673C246.716 128.435 245.838 128.701 244.935 128.544C245.081 126.554 245.642 124.905 246.403 123.289C246.504 123.332 246.602 123.381 246.697 123.436C247.477 123.903 248.204 125.091 248.212 126.002Z" fill="#F83B4F"/>
<path d="M250.024 127.562C249.889 127.696 249.759 127.832 249.631 127.973C249.302 128.333 248.958 128.793 249.226 129.295C249.387 129.554 249.608 129.77 249.87 129.926C250.712 130.483 251.631 130.915 252.597 131.207C251.687 130.913 250.518 130.01 250.359 129.004C250.212 128.082 251.251 127.496 251.094 126.631C250.718 126.918 250.361 127.229 250.024 127.562Z" fill="#EC5A29"/>
<path d="M247.445 133.766C248.085 134.196 248.761 134.57 249.466 134.883C249.639 134.963 249.821 135.03 249.995 135.099C250.168 135.168 250.353 135.228 250.535 135.286C250.896 135.405 251.264 135.503 251.637 135.579C252.381 135.74 253.14 135.82 253.901 135.819C254.092 135.819 254.284 135.819 254.475 135.803C254.666 135.787 254.859 135.785 255.045 135.76C255.233 135.74 255.418 135.699 255.597 135.638C255.687 135.607 255.774 135.569 255.857 135.522C255.901 135.497 255.941 135.483 255.961 135.44C255.973 135.421 255.98 135.399 255.982 135.377C255.983 135.371 255.982 135.366 255.98 135.36C255.978 135.355 255.975 135.35 255.971 135.346C255.968 135.342 255.963 135.339 255.957 135.337C255.952 135.336 255.946 135.335 255.941 135.336C255.947 135.333 255.953 135.332 255.959 135.332C255.965 135.332 255.972 135.333 255.978 135.336C255.988 135.345 255.995 135.357 255.997 135.371C256.003 135.396 256.003 135.423 255.997 135.449C255.99 135.475 255.976 135.499 255.957 135.519L255.9 135.571C255.822 135.634 255.74 135.69 255.653 135.74C255.476 135.834 255.288 135.907 255.093 135.957C254.9 136.005 254.704 136.043 254.506 136.071C254.312 136.108 254.115 136.123 253.919 136.14C253.722 136.158 253.524 136.161 253.331 136.168C253.139 136.176 252.935 136.16 252.744 136.149C252.349 136.12 251.957 136.065 251.569 135.985C250.792 135.822 250.043 135.549 249.343 135.176C248.639 134.81 247.998 134.334 247.445 133.766Z" fill="#EC5A29"/>
<path d="M262.158 133.855C262.158 133.87 262.163 133.884 262.171 133.896C262.181 133.909 262.196 133.919 262.212 133.924C262.275 133.941 262.341 133.939 262.403 133.918C262.464 133.898 262.519 133.859 262.558 133.808C262.595 133.769 262.622 133.723 262.638 133.672C262.653 133.621 262.657 133.567 262.65 133.514C262.572 133.078 262.119 133.585 262.158 133.855Z" fill="#EC5A29"/>
<path d="M264.414 132.445C264.415 132.46 264.419 132.474 264.427 132.486C264.437 132.499 264.452 132.509 264.468 132.514C264.531 132.531 264.597 132.529 264.659 132.508C264.721 132.487 264.775 132.448 264.814 132.397C264.85 132.359 264.876 132.314 264.892 132.265C264.908 132.215 264.912 132.163 264.905 132.112C264.828 131.668 264.375 132.169 264.414 132.445Z" fill="#EC5A29"/>
<path d="M259.331 130.798C259.333 130.813 259.338 130.827 259.346 130.84C259.357 130.853 259.371 130.862 259.387 130.867C259.45 130.884 259.516 130.882 259.577 130.861C259.639 130.841 259.693 130.802 259.732 130.751C259.767 130.713 259.794 130.667 259.81 130.618C259.826 130.568 259.831 130.516 259.825 130.464C259.745 130.021 259.295 130.528 259.331 130.798Z" fill="#EC5A29"/>
<path d="M255.852 129.664C255.853 129.679 255.858 129.693 255.866 129.705C255.877 129.719 255.891 129.728 255.908 129.733C255.97 129.75 256.036 129.748 256.098 129.727C256.159 129.706 256.213 129.667 256.253 129.616C256.288 129.578 256.315 129.532 256.331 129.483C256.347 129.433 256.352 129.381 256.345 129.329C256.266 128.886 255.815 129.394 255.852 129.664Z" fill="#EC5A29"/>
<path d="M258.375 132.315C258.376 132.33 258.381 132.344 258.389 132.356C258.399 132.37 258.414 132.38 258.43 132.384C258.493 132.401 258.559 132.399 258.621 132.378C258.682 132.357 258.736 132.318 258.775 132.267C258.811 132.229 258.837 132.184 258.853 132.134C258.869 132.085 258.874 132.033 258.868 131.982C258.786 131.532 258.335 132.039 258.375 132.315Z" fill="#EC5A29"/>
<path d="M261.368 130.499C261.368 130.515 261.373 130.529 261.381 130.542C261.392 130.555 261.406 130.564 261.422 130.568C261.485 130.586 261.551 130.584 261.613 130.563C261.674 130.542 261.729 130.504 261.768 130.452C261.805 130.413 261.832 130.367 261.848 130.316C261.863 130.265 261.867 130.211 261.859 130.159C261.78 129.723 261.329 130.231 261.368 130.499Z" fill="#EC5A29"/>
<path d="M253.446 128.79C253.448 128.805 253.453 128.819 253.46 128.831C253.471 128.844 253.485 128.854 253.501 128.859C253.564 128.876 253.63 128.874 253.692 128.853C253.754 128.832 253.808 128.794 253.847 128.742C253.884 128.703 253.911 128.656 253.927 128.605C253.943 128.555 253.947 128.501 253.94 128.448C253.861 128.018 253.41 128.526 253.446 128.79Z" fill="#EC5A29"/>
<path d="M247.449 125.853C247.449 125.868 247.454 125.882 247.462 125.894C247.473 125.907 247.487 125.917 247.503 125.922C247.566 125.939 247.632 125.937 247.694 125.916C247.756 125.895 247.81 125.857 247.849 125.805C247.886 125.766 247.913 125.719 247.929 125.668C247.945 125.618 247.949 125.564 247.941 125.511C247.861 125.074 247.41 125.582 247.449 125.853Z" fill="#EC5A29"/>
<path d="M248.56 125.56C248.562 125.575 248.566 125.588 248.573 125.601C248.584 125.614 248.598 125.624 248.614 125.629C248.677 125.646 248.744 125.644 248.805 125.623C248.867 125.602 248.921 125.563 248.961 125.512C248.997 125.473 249.024 125.426 249.04 125.375C249.056 125.324 249.06 125.271 249.052 125.218C248.976 124.777 248.522 125.286 248.56 125.56Z" fill="#EC5A29"/>
<path d="M246.079 125.147C246.079 125.163 246.084 125.179 246.094 125.191C246.104 125.204 246.118 125.212 246.133 125.216C246.196 125.233 246.262 125.231 246.323 125.21C246.385 125.189 246.439 125.151 246.478 125.099C246.513 125.061 246.54 125.016 246.556 124.967C246.572 124.917 246.577 124.865 246.571 124.814C246.491 124.37 246.039 124.877 246.079 125.147Z" fill="#EC5A29"/>
<path d="M246.333 127.384C246.333 127.398 246.338 127.413 246.346 127.425C246.356 127.438 246.371 127.448 246.387 127.453C246.45 127.47 246.516 127.467 246.578 127.446C246.639 127.425 246.693 127.387 246.732 127.335C246.768 127.297 246.794 127.252 246.81 127.203C246.826 127.154 246.831 127.102 246.825 127.05C246.741 126.607 246.29 127.113 246.333 127.384Z" fill="#EC5A29"/>
<path d="M161.368 128.938H96.6623C95.9681 128.938 95.4053 129.501 95.4053 130.195V157.471C95.4053 158.166 95.9681 158.728 96.6623 158.728H161.368C162.062 158.728 162.625 158.166 162.625 157.471V130.195C162.625 129.501 162.062 128.938 161.368 128.938Z" fill="#FFAB3E"/>
<path d="M158.385 125.17H93.6799C92.9857 125.17 92.4229 125.733 92.4229 126.427V153.704C92.4229 154.398 92.9857 154.961 93.6799 154.961H158.385C159.08 154.961 159.642 154.398 159.642 153.704V126.427C159.642 125.733 159.08 125.17 158.385 125.17Z" fill="#A67A4A"/>
<path d="M128.205 112.95C142.933 112.95 154.873 101.011 154.873 86.2826C154.873 71.5547 142.933 59.6154 128.205 59.6154C113.477 59.6154 101.538 71.5547 101.538 86.2826C101.538 101.011 113.477 112.95 128.205 112.95Z" fill="#FFEDCD"/>
<path d="M141.877 69.5915C141.703 69.5913 141.533 69.6392 141.385 69.73C141.238 69.8207 141.118 69.9507 141.04 70.1055H140.712C140.134 70.1055 139.47 70.665 139.2 71.3787L138.11 74.26H110.987C110.926 74.2292 110.856 74.2209 110.789 74.2365C110.767 74.2421 110.746 74.25 110.726 74.26H110.614C110.494 74.26 110.378 74.3079 110.293 74.3933C110.207 74.4787 110.159 74.5945 110.159 74.7152C110.159 74.836 110.207 74.9518 110.293 75.0371C110.378 75.1225 110.494 75.1705 110.614 75.1705H110.692L113.283 86.4415V86.4562C113.283 86.465 113.283 86.4724 113.283 86.4797C113.287 86.4904 113.292 86.5007 113.297 86.5105L113.306 86.5296L113.328 86.5605L113.339 86.5737C113.349 86.5857 113.36 86.597 113.372 86.6075C113.387 86.6186 113.402 86.6285 113.418 86.6368H113.434L113.469 86.6515H113.488L113.527 86.6589H113.537L133.455 88.2581H133.465C133.478 88.3433 133.496 88.427 133.515 88.5033L133.563 88.6869C133.572 88.728 133.581 88.7692 133.591 88.8073L133.704 89.2332L134.715 93.1351C134.753 93.243 134.764 93.3587 134.746 93.4717C134.728 93.5847 134.681 93.6913 134.611 93.7818C134.541 93.8723 134.45 93.9438 134.345 93.9896C134.24 94.0355 134.125 94.0542 134.011 94.0442H114.099C114.071 94.0442 114.044 94.0497 114.018 94.0604C113.992 94.0711 113.969 94.0868 113.949 94.1066C113.93 94.1264 113.914 94.1499 113.903 94.1757C113.893 94.2015 113.888 94.2292 113.888 94.2571C113.888 94.2775 113.891 94.2978 113.897 94.3173C113.853 94.386 113.828 94.4653 113.826 94.5468C113.823 94.6282 113.843 94.7089 113.882 94.7803C113.921 94.8516 113.979 94.9111 114.05 94.9523C114.12 94.9936 114.2 95.0152 114.281 95.0149H134.375C134.591 95.0252 134.807 94.9832 135.003 94.8924C135.199 94.8015 135.37 94.6646 135.502 94.4932C135.634 94.3218 135.723 94.1211 135.76 93.9081C135.798 93.6952 135.783 93.4763 135.718 93.2702L134.471 88.5709C134.332 87.8961 134.368 87.1969 134.575 86.5399L138.912 75.0691C138.966 75.027 139.01 74.9731 139.04 74.9115C139.07 74.8499 139.085 74.7823 139.085 74.7138C139.087 74.6869 139.087 74.6599 139.085 74.633L140.135 71.856C140.314 71.3816 140.759 71.0145 141.016 71.0145H141.073C141.158 71.1553 141.278 71.2714 141.422 71.3512C141.565 71.4311 141.727 71.4719 141.892 71.4697C142.056 71.4674 142.217 71.4221 142.358 71.3383C142.499 71.2546 142.616 71.1352 142.697 70.9922C142.778 70.8492 142.82 70.6874 142.819 70.5232C142.817 70.3589 142.773 70.1978 142.69 70.0559C142.607 69.9141 142.489 69.7964 142.346 69.7146C142.204 69.6329 142.042 69.5899 141.878 69.59L141.877 69.5915ZM133.414 87.609L130.78 87.4005L131.782 83.7658L134.452 83.9333L133.647 86.0626C133.481 86.5608 133.402 87.084 133.414 87.609ZM127.644 83.0213L124.367 82.8245L124.583 79.626L128.206 79.7832L127.644 83.0213ZM123.883 82.7863L120.625 82.5837L120.508 79.4469L124.099 79.604L123.883 82.7863ZM120.134 82.5528L116.702 82.3384L116.299 79.2545L120.02 79.4175L120.134 82.5528ZM131.363 83.2533L128.133 83.0521L128.697 79.7979L132.274 79.9535L131.363 83.2533ZM116.208 82.3076L112.977 82.1064C112.965 82.1049 112.952 82.1049 112.939 82.1064H112.927L112.237 79.0783L115.812 79.2354L116.208 82.3076ZM116.273 82.7981L116.726 86.2814L113.823 86.0553L113.036 82.6028L116.273 82.7981ZM116.766 82.8289L120.144 83.0404L120.27 86.5649L117.214 86.3211L116.766 82.8289ZM120.639 83.0712L123.856 83.2651L123.615 86.8233L120.772 86.6031L120.639 83.0712ZM124.334 83.3018L127.564 83.503L126.94 87.0936L124.093 86.8674L124.334 83.3018ZM128.047 83.5338L131.231 83.7321L130.233 87.3564L127.425 87.1332L128.047 83.5338ZM134.632 83.4575L131.914 83.2871L132.826 79.9785L135.897 80.1121L134.632 83.4575ZM132.405 79.4733L128.779 79.3147L129.495 75.1705H133.591L132.405 79.4733ZM128.293 79.2941L124.621 79.1341L124.89 75.169H129.002L128.293 79.2941ZM124.134 79.112L120.493 78.9534L120.357 75.1705H124.401L124.134 79.112ZM119.875 75.1705L120.01 78.9314L116.243 78.7669L115.773 75.1705H119.875ZM115.283 75.1705L115.75 78.7464L112.186 78.5907C112.177 78.5892 112.167 78.5892 112.158 78.5907H112.128L111.349 75.1705H115.283ZM136.085 79.6334L132.966 79.4983L134.158 75.1705H137.774L136.085 79.6334Z" fill="#414042"/>
<path d="M116.703 95.5646C116.322 95.5646 115.95 95.6775 115.633 95.8891C115.316 96.1006 115.07 96.4013 114.924 96.7531C114.778 97.1049 114.74 97.492 114.814 97.8655C114.889 98.2389 115.072 98.582 115.341 98.8512C115.61 99.1205 115.954 99.3039 116.327 99.3782C116.7 99.4524 117.088 99.4143 117.439 99.2686C117.791 99.1229 118.092 98.8761 118.303 98.5595C118.515 98.2429 118.628 97.8707 118.628 97.4899C118.627 96.9794 118.425 96.4899 118.064 96.129C117.703 95.768 117.213 95.565 116.703 95.5646Z" fill="#414042"/>
<path d="M132.521 95.5646C132.14 95.5646 131.768 95.6775 131.451 95.8891C131.135 96.1006 130.888 96.4013 130.742 96.7531C130.597 97.1049 130.558 97.492 130.633 97.8655C130.707 98.2389 130.89 98.582 131.16 98.8512C131.429 99.1205 131.772 99.3039 132.145 99.3782C132.519 99.4524 132.906 99.4143 133.258 99.2686C133.61 99.1229 133.91 98.8761 134.122 98.5595C134.333 98.2429 134.446 97.8707 134.446 97.4899C134.446 96.9794 134.243 96.4899 133.882 96.129C133.521 95.768 133.031 95.565 132.521 95.5646Z" fill="#414042"/>
<path d="M344.923 55.0119V283.722C342.629 284.356 340.323 284.96 338.006 285.536V55.0119H344.923Z" fill="#113855"/>
<path d="M344.923 55.0119V122.671C342.461 120.973 340.147 119.069 338.006 116.98V55.008L344.923 55.0119Z" fill="white"/>
<path d="M383.577 74.099H299.354L321.518 25.9221H361.414L383.577 74.099Z" fill="#A67A4A"/>
<path d="M329.7 25.9201L307.535 74.097H315.188L337.351 25.9201H329.7Z" fill="white"/>
<path d="M374.514 275.225H334.818C333.873 275.225 333.107 275.991 333.107 276.936V277.243C333.107 278.187 333.873 278.953 334.818 278.953H374.514C375.459 278.953 376.225 278.187 376.225 277.243V276.936C376.225 275.991 375.459 275.225 374.514 275.225Z" fill="#FFEDCD"/>
<path d="M381.575 296.46C381.575 306.348 374.604 313.966 374.604 313.966L373.946 314.066C361.089 316.746 348.089 316.99 336.351 313.966C336.351 313.966 329.219 308.618 328.731 296.622C328.396 288.357 331.486 283.093 333.441 280.614C333.899 280.014 334.412 279.457 334.972 278.951L374.874 278.877C377.305 281.15 381.575 286.572 381.575 296.46Z" fill="#A67A4A"/>
<path d="M381.574 296.461C381.574 306.349 374.603 313.968 374.603 313.968L366.457 315.29C365.529 315.441 364.593 315.544 363.654 315.599L354.268 316.153C358.527 315.179 365.321 312.028 369.049 307.826C375.264 300.824 373.392 287.12 367.272 284.707C358.505 281.253 340.065 281.021 333.438 280.614C333.897 280.014 334.41 279.457 334.97 278.951L374.872 278.877C377.304 281.152 381.574 286.574 381.574 296.461Z" fill="#E08707"/>
<path d="M355.836 202.883C355.341 203.439 354.742 203.894 354.074 204.222C351.534 205.488 346.437 205.767 339.904 194.396C330.436 177.909 321.987 141.813 336.743 137.314C351.499 132.814 362.603 159.976 362.967 173.471C363.331 186.965 358.945 201.071 355.836 202.883Z" fill="#F49EB5"/>
<path d="M355.836 202.881C355.341 203.438 354.743 203.893 354.074 204.221L336.745 137.312C351.495 132.81 362.605 159.975 362.969 173.469C363.333 186.964 358.945 201.069 355.836 202.881Z" fill="#FFB8CB"/>
<path d="M339.963 223.111C339.836 223.581 339.622 224.023 339.332 224.414C338.225 225.945 335.314 227.847 328.048 224.196C317.512 218.901 301.656 203.079 308.957 195.663C316.257 188.247 330.977 198.513 335.267 205.39C339.557 212.267 341.241 221.099 339.963 223.111Z" fill="#F49EB5"/>
<path d="M339.963 223.111C339.836 223.581 339.623 224.023 339.333 224.414L308.957 195.663C316.254 188.245 330.977 198.513 335.267 205.39C339.557 212.267 341.241 221.099 339.963 223.111Z" fill="#FFB8CB"/>
<path d="M370.865 213.491C371.102 214.024 371.442 214.505 371.865 214.907C373.459 216.452 377.201 217.866 384.761 210.92C395.723 200.85 410.549 175.906 400.604 169.067C390.659 162.228 375.95 179.872 372.49 189.858C369.03 199.844 368.966 211.403 370.865 213.491Z" fill="#F49EB5"/>
<path d="M370.865 213.491C371.102 214.024 371.442 214.505 371.865 214.907L400.604 169.062C390.659 162.219 375.95 179.868 372.49 189.854C369.03 199.84 368.966 211.403 370.865 213.491Z" fill="#FFB8CB"/>
<path d="M362.246 257.813C362.442 258.251 362.721 258.647 363.068 258.978C364.379 260.248 367.456 261.41 373.671 255.7C382.682 247.422 394.872 226.917 386.695 221.289C378.519 215.662 366.43 230.173 363.582 238.382C360.735 246.591 360.691 256.098 362.246 257.813Z" fill="#F49EB5"/>
<path d="M362.246 257.813C362.442 258.251 362.721 258.647 363.068 258.978L386.695 221.289C378.52 215.662 366.43 230.173 363.582 238.382C360.735 246.591 360.691 256.098 362.246 257.813Z" fill="#FFB8CB"/>
<path d="M354.123 265.576C353.892 266.005 353.583 266.386 353.211 266.7C351.784 267.938 348.512 269.126 342.275 263.91C333.227 256.348 321.409 237.32 330.209 231.768C339.01 226.215 350.997 239.576 353.6 247.252C356.204 254.928 355.83 263.91 354.123 265.576Z" fill="#F49EB5"/>
<path d="M354.123 265.576C353.892 266.005 353.583 266.386 353.211 266.7L330.209 231.768C339.009 226.215 350.997 239.576 353.6 247.252C356.204 254.928 355.83 263.91 354.123 265.576Z" fill="#FFB8CB"/>
<path d="M43.0325 96.6979C47.3716 96.6979 50.8892 93.1804 50.8892 88.8412C50.8892 84.5021 47.3716 80.9846 43.0325 80.9846C38.6933 80.9846 35.1758 84.5021 35.1758 88.8412C35.1758 93.1804 38.6933 96.6979 43.0325 96.6979Z" fill="white"/>
<path d="M43.0325 45.278C47.3716 45.278 50.8892 41.7605 50.8892 37.4213C50.8892 33.0822 47.3716 29.5646 43.0325 29.5646C38.6933 29.5646 35.1758 33.0822 35.1758 37.4213C35.1758 41.7605 38.6933 45.278 43.0325 45.278Z" fill="#FFEACB"/>
<path d="M147.715 12.8917C150.496 12.8917 152.751 10.6372 152.751 7.85612C152.751 5.07502 150.496 2.82049 147.715 2.82049C144.934 2.82049 142.68 5.07502 142.68 7.85612C142.68 10.6372 144.934 12.8917 147.715 12.8917Z" fill="#FFEACB"/>
<path d="M81.9146 10.0712C84.6957 10.0712 86.9502 7.81673 86.9502 5.03563C86.9502 2.25453 84.6957 0 81.9146 0C79.1335 0 76.879 2.25453 76.879 5.03563C76.879 7.81673 79.1335 10.0712 81.9146 10.0712Z" fill="#FFEACB"/>
<path d="M221.552 50.3136C224.333 50.3136 226.588 48.0591 226.588 45.278C226.588 42.4969 224.333 40.2424 221.552 40.2424C218.771 40.2424 216.517 42.4969 216.517 45.278C216.517 48.0591 218.771 50.3136 221.552 50.3136Z" fill="white"/>
<path d="M202.992 31.8092C204.641 31.8092 205.978 30.4725 205.978 28.8236C205.978 27.1747 204.641 25.8381 202.992 25.8381C201.343 25.8381 200.007 27.1747 200.007 28.8236C200.007 30.4725 201.343 31.8092 202.992 31.8092Z" fill="white"/>
<path d="M116.652 130.77L115.798 135.609H114.619L115.136 132.707L113.537 135.609H112.586L112.007 132.693L111.496 135.609H110.318L111.173 130.77H112.565L113.337 134.12L115.267 130.77H116.652Z" fill="white"/>
<path d="M116.813 133.679C116.882 133.283 117.017 132.937 117.22 132.638C117.422 132.339 117.665 132.109 117.95 131.949C118.235 131.788 118.536 131.707 118.853 131.707C119.124 131.707 119.352 131.762 119.535 131.873C119.719 131.983 119.853 132.128 119.935 132.307L120.032 131.762H121.21L120.528 135.609H119.349L119.453 135.064C119.306 135.243 119.12 135.388 118.894 135.498C118.669 135.609 118.421 135.664 118.15 135.664C117.879 135.664 117.638 135.602 117.426 135.478C117.22 135.354 117.059 135.179 116.944 134.954C116.829 134.724 116.772 134.455 116.772 134.147C116.772 134 116.785 133.844 116.813 133.679ZM119.694 133.686C119.708 133.603 119.715 133.527 119.715 133.458C119.715 133.233 119.648 133.056 119.515 132.927C119.386 132.799 119.221 132.734 119.019 132.734C118.784 132.734 118.57 132.819 118.378 132.989C118.185 133.155 118.063 133.385 118.012 133.679C117.998 133.761 117.992 133.837 117.992 133.906C117.992 134.131 118.056 134.31 118.185 134.444C118.318 134.572 118.483 134.637 118.681 134.637C118.915 134.637 119.129 134.552 119.322 134.382C119.515 134.212 119.639 133.98 119.694 133.686Z" fill="white"/>
<path d="M123.037 135.664C122.734 135.664 122.461 135.615 122.217 135.519C121.978 135.422 121.79 135.289 121.652 135.119C121.514 134.945 121.445 134.745 121.445 134.52C121.445 134.487 121.45 134.43 121.459 134.347H122.596C122.587 134.49 122.628 134.605 122.72 134.692C122.817 134.775 122.952 134.816 123.127 134.816C123.274 134.816 123.396 134.788 123.492 134.733C123.589 134.678 123.637 134.6 123.637 134.499C123.637 134.402 123.584 134.327 123.478 134.271C123.377 134.212 123.207 134.14 122.968 134.058C122.72 133.975 122.511 133.895 122.341 133.816C122.176 133.734 122.033 133.617 121.914 133.465C121.794 133.313 121.735 133.123 121.735 132.893C121.735 132.668 121.801 132.466 121.934 132.286C122.068 132.103 122.254 131.96 122.493 131.859C122.736 131.758 123.017 131.707 123.334 131.707C123.651 131.707 123.926 131.76 124.161 131.866C124.395 131.967 124.577 132.109 124.705 132.293C124.834 132.477 124.898 132.684 124.898 132.914L124.891 133.017H123.823C123.832 132.879 123.791 132.769 123.699 132.686C123.607 132.603 123.476 132.562 123.306 132.562C123.173 132.562 123.063 132.59 122.975 132.645C122.893 132.7 122.851 132.776 122.851 132.872C122.851 132.973 122.906 133.058 123.017 133.127C123.131 133.192 123.308 133.265 123.547 133.348C123.795 133.431 124 133.513 124.161 133.596C124.326 133.674 124.466 133.787 124.581 133.934C124.701 134.076 124.76 134.255 124.76 134.471C124.76 134.719 124.685 134.933 124.533 135.112C124.386 135.292 124.181 135.429 123.92 135.526C123.662 135.618 123.368 135.664 123.037 135.664Z" fill="white"/>
<path d="M129.812 131.762L129.137 135.609H127.958L128.048 135.085C127.896 135.255 127.71 135.393 127.49 135.498C127.274 135.599 127.042 135.65 126.793 135.65C126.407 135.65 126.104 135.542 125.884 135.326C125.663 135.105 125.553 134.8 125.553 134.409C125.553 134.262 125.564 134.129 125.587 134.009L125.987 131.762H127.159L126.793 133.851C126.78 133.924 126.773 133.996 126.773 134.065C126.773 134.258 126.826 134.407 126.931 134.513C127.042 134.614 127.193 134.664 127.386 134.664C127.607 134.664 127.793 134.6 127.945 134.471C128.101 134.338 128.204 134.15 128.255 133.906L128.634 131.762H129.812Z" fill="white"/>
<path d="M132.578 133.692L133.853 135.609H132.391L131.502 134.003L131.22 135.609H130.041L130.944 130.508H132.123L131.626 133.32L133.06 131.762H134.514L132.578 133.692Z" fill="white"/>
<path d="M134.47 133.679C134.539 133.283 134.674 132.937 134.876 132.638C135.078 132.339 135.322 132.109 135.607 131.949C135.892 131.788 136.193 131.707 136.51 131.707C136.781 131.707 137.008 131.762 137.192 131.873C137.376 131.983 137.509 132.128 137.592 132.307L137.688 131.762H138.867L138.185 135.609H137.006L137.109 135.064C136.962 135.243 136.776 135.388 136.551 135.498C136.326 135.609 136.078 135.664 135.807 135.664C135.536 135.664 135.294 135.602 135.083 135.478C134.876 135.354 134.715 135.179 134.601 134.954C134.486 134.724 134.428 134.455 134.428 134.147C134.428 134 134.442 133.844 134.47 133.679ZM137.351 133.686C137.365 133.603 137.371 133.527 137.371 133.458C137.371 133.233 137.305 133.056 137.172 132.927C137.043 132.799 136.877 132.734 136.675 132.734C136.441 132.734 136.227 132.819 136.034 132.989C135.841 133.155 135.719 133.385 135.669 133.679C135.655 133.761 135.648 133.837 135.648 133.906C135.648 134.131 135.713 134.31 135.841 134.444C135.975 134.572 136.14 134.637 136.338 134.637C136.572 134.637 136.786 134.552 136.979 134.382C137.172 134.212 137.296 133.98 137.351 133.686Z" fill="white"/>
<path d="M142.121 131.721C142.507 131.721 142.81 131.829 143.031 132.045C143.251 132.261 143.361 132.562 143.361 132.948C143.361 133.077 143.348 133.215 143.32 133.362L142.92 135.609H141.749L142.121 133.52C142.135 133.442 142.141 133.373 142.141 133.313C142.141 133.12 142.086 132.971 141.976 132.865C141.87 132.76 141.721 132.707 141.528 132.707C141.298 132.707 141.105 132.778 140.949 132.92C140.793 133.063 140.692 133.263 140.646 133.52V133.486L140.274 135.609H139.095L139.77 131.762H140.949L140.859 132.279C141.011 132.109 141.195 131.974 141.411 131.873C141.631 131.772 141.868 131.721 142.121 131.721Z" fill="white"/>
<path d="M102.333 145.113L104.285 148.304H102.423L100.809 145.541L100.319 148.304H98.7949L99.9001 142.047H101.424L100.943 144.792L103.519 142.047H105.301L102.333 145.113Z" fill="white"/>
<path d="M107.499 143.25L107.277 144.552H109.318L109.113 145.701H107.072L106.822 147.101H109.13L108.917 148.304H105.084L106.189 142.047H110.022L109.808 143.25H107.499Z" fill="white"/>
<path d="M113.643 142.047C114.291 142.047 114.784 142.196 115.123 142.493C115.462 142.784 115.631 143.164 115.631 143.633C115.631 143.77 115.619 143.898 115.595 144.017C115.524 144.433 115.343 144.804 115.052 145.131C114.761 145.458 114.371 145.689 113.884 145.826L114.891 148.304H113.171L112.289 145.942H111.923L111.504 148.304H109.98L111.085 142.047H113.643ZM114.036 144.079C114.048 143.984 114.053 143.922 114.053 143.892C114.053 143.702 113.991 143.556 113.866 143.455C113.747 143.348 113.569 143.295 113.332 143.295H112.387L112.11 144.863H113.055C113.335 144.863 113.554 144.795 113.715 144.658C113.881 144.522 113.988 144.329 114.036 144.079Z" fill="white"/>
<path d="M119.96 147.199H117.625L117.054 148.304H115.459L118.828 142.047H120.593L121.751 148.304H120.138L119.96 147.199ZM119.782 146.04L119.416 143.723L118.222 146.04H119.782Z" fill="white"/>
<path d="M128.112 148.304H126.588L124.725 144.445L124.039 148.304H122.515L123.62 142.047H125.144L127.007 145.924L127.693 142.047H129.217L128.112 148.304Z" fill="white"/>
<path d="M134.318 142.047L133.569 146.307C133.451 146.967 133.174 147.475 132.74 147.831C132.307 148.188 131.775 148.366 131.145 148.366C130.575 148.366 130.123 148.224 129.79 147.938C129.463 147.653 129.3 147.243 129.3 146.708C129.3 146.524 129.315 146.358 129.345 146.209H130.86C130.842 146.304 130.833 146.391 130.833 146.468C130.833 146.646 130.878 146.78 130.967 146.869C131.056 146.958 131.181 147.003 131.341 147.003C131.525 147.003 131.677 146.946 131.796 146.833C131.92 146.714 132.004 146.539 132.045 146.307L132.794 142.047H134.318Z" fill="white"/>
<path d="M138.609 147.199H136.274L135.704 148.304H134.108L137.477 142.047H139.242L140.401 148.304H138.788L138.609 147.199ZM138.431 146.04L138.066 143.723L136.871 146.04H138.431Z" fill="white"/>
<path d="M146.761 148.304H145.237L143.375 144.445L142.688 148.304H141.164L142.269 142.047H143.793L145.656 145.924L146.343 142.047H147.867L146.761 148.304Z" fill="white"/>
<path d="M148.244 145.167C148.351 144.549 148.579 143.999 148.93 143.518C149.286 143.03 149.729 142.653 150.258 142.386C150.787 142.112 151.36 141.976 151.978 141.976C152.727 141.976 153.327 142.157 153.779 142.519C154.236 142.882 154.486 143.384 154.527 144.026H152.852C152.774 143.818 152.638 143.66 152.442 143.553C152.251 143.44 152.017 143.384 151.737 143.384C151.244 143.384 150.819 143.547 150.463 143.874C150.112 144.195 149.89 144.626 149.794 145.167C149.765 145.345 149.75 145.499 149.75 145.63C149.75 146.07 149.878 146.408 150.133 146.646C150.389 146.884 150.751 147.003 151.221 147.003C151.601 147.003 151.937 146.908 152.228 146.717C152.519 146.521 152.754 146.245 152.932 145.888H151.007L151.194 144.774H154.509L154.26 146.192C154.082 146.572 153.826 146.925 153.493 147.252C153.167 147.579 152.777 147.843 152.326 148.045C151.874 148.247 151.387 148.348 150.864 148.348C150.323 148.348 149.848 148.244 149.438 148.036C149.034 147.823 148.722 147.525 148.502 147.145C148.288 146.765 148.181 146.322 148.181 145.817C148.181 145.645 148.202 145.428 148.244 145.167Z" fill="white"/>
</svg>
